<svg viewBox="0 0 1117.800048828125 400" xmlns="http://www.w3.org/2000/svg"><g><g><g><g><g><line x1="50" y1="378" x2="45" y2="378" style="visibility: inherit;" fill="rgb(0, 0, 0)" stroke="rgb(204, 204, 204)" stroke-width="1px"></line><line x1="50" y1="352.79999999999995" x2="45" y2="352.79999999999995" style="visibility: inherit;" fill="rgb(0, 0, 0)" stroke="rgb(204, 204, 204)" stroke-width="1px"></line><line x1="50" y1="327.6" x2="45" y2="327.6" style="visibility: inherit;" fill="rgb(0, 0, 0)" stroke="rgb(204, 204, 204)" stroke-width="1px"></line><line x1="50" y1="302.40000000000003" x2="45" y2="302.40000000000003" style="visibility: inherit;" fill="rgb(0, 0, 0)" stroke="rgb(204, 204, 204)" stroke-width="1px"></line><line x1="50" y1="277.2" x2="45" y2="277.2" style="visibility: inherit;" fill="rgb(0, 0, 0)" stroke="rgb(204, 204, 204)" stroke-width="1px"></line><line x1="50" y1="251.99999999999994" x2="45" y2="251.99999999999994" style="visibility: inherit;" fill="rgb(0, 0, 0)" stroke="rgb(204, 204, 204)" stroke-width="1px"></line><line x1="50" y1="226.79999999999995" x2="45" y2="226.79999999999995" style="visibility: inherit;" fill="rgb(0, 0, 0)" stroke="rgb(204, 204, 204)" stroke-width="1px"></line><line x1="50" y1="201.60000000000005" x2="45" y2="201.60000000000005" style="visibility: inherit;" fill="rgb(0, 0, 0)" stroke="rgb(204, 204, 204)" stroke-width="1px"></line><line x1="50" y1="176.4" x2="45" y2="176.4" style="visibility: inherit;" fill="rgb(0, 0, 0)" stroke="rgb(204, 204, 204)" stroke-width="1px"></line><line x1="50" y1="151.20000000000002" x2="45" y2="151.20000000000002" style="visibility: inherit;" fill="rgb(0, 0, 0)" stroke="rgb(204, 204, 204)" stroke-width="1px"></line><line x1="50" y1="125.99999999999997" x2="45" y2="125.99999999999997" style="visibility: inherit;" fill="rgb(0, 0, 0)" stroke="rgb(204, 204, 204)" stroke-width="1px"></line><line x1="50" y1="100.79999999999994" x2="45" y2="100.79999999999994" style="visibility: inherit;" fill="rgb(0, 0, 0)" stroke="rgb(204, 204, 204)" stroke-width="1px"></line><line x1="50" y1="75.59999999999994" x2="45" y2="75.59999999999994" style="visibility: inherit;" fill="rgb(0, 0, 0)" stroke="rgb(204, 204, 204)" stroke-width="1px"></line><line x1="50" y1="50.400000000000034" x2="45" y2="50.400000000000034" style="visibility: inherit;" fill="rgb(0, 0, 0)" stroke="rgb(204, 204, 204)" stroke-width="1px"></line><line x1="50" y1="25.200000000000035" x2="45" y2="25.200000000000035" style="visibility: inherit;" fill="rgb(0, 0, 0)" stroke="rgb(204, 204, 204)" stroke-width="1px"></line><line x1="50" y1="0" x2="45" y2="0" style="visibility: inherit;" fill="rgb(0, 0, 0)" stroke="rgb(204, 204, 204)" stroke-width="1px"></line></g><g transform="translate(40, 0)"><text x="0" y="378" dx="0em" dy="0.3em" style="text-anchor: end; visibility: hidden; font-family: Roboto, sans-serif; font-size: 12px; font-weight: 200;" fill="rgb(50, 49, 63)" stroke="none" stroke-width="1px">0.44</text><text x="0" y="352.79999999999995" dx="0em" dy="0.3em" style="text-anchor: end; visibility: inherit; font-family: Roboto, sans-serif; font-size: 12px; font-weight: 200;" fill="rgb(50, 49, 63)" stroke="none" stroke-width="1px">0.46</text><text x="0" y="327.6" dx="0em" dy="0.3em" style="text-anchor: end; visibility: inherit; font-family: Roboto, sans-serif; font-size: 12px; font-weight: 200;" fill="rgb(50, 49, 63)" stroke="none" stroke-width="1px">0.48</text><text x="0" y="302.40000000000003" dx="0em" dy="0.3em" style="text-anchor: end; visibility: inherit; font-family: Roboto, sans-serif; font-size: 12px; font-weight: 200;" fill="rgb(50, 49, 63)" stroke="none" stroke-width="1px">0.5</text><text x="0" y="277.2" dx="0em" dy="0.3em" style="text-anchor: end; visibility: inherit; font-family: Roboto, sans-serif; font-size: 12px; font-weight: 200;" fill="rgb(50, 49, 63)" stroke="none" stroke-width="1px">0.52</text><text x="0" y="251.99999999999994" dx="0em" dy="0.3em" style="text-anchor: end; visibility: inherit; font-family: Roboto, sans-serif; font-size: 12px; font-weight: 200;" fill="rgb(50, 49, 63)" stroke="none" stroke-width="1px">0.54</text><text x="0" y="226.79999999999995" dx="0em" dy="0.3em" style="text-anchor: end; visibility: inherit; font-family: Roboto, sans-serif; font-size: 12px; font-weight: 200;" fill="rgb(50, 49, 63)" stroke="none" stroke-width="1px">0.56</text><text x="0" y="201.60000000000005" dx="0em" dy="0.3em" style="text-anchor: end; visibility: inherit; font-family: Roboto, sans-serif; font-size: 12px; font-weight: 200;" fill="rgb(50, 49, 63)" stroke="none" stroke-width="1px">0.58</text><text x="0" y="176.4" dx="0em" dy="0.3em" style="text-anchor: end; visibility: inherit; font-family: Roboto, sans-serif; font-size: 12px; font-weight: 200;" fill="rgb(50, 49, 63)" stroke="none" stroke-width="1px">0.6</text><text x="0" y="151.20000000000002" dx="0em" dy="0.3em" style="text-anchor: end; visibility: inherit; font-family: Roboto, sans-serif; font-size: 12px; font-weight: 200;" fill="rgb(50, 49, 63)" stroke="none" stroke-width="1px">0.62</text><text x="0" y="125.99999999999997" dx="0em" dy="0.3em" style="text-anchor: end; visibility: inherit; font-family: Roboto, sans-serif; font-size: 12px; font-weight: 200;" fill="rgb(50, 49, 63)" stroke="none" stroke-width="1px">0.64</text><text x="0" y="100.79999999999994" dx="0em" dy="0.3em" style="text-anchor: end; visibility: inherit; font-family: Roboto, sans-serif; font-size: 12px; font-weight: 200;" fill="rgb(50, 49, 63)" stroke="none" stroke-width="1px">0.66</text><text x="0" y="75.59999999999994" dx="0em" dy="0.3em" style="text-anchor: end; visibility: inherit; font-family: Roboto, sans-serif; font-size: 12px; font-weight: 200;" fill="rgb(50, 49, 63)" stroke="none" stroke-width="1px">0.68</text><text x="0" y="50.400000000000034" dx="0em" dy="0.3em" style="text-anchor: end; visibility: inherit; font-family: Roboto, sans-serif; font-size: 12px; font-weight: 200;" fill="rgb(50, 49, 63)" stroke="none" stroke-width="1px">0.7</text><text x="0" y="25.200000000000035" dx="0em" dy="0.3em" style="text-anchor: end; visibility: inherit; font-family: Roboto, sans-serif; font-size: 12px; font-weight: 200;" fill="rgb(50, 49, 63)" stroke="none" stroke-width="1px">0.72</text><text x="0" y="0" dx="0em" dy="0.3em" style="text-anchor: end; visibility: hidden; font-family: Roboto, sans-serif; font-size: 12px; font-weight: 200;" fill="rgb(50, 49, 63)" stroke="none" stroke-width="1px">0.74</text></g><line x1="50" y1="0" x2="50" y2="378" fill="rgb(0, 0, 0)" stroke="rgb(204, 204, 204)" stroke-width="1px"></line></g></g><g transform="translate(50, 0)" clip-path="url(#clip_0)"><clipPath id="clip_0"><rect width="1067" height="378"></rect></clipPath><g><g><g><line x1="0" y1="0" x2="0" y2="378" fill="rgb(0, 0, 0)" stroke="rgb(60, 60, 60)" stroke-width="1px" opacity="0.25"></line><line x1="88.98333333333332" y1="0" x2="88.98333333333332" y2="378" fill="rgb(0, 0, 0)" stroke="rgb(60, 60, 60)" stroke-width="1px" opacity="0.25"></line><line x1="177.96666666666664" y1="0" x2="177.96666666666664" y2="378" fill="rgb(0, 0, 0)" stroke="rgb(60, 60, 60)" stroke-width="1px" opacity="0.25"></line><line x1="266.95" y1="0" x2="266.95" y2="378" fill="rgb(0, 0, 0)" stroke="rgb(60, 60, 60)" stroke-width="1px" opacity="0.25"></line><line x1="355.9333333333333" y1="0" x2="355.9333333333333" y2="378" fill="rgb(0, 0, 0)" stroke="rgb(60, 60, 60)" stroke-width="1px" opacity="0.25"></line><line x1="444.9166666666667" y1="0" x2="444.9166666666667" y2="378" fill="rgb(0, 0, 0)" stroke="rgb(60, 60, 60)" stroke-width="1px" opacity="0.25"></line><line x1="533.9" y1="0" x2="533.9" y2="378" fill="rgb(0, 0, 0)" stroke="rgb(60, 60, 60)" stroke-width="1px" opacity="0.25"></line><line x1="622.8833333333333" y1="0" x2="622.8833333333333" y2="378" fill="rgb(0, 0, 0)" stroke="rgb(60, 60, 60)" stroke-width="1px" opacity="0.25"></line><line x1="711.8666666666666" y1="0" x2="711.8666666666666" y2="378" fill="rgb(0, 0, 0)" stroke="rgb(60, 60, 60)" stroke-width="1px" opacity="0.25"></line><line x1="800.8499999999999" y1="0" x2="800.8499999999999" y2="378" fill="rgb(0, 0, 0)" stroke="rgb(60, 60, 60)" stroke-width="1px" opacity="0.25"></line><line x1="889.8333333333334" y1="0" x2="889.8333333333334" y2="378" fill="rgb(0, 0, 0)" stroke="rgb(60, 60, 60)" stroke-width="1px" opacity="0.25"></line><line x1="978.8166666666666" y1="0" x2="978.8166666666666" y2="378" fill="rgb(0, 0, 0)" stroke="rgb(60, 60, 60)" stroke-width="1px" opacity="0.25"></line><line x1="1067.8" y1="0" x2="1067.8" y2="378" fill="rgb(0, 0, 0)" stroke="rgb(60, 60, 60)" stroke-width="1px" opacity="0.25"></line></g><g><line x1="0" y1="378" x2="1067.8" y2="378" fill="rgb(0, 0, 0)" stroke="rgb(60, 60, 60)" stroke-width="1px" opacity="0.25"></line><line x1="0" y1="352.79999999999995" x2="1067.8" y2="352.79999999999995" fill="rgb(0, 0, 0)" stroke="rgb(60, 60, 60)" stroke-width="1px" opacity="0.25"></line><line x1="0" y1="327.6" x2="1067.8" y2="327.6" fill="rgb(0, 0, 0)" stroke="rgb(60, 60, 60)" stroke-width="1px" opacity="0.25"></line><line x1="0" y1="302.40000000000003" x2="1067.8" y2="302.40000000000003" fill="rgb(0, 0, 0)" stroke="rgb(60, 60, 60)" stroke-width="1px" opacity="0.25"></line><line x1="0" y1="277.2" x2="1067.8" y2="277.2" fill="rgb(0, 0, 0)" stroke="rgb(60, 60, 60)" stroke-width="1px" opacity="0.25"></line><line x1="0" y1="251.99999999999994" x2="1067.8" y2="251.99999999999994" fill="rgb(0, 0, 0)" stroke="rgb(60, 60, 60)" stroke-width="1px" opacity="0.25"></line><line x1="0" y1="226.79999999999995" x2="1067.8" y2="226.79999999999995" fill="rgb(0, 0, 0)" stroke="rgb(60, 60, 60)" stroke-width="1px" opacity="0.25"></line><line x1="0" y1="201.60000000000005" x2="1067.8" y2="201.60000000000005" fill="rgb(0, 0, 0)" stroke="rgb(60, 60, 60)" stroke-width="1px" opacity="0.25"></line><line x1="0" y1="176.4" x2="1067.8" y2="176.4" fill="rgb(0, 0, 0)" stroke="rgb(60, 60, 60)" stroke-width="1px" opacity="0.25"></line><line x1="0" y1="151.20000000000002" x2="1067.8" y2="151.20000000000002" fill="rgb(0, 0, 0)" stroke="rgb(60, 60, 60)" stroke-width="1px" opacity="0.25"></line><line x1="0" y1="125.99999999999997" x2="1067.8" y2="125.99999999999997" fill="rgb(0, 0, 0)" stroke="rgb(60, 60, 60)" stroke-width="1px" opacity="0.25"></line><line x1="0" y1="100.79999999999994" x2="1067.8" y2="100.79999999999994" fill="rgb(0, 0, 0)" stroke="rgb(60, 60, 60)" stroke-width="1px" opacity="0.25"></line><line x1="0" y1="75.59999999999994" x2="1067.8" y2="75.59999999999994" fill="rgb(0, 0, 0)" stroke="rgb(60, 60, 60)" stroke-width="1px" opacity="0.25"></line><line x1="0" y1="50.400000000000034" x2="1067.8" y2="50.400000000000034" fill="rgb(0, 0, 0)" stroke="rgb(60, 60, 60)" stroke-width="1px" opacity="0.25"></line><line x1="0" y1="25.200000000000035" x2="1067.8" y2="25.200000000000035" fill="rgb(0, 0, 0)" stroke="rgb(60, 60, 60)" stroke-width="1px" opacity="0.25"></line><line x1="0" y1="0" x2="1067.8" y2="0" fill="rgb(0, 0, 0)" stroke="rgb(60, 60, 60)" stroke-width="1px" opacity="0.25"></line></g></g></g><g><g><line x1="0" y1="932.4000000000001" x2="1067.8" y2="932.4000000000001" fill="rgb(0, 0, 0)" stroke="rgb(153, 153, 153)" stroke-width="1.5px"></line></g></g><g><g><line x1="88.98333333333332" y1="0" x2="88.98333333333332" y2="378" fill="rgb(0, 0, 0)" stroke="rgb(153, 153, 153)" stroke-width="1.5px"></line></g></g><g><g><g><g><g><path stroke="rgb(51, 187, 238)" stroke-width="2px" d="M88.98333333333332,285.89328875541685L106.78,269.2202269077301L124.57666666666667,263.85660281181333L142.37333333333333,263.39923253059385L160.17,265.4781269073486L177.96666666666664,267.0997261047363L195.76333333333332,272.1307240962982L213.56,278.2428132534027L231.35666666666665,274.5838510036468L249.15333333333334,279.8228060245514L266.95,279.19908514022825L284.74666666666667,281.1533104419708L302.5433333333333,280.6128024101257L320.34,282.81644096374515L338.13666666666666,286.43379678726194L355.9333333333333,288.0969273090363L373.72999999999996,288.80378594398496L391.52666666666664,288.72064819335935L409.3233333333333,288.6374353408814L427.12,292.62902369499204L444.9166666666667,292.46267309188846L462.7133333333333,290.9242867469788L480.51,292.54588594436643L498.3066666666667,294.7495244979859L516.1033333333334,296.28791084289554L533.9,294.50003614425657L551.6966666666667,296.2463795185089L569.4933333333333,299.19840803146366L587.2900000000001,300.6537317276001L605.0866666666666,301.4437281131744L622.8833333333333,299.98840441703794L640.68,300.98635783195493L658.4766666666667,302.8989391565323L676.2733333333333,307.1399783134461L694.07,305.3936724901199L711.8666666666666,304.1463058233261L729.6633333333333,305.3936724901199L747.4599999999999,302.8989391565323L765.2566666666667,306.6826080322266L783.0533333333333,306.80735220909116L800.8499999999999,310.67415883541105L818.6466666666666,307.0152341365814L836.4433333333333,308.88628413677213L854.24,307.5557421684265L872.0366666666666,306.0173558235168L889.8333333333334,308.67836465835575L907.6299999999999,309.46836104393003L925.4266666666666,307.1815471887589L943.2233333333332,311.83835020065305L961.02,310.092044377327" style="fill: none;" fill="none"></path></g><g><path stroke="rgb(204, 51, 17)" stroke-width="2px" d="M88.98333333333332,376.36458506584165L106.78,255.06270160675047L124.57666666666667,212.9652594566345L142.37333333333333,185.26859750747678L160.17,165.05756249427793L177.96666666666664,150.30027379989622L195.76333333333332,139.08974518775938L213.56,130.01796712875367L231.35666666666665,124.88498082160949L249.15333333333334,117.809334897995L266.95,112.19517102241517L284.74666666666667,105.15519847869872L302.5433333333333,101.80452933311463L320.34,96.61807050704954L338.13666666666666,96.63586964607236L355.9333333333333,94.58626499176023L373.72999999999996,89.91665711402892L391.52666666666664,84.28469409942626L409.3233333333333,87.08283891677857L427.12,84.035205745697L444.9166666666667,81.93205347061156L462.7133333333333,80.96962323188782L480.51,81.53994669914243L498.3066666666667,75.14156928062438L516.1033333333334,73.73363485336303L533.9,73.64448895454407L551.6966666666667,73.60881557464599L569.4933333333333,72.05826272964477L587.2900000000001,70.3828906059265L605.0866666666666,70.00865807533263L622.8833333333333,69.54520454406737L640.68,69.20664539337159L658.4766666666667,68.40455760955811L676.2733333333333,66.40842547416685L694.07,66.6935872077942L711.8666666666666,65.83810200691224L729.6633333333333,65.01829018592832L747.4599999999999,67.5847457885742L765.2566666666667,65.12516012191772L783.0533333333333,61.703219318389884L800.8499999999999,64.75092759132384L818.6466666666666,60.651643180847145L836.4433333333333,62.220070266723624L854.24,59.02981867790223L872.0366666666666,60.776462459564186L889.8333333333334,59.421925449371315L907.6299999999999,58.17433347702027L925.4266666666666,58.81592860221862L943.2233333333332,58.79812946319579L961.02,60.34868230819701" style="fill: none;" fill="none"></path></g><g><path stroke="rgb(0, 119, 187)" stroke-width="2px" d="M88.98333333333332,289.17801847457883L106.78,271.6733538150787L124.57666666666667,262.1933971881866L142.37333333333333,266.3928674697876L160.17,268.47183694839475L177.96666666666664,269.511246585846L195.76333333333332,270.8418261051178L213.56,273.8354610443115L231.35666666666665,278.2012068271637L249.15333333333334,280.2801763057709L266.95,281.6938184738159L284.74666666666667,280.52958955764774L302.5433333333333,283.3985554218292L320.34,285.2695678710938L338.13666666666666,284.6459220886231L355.9333333333333,287.2237931728363L373.72999999999996,286.51693453788755L391.52666666666664,288.72064819335935L409.3233333333333,291.29851927757267L427.12,292.58741726875303L444.9166666666667,291.173775100708L462.7133333333333,290.96589317321775L480.51,294.99901285171507L498.3066666666667,294.99901285171507L516.1033333333334,295.1652883529663L533.9,296.8700253009796L551.6966666666667,299.2816208839416L569.4933333333333,296.3295172691345L587.2900000000001,297.1195136547089L605.0866666666666,298.9489947795868L622.8833333333333,299.9468730926514L640.68,299.98840441703794L658.4766666666667,301.73474779129026L676.2733333333333,301.9010232925415L694.07,302.73262610435484L711.8666666666666,304.43736305236814L729.6633333333333,306.7657457828522L747.4599999999999,306.4747261047363L765.2566666666667,307.38942911624906L783.0533333333333,308.17942550182346L800.8499999999999,307.0568030118942L818.6466666666666,305.7262985944748L836.4433333333333,308.63679578304294L854.24,307.098371887207L872.0366666666666,310.5909835338593L889.8333333333334,310.0089066267014L907.6299999999999,307.4310355424881L925.4266666666666,310.75729658603666L943.2233333333332,310.67415883541105L961.02,308.09628775119785" style="fill: none;" fill="none"></path></g><g><path stroke="rgb(255, 112, 67)" stroke-width="2px" d="M88.98333333333332,376.32894923686985L106.78,253.69029035568238L124.57666666666667,211.61072244644163L142.37333333333333,183.53982796669004L160.17,167.19631304740906L177.96666666666664,151.61921253204343L195.76333333333332,140.7473181724548L213.56,129.69713201522828L231.35666666666665,123.74433388710023L249.15333333333334,118.64702095985413L266.95,111.19706740379334L284.74666666666667,106.11762871742246L302.5433333333333,101.85792675018311L320.34,96.74281468391419L338.13666666666666,96.45765295028684L355.9333333333333,92.55445947647092L373.72999999999996,88.57999434471131L391.52666666666664,87.68883576393127L409.3233333333333,83.99953236579896L427.12,80.39929976463317L444.9166666666667,80.6309889793396L462.7133333333333,83.46480717658996L480.51,80.07853975296021L498.3066666666667,76.70999636650086L516.1033333333334,76.97735896110534L533.9,75.89018454551695L551.6966666666667,73.71576061248777L569.4933333333333,71.79090013504029L587.2900000000001,70.11560311317442L605.0866666666666,71.13150587081907L622.8833333333333,71.57701005935668L640.68,69.04622783660889L658.4766666666667,69.58087792396546L676.2733333333333,66.0519920825958L694.07,65.96284618377685L711.8666666666666,64.76872673034667L729.6633333333333,62.986484670639015L747.4599999999999,66.83620562553406L765.2566666666667,63.16470136642454L783.0533333333333,61.79236521720884L800.8499999999999,63.27164640426636L818.6466666666666,62.11312522888184L836.4433333333333,60.58037152290345L854.24,62.13092436790467L872.0366666666666,62.05965270996093L889.8333333333334,61.20416750907897L907.6299999999999,59.51099624633788L925.4266666666666,59.43972458839414L943.2233333333332,57.33664741516114L961.02,56.78412308692931" style="fill: none;" fill="none"></path></g></g></g></g></g></g><g transform="translate(50, 378)" clip-path="url(#clip_1)"><clipPath id="clip_1"><rect width="1067" height="22"></rect></clipPath><g><g><line x1="0" y1="0" x2="0" y2="5" style="visibility: inherit;" fill="rgb(0, 0, 0)" stroke="rgb(204, 204, 204)" stroke-width="1px"></line><line x1="88.98333333333332" y1="0" x2="88.98333333333332" y2="5" style="visibility: inherit;" fill="rgb(0, 0, 0)" stroke="rgb(204, 204, 204)" stroke-width="1px"></line><line x1="177.96666666666664" y1="0" x2="177.96666666666664" y2="5" style="visibility: inherit;" fill="rgb(0, 0, 0)" stroke="rgb(204, 204, 204)" stroke-width="1px"></line><line x1="266.95" y1="0" x2="266.95" y2="5" style="visibility: inherit;" fill="rgb(0, 0, 0)" stroke="rgb(204, 204, 204)" stroke-width="1px"></line><line x1="355.9333333333333" y1="0" x2="355.9333333333333" y2="5" style="visibility: inherit;" fill="rgb(0, 0, 0)" stroke="rgb(204, 204, 204)" stroke-width="1px"></line><line x1="444.9166666666667" y1="0" x2="444.9166666666667" y2="5" style="visibility: inherit;" fill="rgb(0, 0, 0)" stroke="rgb(204, 204, 204)" stroke-width="1px"></line><line x1="533.9" y1="0" x2="533.9" y2="5" style="visibility: inherit;" fill="rgb(0, 0, 0)" stroke="rgb(204, 204, 204)" stroke-width="1px"></line><line x1="622.8833333333333" y1="0" x2="622.8833333333333" y2="5" style="visibility: inherit;" fill="rgb(0, 0, 0)" stroke="rgb(204, 204, 204)" stroke-width="1px"></line><line x1="711.8666666666666" y1="0" x2="711.8666666666666" y2="5" style="visibility: inherit;" fill="rgb(0, 0, 0)" stroke="rgb(204, 204, 204)" stroke-width="1px"></line><line x1="800.8499999999999" y1="0" x2="800.8499999999999" y2="5" style="visibility: inherit;" fill="rgb(0, 0, 0)" stroke="rgb(204, 204, 204)" stroke-width="1px"></line><line x1="889.8333333333334" y1="0" x2="889.8333333333334" y2="5" style="visibility: inherit;" fill="rgb(0, 0, 0)" stroke="rgb(204, 204, 204)" stroke-width="1px"></line><line x1="978.8166666666666" y1="0" x2="978.8166666666666" y2="5" style="visibility: inherit;" fill="rgb(0, 0, 0)" stroke="rgb(204, 204, 204)" stroke-width="1px"></line><line x1="1067.8" y1="0" x2="1067.8" y2="5" style="visibility: inherit;" fill="rgb(0, 0, 0)" stroke="rgb(204, 204, 204)" stroke-width="1px"></line></g><g transform="translate(0, 8)"><text x="0" y="0" dx="0em" dy="0.95em" style="text-anchor: middle; visibility: hidden; font-family: Roboto, sans-serif; font-size: 12px; font-weight: 200;" fill="rgb(50, 49, 63)" stroke="none" stroke-width="1px">-5</text><text x="88.98333333333332" y="0" dx="0em" dy="0.95em" style="text-anchor: middle; visibility: inherit; font-family: Roboto, sans-serif; font-size: 12px; font-weight: 200;" fill="rgb(50, 49, 63)" stroke="none" stroke-width="1px">0</text><text x="177.96666666666664" y="0" dx="0em" dy="0.95em" style="text-anchor: middle; visibility: inherit; font-family: Roboto, sans-serif; font-size: 12px; font-weight: 200;" fill="rgb(50, 49, 63)" stroke="none" stroke-width="1px">5</text><text x="266.95" y="0" dx="0em" dy="0.95em" style="text-anchor: middle; visibility: inherit; font-family: Roboto, sans-serif; font-size: 12px; font-weight: 200;" fill="rgb(50, 49, 63)" stroke="none" stroke-width="1px">10</text><text x="355.9333333333333" y="0" dx="0em" dy="0.95em" style="text-anchor: middle; visibility: inherit; font-family: Roboto, sans-serif; font-size: 12px; font-weight: 200;" fill="rgb(50, 49, 63)" stroke="none" stroke-width="1px">15</text><text x="444.9166666666667" y="0" dx="0em" dy="0.95em" style="text-anchor: middle; visibility: inherit; font-family: Roboto, sans-serif; font-size: 12px; font-weight: 200;" fill="rgb(50, 49, 63)" stroke="none" stroke-width="1px">20</text><text x="533.9" y="0" dx="0em" dy="0.95em" style="text-anchor: middle; visibility: inherit; font-family: Roboto, sans-serif; font-size: 12px; font-weight: 200;" fill="rgb(50, 49, 63)" stroke="none" stroke-width="1px">25</text><text x="622.8833333333333" y="0" dx="0em" dy="0.95em" style="text-anchor: middle; visibility: inherit; font-family: Roboto, sans-serif; font-size: 12px; font-weight: 200;" fill="rgb(50, 49, 63)" stroke="none" stroke-width="1px">30</text><text x="711.8666666666666" y="0" dx="0em" dy="0.95em" style="text-anchor: middle; visibility: inherit; font-family: Roboto, sans-serif; font-size: 12px; font-weight: 200;" fill="rgb(50, 49, 63)" stroke="none" stroke-width="1px">35</text><text x="800.8499999999999" y="0" dx="0em" dy="0.95em" style="text-anchor: middle; visibility: inherit; font-family: Roboto, sans-serif; font-size: 12px; font-weight: 200;" fill="rgb(50, 49, 63)" stroke="none" stroke-width="1px">40</text><text x="889.8333333333334" y="0" dx="0em" dy="0.95em" style="text-anchor: middle; visibility: inherit; font-family: Roboto, sans-serif; font-size: 12px; font-weight: 200;" fill="rgb(50, 49, 63)" stroke="none" stroke-width="1px">45</text><text x="978.8166666666666" y="0" dx="0em" dy="0.95em" style="text-anchor: middle; visibility: inherit; font-family: Roboto, sans-serif; font-size: 12px; font-weight: 200;" fill="rgb(50, 49, 63)" stroke="none" stroke-width="1px">50</text><text x="1067.8" y="0" dx="0em" dy="0.95em" style="text-anchor: middle; visibility: hidden; font-family: Roboto, sans-serif; font-size: 12px; font-weight: 200;" fill="rgb(50, 49, 63)" stroke="none" stroke-width="1px">55</text></g><line x1="0" y1="0" x2="1067.8" y2="0" fill="rgb(0, 0, 0)" stroke="rgb(204, 204, 204)" stroke-width="1px"></line></g></g></g></g></svg>