<svg viewBox="0 0 1117.800048828125 400" xmlns="http://www.w3.org/2000/svg"><g><g><g><g><g><line x1="20.390625" y1="357.29726971909275" x2="15.390625" y2="357.29726971909275" style="visibility: inherit;" fill="rgb(0, 0, 0)" stroke="rgb(204, 204, 204)" stroke-width="1px"></line><line x1="20.390625" y1="133.45514472906908" x2="15.390625" y2="133.45514472906908" style="visibility: inherit;" fill="rgb(0, 0, 0)" stroke="rgb(204, 204, 204)" stroke-width="1px"></line><line x1="20.390625" y1="2.5158955281672215" x2="15.390625" y2="2.5158955281672215" style="visibility: inherit;" fill="rgb(0, 0, 0)" stroke="rgb(204, 204, 204)" stroke-width="1px"></line></g><g transform="translate(10.390625, 0)"><text x="0" y="357.29726971909275" dx="0em" dy="0.3em" style="text-anchor: end; visibility: inherit; font-family: Roboto, sans-serif; font-size: 12px; font-weight: 200;" fill="rgb(50, 49, 63)" stroke="none" stroke-width="1px">1</text><text x="0" y="133.45514472906908" dx="0em" dy="0.3em" style="text-anchor: end; visibility: inherit; font-family: Roboto, sans-serif; font-size: 12px; font-weight: 200;" fill="rgb(50, 49, 63)" stroke="none" stroke-width="1px">2</text><text x="0" y="2.5158955281672215" dx="0em" dy="0.3em" style="text-anchor: end; visibility: hidden; font-family: Roboto, sans-serif; font-size: 12px; font-weight: 200;" fill="rgb(50, 49, 63)" stroke="none" stroke-width="1px">3</text></g><line x1="20.390625" y1="0" x2="20.390625" y2="378" fill="rgb(0, 0, 0)" stroke="rgb(204, 204, 204)" stroke-width="1px"></line></g></g><g transform="translate(20, 0)" clip-path="url(#clip_0)"><clipPath id="clip_0"><rect width="1097" height="378"></rect></clipPath><g><g><g><line x1="0" y1="0" x2="0" y2="378" fill="rgb(0, 0, 0)" stroke="rgb(60, 60, 60)" stroke-width="1px" opacity="0.25"></line><line x1="91.45078124999999" y1="0" x2="91.45078124999999" y2="378" fill="rgb(0, 0, 0)" stroke="rgb(60, 60, 60)" stroke-width="1px" opacity="0.25"></line><line x1="182.90156249999998" y1="0" x2="182.90156249999998" y2="378" fill="rgb(0, 0, 0)" stroke="rgb(60, 60, 60)" stroke-width="1px" opacity="0.25"></line><line x1="274.35234375" y1="0" x2="274.35234375" y2="378" fill="rgb(0, 0, 0)" stroke="rgb(60, 60, 60)" stroke-width="1px" opacity="0.25"></line><line x1="365.80312499999997" y1="0" x2="365.80312499999997" y2="378" fill="rgb(0, 0, 0)" stroke="rgb(60, 60, 60)" stroke-width="1px" opacity="0.25"></line><line x1="457.25390625" y1="0" x2="457.25390625" y2="378" fill="rgb(0, 0, 0)" stroke="rgb(60, 60, 60)" stroke-width="1px" opacity="0.25"></line><line x1="548.7046875" y1="0" x2="548.7046875" y2="378" fill="rgb(0, 0, 0)" stroke="rgb(60, 60, 60)" stroke-width="1px" opacity="0.25"></line><line x1="640.1554687500001" y1="0" x2="640.1554687500001" y2="378" fill="rgb(0, 0, 0)" stroke="rgb(60, 60, 60)" stroke-width="1px" opacity="0.25"></line><line x1="731.6062499999999" y1="0" x2="731.6062499999999" y2="378" fill="rgb(0, 0, 0)" stroke="rgb(60, 60, 60)" stroke-width="1px" opacity="0.25"></line><line x1="823.0570312499999" y1="0" x2="823.0570312499999" y2="378" fill="rgb(0, 0, 0)" stroke="rgb(60, 60, 60)" stroke-width="1px" opacity="0.25"></line><line x1="914.5078125" y1="0" x2="914.5078125" y2="378" fill="rgb(0, 0, 0)" stroke="rgb(60, 60, 60)" stroke-width="1px" opacity="0.25"></line><line x1="1005.9585937499999" y1="0" x2="1005.9585937499999" y2="378" fill="rgb(0, 0, 0)" stroke="rgb(60, 60, 60)" stroke-width="1px" opacity="0.25"></line><line x1="1097.409375" y1="0" x2="1097.409375" y2="378" fill="rgb(0, 0, 0)" stroke="rgb(60, 60, 60)" stroke-width="1px" opacity="0.25"></line></g><g><line x1="0" y1="357.29726971909275" x2="1097.409375" y2="357.29726971909275" fill="rgb(0, 0, 0)" stroke="rgb(60, 60, 60)" stroke-width="1px" opacity="0.25"></line><line x1="0" y1="133.45514472906908" x2="1097.409375" y2="133.45514472906908" fill="rgb(0, 0, 0)" stroke="rgb(60, 60, 60)" stroke-width="1px" opacity="0.25"></line><line x1="0" y1="2.5158955281672215" x2="1097.409375" y2="2.5158955281672215" fill="rgb(0, 0, 0)" stroke="rgb(60, 60, 60)" stroke-width="1px" opacity="0.25"></line></g></g></g><g><g><line x1="91.45078124999999" y1="0" x2="91.45078124999999" y2="378" fill="rgb(0, 0, 0)" stroke="rgb(153, 153, 153)" stroke-width="1.5px"></line></g></g><g><g><g><g><g><path stroke="rgb(0, 153, 136)" stroke-width="2px" d="M91.45078124999999,76.76439408589718L109.7409375,114.4028931489822L128.03109375,130.97914312886562L146.32125,140.65308907864147L164.61140625,146.53363432088378L182.90156249999998,150.31263019251662L201.19171874999998,152.71878406879662L219.481875,154.0591177741429L237.77203125,154.65137973493742L256.0621875,154.80966576328998L274.35234375,154.80966576328998L292.6425,154.80966576328998L310.93265625,154.80966576328998L329.2228125,154.80966576328998L347.51296874999997,154.80966576328998L365.80312499999997,154.80966576328998L384.09328124999996,154.80966576328998L402.38343749999996,154.80966576328998L420.67359375,154.80966576328998L438.96375,154.80966576328998L457.25390625,154.80966576328998L475.5440625,154.80966576328998L493.83421875,154.80966576328998L512.124375,154.80966576328998L530.41453125,154.80966576328998L548.7046875,154.80966576328998L566.9948437500001,154.80966576328998L585.285,154.80966576328998L603.5751562500001,154.80966576328998L621.8653125,154.80966576328998L640.1554687500001,154.80966576328998L658.445625,154.80966576328998L676.7357812500001,154.80966576328998L695.0259374999999,154.80966576328998L713.31609375,154.80966576328998L731.6062499999999,154.80966576328998L749.89640625,154.80966576328998L768.1865624999999,154.80966576328998L786.47671875,154.80966576328998L804.7668749999999,154.80966576328998L823.0570312499999,154.80966576328998L841.3471875,154.80966576328998L859.6373437499999,154.80966576328998L877.9275,154.80966576328998L896.2176562499999,154.80966576328998L914.5078125,154.80966576328998L932.7979687499999,154.80966576328998L951.088125,154.80966576328998L969.3782812499999,154.80966576328998L987.6684375,154.80966576328998" style="fill: none;" fill="none"></path></g><g><path stroke="rgb(238, 51, 119)" stroke-width="2px" d="M91.45078124999999,-0.33272612665756673L109.7409375,98.43230048574968L128.03109375,128.79089867891986L146.32125,146.15228156600415L164.61140625,157.78288904286737L182.90156249999998,166.2783507416017L201.19171874999998,172.4562793152534L219.481875,176.36330010601196L237.77203125,178.59670069632554L256.0621875,179.79985346912906L274.35234375,180.29364562030509L292.6425,180.23281195696234L310.93265625,180.29593767581784L329.2228125,180.57208248046518L347.51296874999997,179.9072996599593L365.80312499999997,180.1438739198976L384.09328124999996,180.19870650756064L402.38343749999996,180.404662101542L420.67359375,179.96340366577397L438.96375,180.05004615287726L457.25390625,180.36882462327603L475.5440625,180.3380654379337L493.83421875,180.2181726470516L512.124375,180.31396314541942L530.41453125,180.14347355390217L548.7046875,179.93488365238755L566.9948437500001,179.87331746472253L585.285,180.05218082625606L603.5751562500001,180.32444508482888L621.8653125,179.74633260585722L640.1554687500001,180.29035220979722L658.445625,180.2614917991262L676.7357812500001,180.09954752197817L695.0259374999999,180.10090413532004L713.31609375,180.16095666477344L731.6062499999999,180.06816908903298L749.89640625,180.12841570436183L768.1865624999999,180.16878655818527L786.47671875,180.40791215650535L804.7668749999999,180.4849658472635L823.0570312499999,179.76350541578887L841.3471875,180.05140255828562L859.6373437499999,180.0182500844623L877.9275,180.44061487234126L896.2176562499999,180.08584827052854L914.5078125,180.59393213204766L932.7979687499999,179.89785362879584L951.088125,180.40495148867112L969.3782812499999,180.14516399148155L987.6684375,180.0871381103307" style="fill: none;" fill="none"></path></g><g><path stroke="rgb(51, 187, 238)" stroke-width="2px" d="M91.45078124999999,76.47154412344747L109.7409375,114.590501875695L128.03109375,132.1118192697428L146.32125,142.78370738994636L164.61140625,150.3708591870032L182.90156249999998,155.80076148798855L201.19171874999998,160.1329677231034L219.481875,163.4754092164824L237.77203125,166.0328080551845L256.0621875,168.2177582787521L274.35234375,170.1361909780926L292.6425,171.72828664462307L310.93265625,173.04258155425455L329.2228125,173.96789330836273L347.51296874999997,174.8488386368957L365.80312499999997,175.49700841505725L384.09328124999996,176.27909154614431L402.38343749999996,176.86452143726234L420.67359375,177.24217203391487L438.96375,177.60867854024283L457.25390625,177.90150761459233L475.5440625,178.15942940857565L493.83421875,178.165928728344L512.124375,178.2955002872267L530.41453125,178.37512634931235L548.7046875,178.41970339728422L566.9948437500001,178.36404387957225L585.285,178.39083269638957L603.5751562500001,178.33168347499827L621.8653125,178.2033355195987L640.1554687500001,178.22531292467013L658.445625,178.13288082473372L676.7357812500001,177.94520193716423L695.0259374999999,177.90400364266017L713.31609375,177.73877729689377L731.6062499999999,177.5774970597381L749.89640625,177.4753452879116L768.1865624999999,177.27279205478544L786.47671875,177.0521459358918L804.7668749999999,176.9173465629245L823.0570312499999,176.7774085829785L841.3471875,176.65513359364763L859.6373437499999,176.5182563835533L877.9275,176.37580907137982L896.2176562499999,176.18279846377504L914.5078125,176.04087236263993L932.7979687499999,175.88627663453326L951.088125,175.78698445928092L969.3782812499999,175.54309763931386L987.6684375,175.41350763739632" style="fill: none;" fill="none"></path></g><g><path stroke="rgb(204, 51, 17)" stroke-width="2px" d="M91.45078124999999,0.08512936309062491L109.7409375,98.55456189475382L128.03109375,129.5873576808131L146.32125,147.79224252697642L164.61140625,161.77412261861753L182.90156249999998,173.18665693276776L201.19171874999998,181.9884589758657L219.481875,190.46318628938306L237.77203125,197.068895479153L256.0621875,203.27446177032544L274.35234375,209.36799641708717L292.6425,214.51573256246758L310.93265625,219.69342904932293L329.2228125,223.66166321888957L347.51296874999997,228.3856686323906L365.80312499999997,232.3486796552092L384.09328124999996,235.7320893586307L402.38343749999996,239.21298307972452L420.67359375,242.50206848803364L438.96375,246.33323890451305L457.25390625,248.75241135405003L475.5440625,252.2523062368233L493.83421875,254.66431402348346L512.124375,257.5453245154824L530.41453125,259.5241441346892L548.7046875,262.3801372496755L566.9948437500001,264.868475735013L585.285,267.1179382140839L603.5751562500001,268.93638372622115L621.8653125,270.74896035259275L640.1554687500001,272.75459230465526L658.445625,275.14871444873415L676.7357812500001,276.52512113558765L695.0259374999999,277.8356233632212L713.31609375,279.8804131819685L731.6062499999999,281.4435108158192L749.89640625,283.65229203532743L768.1865624999999,284.4140600321821L786.47671875,285.4696384015896L804.7668749999999,287.5760020561905L823.0570312499999,289.27922419821374L841.3471875,290.7500991814671L859.6373437499999,291.91282704845054L877.9275,292.4631661449317L896.2176562499999,294.49803360735757L914.5078125,294.6455060648774L932.7979687499999,295.586227716131L951.088125,297.1098218834581L969.3782812499999,298.26474061344317L987.6684375,298.48064546424683" style="fill: none;" fill="none"></path></g><g><path stroke="rgb(0, 119, 187)" stroke-width="2px" d="M91.45078124999999,148.3300760765113L109.7409375,155.78388859640913L128.03109375,156.506416389793L146.32125,151.2087659026334L164.61140625,147.50027935629927L182.90156249999998,143.3536047094584L201.19171874999998,138.84655057371398L219.481875,133.5993480432456L237.77203125,128.13220174770925L256.0621875,123.79554148626288L274.35234375,119.83547263145343L292.6425,116.9904333335144L310.93265625,113.95765002743957L329.2228125,108.70906424491805L347.51296874999997,106.60315006831861L365.80312499999997,102.56492467784214L384.09328124999996,100.11565168631404L402.38343749999996,95.44587431586156L420.67359375,91.70818971776313L438.96375,89.86614194884072L457.25390625,88.64259244651073L475.5440625,86.8554865742136L493.83421875,81.69423438162859L512.124375,79.68292014096487L530.41453125,78.15471475062388L548.7046875,74.77446926768884L566.9948437500001,72.89383107171656L585.285,71.89907248950458L603.5751562500001,69.47406303524951L621.8653125,67.30592737100423L640.1554687500001,65.20054978969965L658.445625,62.568920190510745L676.7357812500001,61.86620880605504L695.0259374999999,60.07077070050902L713.31609375,57.04785869578292L731.6062499999999,55.80068203773053L749.89640625,54.00000000000006L768.1865624999999,53.49398706128369L786.47671875,49.350784054256195L804.7668749999999,48.2311053877054L823.0570312499999,48.15855491632349L841.3471875,45.48807377419437L859.6373437499999,43.936343519526716L877.9275,45.23674552062483L896.2176562499999,41.80435259727014L914.5078125,40.7352487088659L932.7979687499999,39.76931482511497L951.088125,38.287417083693136L969.3782812499999,36.45601709083454L987.6684375,36.07311440626496" style="fill: none;" fill="none"></path></g><g><path stroke="rgb(255, 112, 67)" stroke-width="2px" d="M91.45078124999999,97.27843727765465L109.7409375,171.37953786521527L128.03109375,200.76386666497433L146.32125,220.44297981346253L164.61140625,234.52684314745036L182.90156249999998,246.231008145293L201.19171874999998,256.6841099014876L219.481875,264.1176712469989L237.77203125,269.79847323732685L256.0621875,276.1731923088659L274.35234375,280.06351367786766L292.6425,285.24356156854174L310.93265625,289.631438872351L329.2228125,292.0352497910577L347.51296874999997,295.5307404138376L365.80312499999997,298.7812151039726L384.09328124999996,302.46279359004353L402.38343749999996,304.2581551263694L420.67359375,306.2085173121834L438.96375,307.75630365728193L457.25390625,309.4331433323082L475.5440625,310.3197713587136L493.83421875,312.12429507552173L512.124375,314.27115403960124L530.41453125,313.9320923132594L548.7046875,315.63384828624737L566.9948437500001,317.3909880189428L585.285,317.1869207983697L603.5751562500001,319.35918973141924L621.8653125,319.8571398329011L640.1554687500001,320.4648589813174L658.445625,321.5454460025935L676.7357812500001,320.46740069421264L695.0259374999999,324L713.31609375,322.7721206277574L731.6062499999999,325.5936545228251L749.89640625,325.18641694190865L768.1865624999999,324.25394247853427L786.47671875,325.4892590127326L804.7668749999999,326.15053516019356L823.0570312499999,326.96074497343255L841.3471875,327.3328592821517L859.6373437499999,329.52308767776645L877.9275,328.09441314696244L896.2176562499999,326.9380014188825L914.5078125,328.7316611980685L932.7979687499999,328.8240682985733L951.088125,328.56957211742366L969.3782812499999,330.76358760786513L987.6684375,331.47727068638795" style="fill: none;" fill="none"></path></g></g></g></g></g><g><g><span fill="rgb(0, 0, 0)" stroke="none" stroke-width="1px">Alt + Scroll to Zoom</span></g></g></g><g transform="translate(20, 378)" clip-path="url(#clip_1)"><clipPath id="clip_1"><rect width="1097" height="22"></rect></clipPath><g><g><line x1="0" y1="0" x2="0" y2="5" style="visibility: inherit;" fill="rgb(0, 0, 0)" stroke="rgb(204, 204, 204)" stroke-width="1px"></line><line x1="91.45078124999999" y1="0" x2="91.45078124999999" y2="5" style="visibility: inherit;" fill="rgb(0, 0, 0)" stroke="rgb(204, 204, 204)" stroke-width="1px"></line><line x1="182.90156249999998" y1="0" x2="182.90156249999998" y2="5" style="visibility: inherit;" fill="rgb(0, 0, 0)" stroke="rgb(204, 204, 204)" stroke-width="1px"></line><line x1="274.35234375" y1="0" x2="274.35234375" y2="5" style="visibility: inherit;" fill="rgb(0, 0, 0)" stroke="rgb(204, 204, 204)" stroke-width="1px"></line><line x1="365.80312499999997" y1="0" x2="365.80312499999997" y2="5" style="visibility: inherit;" fill="rgb(0, 0, 0)" stroke="rgb(204, 204, 204)" stroke-width="1px"></line><line x1="457.25390625" y1="0" x2="457.25390625" y2="5" style="visibility: inherit;" fill="rgb(0, 0, 0)" stroke="rgb(204, 204, 204)" stroke-width="1px"></line><line x1="548.7046875" y1="0" x2="548.7046875" y2="5" style="visibility: inherit;" fill="rgb(0, 0, 0)" stroke="rgb(204, 204, 204)" stroke-width="1px"></line><line x1="640.1554687500001" y1="0" x2="640.1554687500001" y2="5" style="visibility: inherit;" fill="rgb(0, 0, 0)" stroke="rgb(204, 204, 204)" stroke-width="1px"></line><line x1="731.6062499999999" y1="0" x2="731.6062499999999" y2="5" style="visibility: inherit;" fill="rgb(0, 0, 0)" stroke="rgb(204, 204, 204)" stroke-width="1px"></line><line x1="823.0570312499999" y1="0" x2="823.0570312499999" y2="5" style="visibility: inherit;" fill="rgb(0, 0, 0)" stroke="rgb(204, 204, 204)" stroke-width="1px"></line><line x1="914.5078125" y1="0" x2="914.5078125" y2="5" style="visibility: inherit;" fill="rgb(0, 0, 0)" stroke="rgb(204, 204, 204)" stroke-width="1px"></line><line x1="1005.9585937499999" y1="0" x2="1005.9585937499999" y2="5" style="visibility: inherit;" fill="rgb(0, 0, 0)" stroke="rgb(204, 204, 204)" stroke-width="1px"></line><line x1="1097.409375" y1="0" x2="1097.409375" y2="5" style="visibility: inherit;" fill="rgb(0, 0, 0)" stroke="rgb(204, 204, 204)" stroke-width="1px"></line></g><g transform="translate(0, 8)"><text x="0" y="0" dx="0em" dy="0.95em" style="text-anchor: middle; visibility: hidden; font-family: Roboto, sans-serif; font-size: 12px; font-weight: 200;" fill="rgb(50, 49, 63)" stroke="none" stroke-width="1px">-5</text><text x="91.45078124999999" y="0" dx="0em" dy="0.95em" style="text-anchor: middle; visibility: inherit; font-family: Roboto, sans-serif; font-size: 12px; font-weight: 200;" fill="rgb(50, 49, 63)" stroke="none" stroke-width="1px">0</text><text x="182.90156249999998" y="0" dx="0em" dy="0.95em" style="text-anchor: middle; visibility: inherit; font-family: Roboto, sans-serif; font-size: 12px; font-weight: 200;" fill="rgb(50, 49, 63)" stroke="none" stroke-width="1px">5</text><text x="274.35234375" y="0" dx="0em" dy="0.95em" style="text-anchor: middle; visibility: inherit; font-family: Roboto, sans-serif; font-size: 12px; font-weight: 200;" fill="rgb(50, 49, 63)" stroke="none" stroke-width="1px">10</text><text x="365.80312499999997" y="0" dx="0em" dy="0.95em" style="text-anchor: middle; visibility: inherit; font-family: Roboto, sans-serif; font-size: 12px; font-weight: 200;" fill="rgb(50, 49, 63)" stroke="none" stroke-width="1px">15</text><text x="457.25390625" y="0" dx="0em" dy="0.95em" style="text-anchor: middle; visibility: inherit; font-family: Roboto, sans-serif; font-size: 12px; font-weight: 200;" fill="rgb(50, 49, 63)" stroke="none" stroke-width="1px">20</text><text x="548.7046875" y="0" dx="0em" dy="0.95em" style="text-anchor: middle; visibility: inherit; font-family: Roboto, sans-serif; font-size: 12px; font-weight: 200;" fill="rgb(50, 49, 63)" stroke="none" stroke-width="1px">25</text><text x="640.1554687500001" y="0" dx="0em" dy="0.95em" style="text-anchor: middle; visibility: inherit; font-family: Roboto, sans-serif; font-size: 12px; font-weight: 200;" fill="rgb(50, 49, 63)" stroke="none" stroke-width="1px">30</text><text x="731.6062499999999" y="0" dx="0em" dy="0.95em" style="text-anchor: middle; visibility: inherit; font-family: Roboto, sans-serif; font-size: 12px; font-weight: 200;" fill="rgb(50, 49, 63)" stroke="none" stroke-width="1px">35</text><text x="823.0570312499999" y="0" dx="0em" dy="0.95em" style="text-anchor: middle; visibility: inherit; font-family: Roboto, sans-serif; font-size: 12px; font-weight: 200;" fill="rgb(50, 49, 63)" stroke="none" stroke-width="1px">40</text><text x="914.5078125" y="0" dx="0em" dy="0.95em" style="text-anchor: middle; visibility: inherit; font-family: Roboto, sans-serif; font-size: 12px; font-weight: 200;" fill="rgb(50, 49, 63)" stroke="none" stroke-width="1px">45</text><text x="1005.9585937499999" y="0" dx="0em" dy="0.95em" style="text-anchor: middle; visibility: inherit; font-family: Roboto, sans-serif; font-size: 12px; font-weight: 200;" fill="rgb(50, 49, 63)" stroke="none" stroke-width="1px">50</text><text x="1097.409375" y="0" dx="0em" dy="0.95em" style="text-anchor: middle; visibility: hidden; font-family: Roboto, sans-serif; font-size: 12px; font-weight: 200;" fill="rgb(50, 49, 63)" stroke="none" stroke-width="1px">55</text></g><line x1="0" y1="0" x2="1097.409375" y2="0" fill="rgb(0, 0, 0)" stroke="rgb(204, 204, 204)" stroke-width="1px"></line></g></g></g></g></svg>