<svg viewBox="0 0 1499 400" xmlns="http://www.w3.org/2000/svg"><g><g><g><g><g><line x1="41.171875" y1="366.47566597448326" x2="36.171875" y2="366.47566597448326" style="visibility: inherit;" fill="rgb(0, 0, 0)" stroke="rgb(204, 204, 204)" stroke-width="1px"></line><line x1="41.171875" y1="335.09886696309235" x2="36.171875" y2="335.09886696309235" style="visibility: inherit;" fill="rgb(0, 0, 0)" stroke="rgb(204, 204, 204)" stroke-width="1px"></line><line x1="41.171875" y1="128.67675870031647" x2="36.171875" y2="128.67675870031647" style="visibility: inherit;" fill="rgb(0, 0, 0)" stroke="rgb(204, 204, 204)" stroke-width="1px"></line><line x1="41.171875" y1="7.927566046789858" x2="36.171875" y2="7.927566046789858" style="visibility: inherit;" fill="rgb(0, 0, 0)" stroke="rgb(204, 204, 204)" stroke-width="1px"></line></g><g transform="translate(31.171875, 0)"><text x="0" y="366.47566597448326" dx="0em" dy="0.3em" style="text-anchor: end; visibility: inherit; font-family: Roboto, sans-serif; font-size: 12px; font-weight: 200;" fill="rgb(50, 49, 63)" stroke="none" stroke-width="1px">0.9</text><text x="0" y="335.09886696309235" dx="0em" dy="0.3em" style="text-anchor: end; visibility: inherit; font-family: Roboto, sans-serif; font-size: 12px; font-weight: 200;" fill="rgb(50, 49, 63)" stroke="none" stroke-width="1px">1</text><text x="0" y="128.67675870031647" dx="0em" dy="0.3em" style="text-anchor: end; visibility: inherit; font-family: Roboto, sans-serif; font-size: 12px; font-weight: 200;" fill="rgb(50, 49, 63)" stroke="none" stroke-width="1px">2</text><text x="0" y="7.927566046789858" dx="0em" dy="0.3em" style="text-anchor: end; visibility: inherit; font-family: Roboto, sans-serif; font-size: 12px; font-weight: 200;" fill="rgb(50, 49, 63)" stroke="none" stroke-width="1px">3</text></g><line x1="41.171875" y1="0" x2="41.171875" y2="378" fill="rgb(0, 0, 0)" stroke="rgb(204, 204, 204)" stroke-width="1px"></line></g></g><g transform="translate(41, 0)" clip-path="url(#clip_0)"><clipPath id="clip_0"><rect width="1457" height="378"></rect></clipPath><g><g><g><line x1="0" y1="0" x2="0" y2="378" fill="rgb(0, 0, 0)" stroke="rgb(60, 60, 60)" stroke-width="1px" opacity="0.25"></line><line x1="121.48567708333333" y1="0" x2="121.48567708333333" y2="378" fill="rgb(0, 0, 0)" stroke="rgb(60, 60, 60)" stroke-width="1px" opacity="0.25"></line><line x1="242.97135416666666" y1="0" x2="242.97135416666666" y2="378" fill="rgb(0, 0, 0)" stroke="rgb(60, 60, 60)" stroke-width="1px" opacity="0.25"></line><line x1="364.45703125" y1="0" x2="364.45703125" y2="378" fill="rgb(0, 0, 0)" stroke="rgb(60, 60, 60)" stroke-width="1px" opacity="0.25"></line><line x1="485.9427083333333" y1="0" x2="485.9427083333333" y2="378" fill="rgb(0, 0, 0)" stroke="rgb(60, 60, 60)" stroke-width="1px" opacity="0.25"></line><line x1="607.4283854166667" y1="0" x2="607.4283854166667" y2="378" fill="rgb(0, 0, 0)" stroke="rgb(60, 60, 60)" stroke-width="1px" opacity="0.25"></line><line x1="728.9140625" y1="0" x2="728.9140625" y2="378" fill="rgb(0, 0, 0)" stroke="rgb(60, 60, 60)" stroke-width="1px" opacity="0.25"></line><line x1="850.3997395833334" y1="0" x2="850.3997395833334" y2="378" fill="rgb(0, 0, 0)" stroke="rgb(60, 60, 60)" stroke-width="1px" opacity="0.25"></line><line x1="971.8854166666666" y1="0" x2="971.8854166666666" y2="378" fill="rgb(0, 0, 0)" stroke="rgb(60, 60, 60)" stroke-width="1px" opacity="0.25"></line><line x1="1093.37109375" y1="0" x2="1093.37109375" y2="378" fill="rgb(0, 0, 0)" stroke="rgb(60, 60, 60)" stroke-width="1px" opacity="0.25"></line><line x1="1214.8567708333335" y1="0" x2="1214.8567708333335" y2="378" fill="rgb(0, 0, 0)" stroke="rgb(60, 60, 60)" stroke-width="1px" opacity="0.25"></line><line x1="1336.3424479166665" y1="0" x2="1336.3424479166665" y2="378" fill="rgb(0, 0, 0)" stroke="rgb(60, 60, 60)" stroke-width="1px" opacity="0.25"></line><line x1="1457.828125" y1="0" x2="1457.828125" y2="378" fill="rgb(0, 0, 0)" stroke="rgb(60, 60, 60)" stroke-width="1px" opacity="0.25"></line></g><g><line x1="0" y1="366.47566597448326" x2="1457.828125" y2="366.47566597448326" fill="rgb(0, 0, 0)" stroke="rgb(60, 60, 60)" stroke-width="1px" opacity="0.25"></line><line x1="0" y1="335.09886696309235" x2="1457.828125" y2="335.09886696309235" fill="rgb(0, 0, 0)" stroke="rgb(60, 60, 60)" stroke-width="1px" opacity="0.25"></line><line x1="0" y1="128.67675870031647" x2="1457.828125" y2="128.67675870031647" fill="rgb(0, 0, 0)" stroke="rgb(60, 60, 60)" stroke-width="1px" opacity="0.25"></line><line x1="0" y1="7.927566046789858" x2="1457.828125" y2="7.927566046789858" fill="rgb(0, 0, 0)" stroke="rgb(60, 60, 60)" stroke-width="1px" opacity="0.25"></line></g></g></g><g><g><line x1="121.48567708333333" y1="0" x2="121.48567708333333" y2="378" fill="rgb(0, 0, 0)" stroke="rgb(153, 153, 153)" stroke-width="1.5px"></line></g></g><g><g><g><g><g><path stroke="rgb(0, 153, 136)" stroke-width="2px" d="M121.48567708333333,141.7521939715489L145.7828125,149.86097722440877L170.07994791666667,150.41359604499996L194.37708333333333,151.6379910321277L218.67421875,152.34651787138404L242.97135416666666,153.73431597682585L267.2684895833333,156.20056550178023L291.565625,157.82888154739234L315.8627604166667,159.32937790446508L340.15989583333334,160.3761881889891L364.45703125,138.8221896000998L388.75416666666666,132.07181203519937L413.0513020833333,129.0150625107522L437.3484375,125.72876695642584L461.64557291666665,124.0412317986507L485.9427083333333,121.45643963884315L510.23984375,118.51733541307402" style="fill: none;" fill="none"></path></g><g><path stroke="rgb(238, 51, 119)" stroke-width="2px" d="M121.48567708333333,95.18722644968389L145.7828125,165.02531716132253L170.07994791666667,194.12352531849012L194.37708333333333,217.5411686118625L218.67421875,235.43360759536992L242.97135416666666,252.26073792964667L267.2684895833333,268.3803615896896L291.565625,280.2564945174158L315.8627604166667,290.4401619679055L340.15989583333334,297.08739353285046L364.45703125,239.57489752943047L388.75416666666666,246.7721897015629L413.0513020833333,254.18050307749021L437.3484375,260.97314646493794L461.64557291666665,268.0013357574452L485.9427083333333,274.9262189681229L510.23984375,282.60089866340206" style="fill: none;" fill="none"></path></g><g><path stroke="rgb(51, 187, 238)" stroke-width="2px" d="M121.48567708333333,141.98700170919568L145.7828125,148.0030635448483L170.07994791666667,148.41483366965605L194.37708333333333,143.91333146001986L218.67421875,140.60459102171544L242.97135416666666,137.62477260555957L267.2684895833333,134.5628920761785L291.565625,129.278629538544L315.8627604166667,124.58286177706714L340.15989583333334,120.96356118147864L364.45703125,117.72773543687133L388.75416666666666,114.35997494787931L413.0513020833333,111.15871673097982L437.3484375,108.13133234702036L461.64557291666665,104.50936042151578L485.9427083333333,102.60794422603338L510.23984375,98.60396550985386L534.5369791666666,97.74551468699102L558.8341145833334,95.00866796093892L583.13125,93.97848387720735L607.4283854166667,91.47041960216214L631.7255208333333,88.80913754272814L656.0226562500001,86.74227782520576L680.3197916666667,84.37184153730621L704.6169270833334,83.13878516215588L728.9140625,81.1468776665346L753.2111979166667,79.27113045654855L777.5083333333333,78.78309837199112L801.80546875,77.08425719879338L826.1026041666667,75.55260318214343L850.3997395833334,74.56129649837384L874.696875,73.84232992213093L898.9940104166667,72.95162769668957L923.2911458333333,71.81619316430346L947.58828125,72.15670982722868L971.8854166666666,70.06827674527479L996.1825520833333,69.64591847873098L1020.4796875,68.6645868161273L1044.7768229166668,66.67357343375518L1069.0739583333332,66.91369529057069L1093.37109375,66.75554379303146L1117.6682291666668,65.6855935172936L1141.9653645833332,65.00130183410796L1166.2625,64.58099707088662L1190.5596354166667,63.87444595156379L1214.8567708333335,63.984388615236405L1239.1539062499999,63.61983992335067L1263.4510416666667,63.550195895706764L1287.7481770833333,62.81207523785275L1312.0453125000001,61.92690003328631" style="fill: none;" fill="none"></path></g><g><path stroke="rgb(204, 51, 17)" stroke-width="2px" d="M121.48567708333333,95.11661486097857L145.7828125,164.2152625621717L170.07994791666667,190.88606626522954L194.37708333333333,208.67128584568385L218.67421875,222.99522598425614L242.97135416666666,233.51127894843518L267.2684895833333,243.11484834377177L291.565625,248.49355812322764L315.8627604166667,256.0461805462869L340.15989583333334,261.44516099199996L364.45703125,265.8355398514915L388.75416666666666,270.40332571053676L413.0513020833333,273.74609660352655L437.3484375,278.0956426070009L461.64557291666665,281.4081429356947L485.9427083333333,284.21965455565527L510.23984375,287.57282948766203L534.5369791666666,289.1537042937393L558.8341145833334,291.6249277582176L583.13125,293.34475075113846L607.4283854166667,295.5441741288411L631.7255208333333,297.94068836548735L656.0226562500001,301.0096692028647L680.3197916666667,301.39539439216094L704.6169270833334,304.1099987622343L728.9140625,305.25991735418825L753.2111979166667,306.54573699090355L777.5083333333333,308.29325361537406L801.80546875,310.9984496580312L826.1026041666667,311.5753515242219L850.3997395833334,314.22794063227195L874.696875,315.73084308126585L898.9940104166667,317.06094214878476L923.2911458333333,318.9522850556895L947.58828125,321.865646029379L971.8854166666666,320.9103104998436L996.1825520833333,323.6573876546225L1020.4796875,324L1044.7768229166668,327.9435942612039L1069.0739583333332,327.80142555796607L1093.37109375,328.033060543601L1117.6682291666668,330.98851281949044L1141.9653645833332,331.4746290429524L1166.2625,334.0886965703671L1190.5596354166667,335.9835160343284L1214.8567708333335,336.01814550170303L1239.1539062499999,337.47530094027627L1263.4510416666667,339.6483187826881L1287.7481770833333,341.1551620368434L1312.0453125000001,341.9192437697019" style="fill: none;" fill="none"></path></g><g><path stroke="rgb(0, 119, 187)" stroke-width="2px" d="M121.48567708333333,142.54992061375683L145.7828125,148.97512921534468L170.07994791666667,148.92188876365182L194.37708333333333,145.86303423603613L218.67421875,141.74944899418728L242.97135416666666,137.66269422667315L267.2684895833333,132.45570106069343L291.565625,127.76814852976416L315.8627604166667,124.8388010322185L340.15989583333334,119.95993712168809L364.45703125,116.99831691862215L388.75416666666666,113.48511163767927L413.0513020833333,110.28615164456228L437.3484375,107.38548421059848L461.64557291666665,103.32508377582396L485.9427083333333,100.96095909754963L510.23984375,96.84288706790696L534.5369791666666,93.74643450267486L558.8341145833334,91.77289137142753L583.13125,89.04168970429984L607.4283854166667,86.82786570070472L631.7255208333333,84.88098620995805L656.0226562500001,82.3799326249113L680.3197916666667,80.34088781668919L704.6169270833334,77.4262816843834L728.9140625,75.87660760696761L753.2111979166667,73.424556179038L777.5083333333333,71.58422043589083L801.80546875,69.1527554318666L826.1026041666667,67.22912406386557L850.3997395833334,65.6087429343652L874.696875,64.18078109635121L898.9940104166667,62.23296985665233L923.2911458333333,58.84108783651685L947.58828125,57.235398384480796L971.8854166666666,56.95713156753779L996.1825520833333,54.26052862230507L1020.4796875,54.00000000000002L1044.7768229166668,51.91913450038193L1069.0739583333332,51.683644092356715L1093.37109375,49.07345312681622L1117.6682291666668,47.95481945305133L1141.9653645833332,46.09612102988838L1166.2625,45.0029618306774L1190.5596354166667,45.28250938246477L1214.8567708333335,42.98434479340198L1239.1539062499999,42.491622476855724L1263.4510416666667,41.85271356088032L1287.7481770833333,38.73885301231578L1312.0453125000001,38.881304187293544" style="fill: none;" fill="none"></path></g><g><path stroke="rgb(255, 112, 67)" stroke-width="2px" d="M121.48567708333333,95.5012796276297L145.7828125,164.15956681451664L170.07994791666667,190.62550550230748L194.37708333333333,209.2152079981006L218.67421875,222.8575252783289L242.97135416666666,233.3543512831528L267.2684895833333,242.13525649044723L291.565625,248.82318641387573L315.8627604166667,255.31623981987084L340.15989583333334,259.4839562564953L364.45703125,263.8808273303741L388.75416666666666,269.5708206420906L413.0513020833333,272.8130959066706L437.3484375,275.62594296246994L461.64557291666665,278.2890475553881L485.9427083333333,280.25714417743296L510.23984375,283.54476016424394L534.5369791666666,286.4884943684712L558.8341145833334,286.45336651913743L583.13125,288.39613009791293L607.4283854166667,289.8229957348627L631.7255208333333,293.1772149914673L656.0226562500001,292.7014661000318L680.3197916666667,295.1992320721914L704.6169270833334,296.3147218806983L728.9140625,296.8768634119468L753.2111979166667,299.0913331040434L777.5083333333333,298.7231568740776L801.80546875,301.5348853275534L826.1026041666667,301.15493469617064L850.3997395833334,302.58107039732135L874.696875,301.8139363759685L898.9940104166667,303.2362530893709L923.2911458333333,303.1917256385213L947.58828125,302.5957756371933L971.8854166666666,304.8155982597001L996.1825520833333,304.8749949667888L1020.4796875,305.9169067955811L1044.7768229166668,306.13673039767986L1069.0739583333332,306.57383268842096L1093.37109375,306.770318586437L1117.6682291666668,307.6978320696524L1141.9653645833332,309.0270276317728L1166.2625,308.505228231975L1190.5596354166667,309.20225979188206L1214.8567708333335,310.8567139712638L1239.1539062499999,310.8310254622862L1263.4510416666667,309.37098480673814L1287.7481770833333,310.9815884144358L1312.0453125000001,309.5459633856573" style="fill: none;" fill="none"></path></g></g></g></g></g></g><g transform="translate(41, 378)" clip-path="url(#clip_1)"><clipPath id="clip_1"><rect width="1457" height="22"></rect></clipPath><g><g><line x1="0" y1="0" x2="0" y2="5" style="visibility: inherit;" fill="rgb(0, 0, 0)" stroke="rgb(204, 204, 204)" stroke-width="1px"></line><line x1="121.48567708333333" y1="0" x2="121.48567708333333" y2="5" style="visibility: inherit;" fill="rgb(0, 0, 0)" stroke="rgb(204, 204, 204)" stroke-width="1px"></line><line x1="242.97135416666666" y1="0" x2="242.97135416666666" y2="5" style="visibility: inherit;" fill="rgb(0, 0, 0)" stroke="rgb(204, 204, 204)" stroke-width="1px"></line><line x1="364.45703125" y1="0" x2="364.45703125" y2="5" style="visibility: inherit;" fill="rgb(0, 0, 0)" stroke="rgb(204, 204, 204)" stroke-width="1px"></line><line x1="485.9427083333333" y1="0" x2="485.9427083333333" y2="5" style="visibility: inherit;" fill="rgb(0, 0, 0)" stroke="rgb(204, 204, 204)" stroke-width="1px"></line><line x1="607.4283854166667" y1="0" x2="607.4283854166667" y2="5" style="visibility: inherit;" fill="rgb(0, 0, 0)" stroke="rgb(204, 204, 204)" stroke-width="1px"></line><line x1="728.9140625" y1="0" x2="728.9140625" y2="5" style="visibility: inherit;" fill="rgb(0, 0, 0)" stroke="rgb(204, 204, 204)" stroke-width="1px"></line><line x1="850.3997395833334" y1="0" x2="850.3997395833334" y2="5" style="visibility: inherit;" fill="rgb(0, 0, 0)" stroke="rgb(204, 204, 204)" stroke-width="1px"></line><line x1="971.8854166666666" y1="0" x2="971.8854166666666" y2="5" style="visibility: inherit;" fill="rgb(0, 0, 0)" stroke="rgb(204, 204, 204)" stroke-width="1px"></line><line x1="1093.37109375" y1="0" x2="1093.37109375" y2="5" style="visibility: inherit;" fill="rgb(0, 0, 0)" stroke="rgb(204, 204, 204)" stroke-width="1px"></line><line x1="1214.8567708333335" y1="0" x2="1214.8567708333335" y2="5" style="visibility: inherit;" fill="rgb(0, 0, 0)" stroke="rgb(204, 204, 204)" stroke-width="1px"></line><line x1="1336.3424479166665" y1="0" x2="1336.3424479166665" y2="5" style="visibility: inherit;" fill="rgb(0, 0, 0)" stroke="rgb(204, 204, 204)" stroke-width="1px"></line><line x1="1457.828125" y1="0" x2="1457.828125" y2="5" style="visibility: inherit;" fill="rgb(0, 0, 0)" stroke="rgb(204, 204, 204)" stroke-width="1px"></line></g><g transform="translate(0, 8)"><text x="0" y="0" dx="0em" dy="0.95em" style="text-anchor: middle; visibility: hidden; font-family: Roboto, sans-serif; font-size: 12px; font-weight: 200;" fill="rgb(50, 49, 63)" stroke="none" stroke-width="1px">-5</text><text x="121.48567708333333" y="0" dx="0em" dy="0.95em" style="text-anchor: middle; visibility: inherit; font-family: Roboto, sans-serif; font-size: 12px; font-weight: 200;" fill="rgb(50, 49, 63)" stroke="none" stroke-width="1px">0</text><text x="242.97135416666666" y="0" dx="0em" dy="0.95em" style="text-anchor: middle; visibility: inherit; font-family: Roboto, sans-serif; font-size: 12px; font-weight: 200;" fill="rgb(50, 49, 63)" stroke="none" stroke-width="1px">5</text><text x="364.45703125" y="0" dx="0em" dy="0.95em" style="text-anchor: middle; visibility: inherit; font-family: Roboto, sans-serif; font-size: 12px; font-weight: 200;" fill="rgb(50, 49, 63)" stroke="none" stroke-width="1px">10</text><text x="485.9427083333333" y="0" dx="0em" dy="0.95em" style="text-anchor: middle; visibility: inherit; font-family: Roboto, sans-serif; font-size: 12px; font-weight: 200;" fill="rgb(50, 49, 63)" stroke="none" stroke-width="1px">15</text><text x="607.4283854166667" y="0" dx="0em" dy="0.95em" style="text-anchor: middle; visibility: inherit; font-family: Roboto, sans-serif; font-size: 12px; font-weight: 200;" fill="rgb(50, 49, 63)" stroke="none" stroke-width="1px">20</text><text x="728.9140625" y="0" dx="0em" dy="0.95em" style="text-anchor: middle; visibility: inherit; font-family: Roboto, sans-serif; font-size: 12px; font-weight: 200;" fill="rgb(50, 49, 63)" stroke="none" stroke-width="1px">25</text><text x="850.3997395833334" y="0" dx="0em" dy="0.95em" style="text-anchor: middle; visibility: inherit; font-family: Roboto, sans-serif; font-size: 12px; font-weight: 200;" fill="rgb(50, 49, 63)" stroke="none" stroke-width="1px">30</text><text x="971.8854166666666" y="0" dx="0em" dy="0.95em" style="text-anchor: middle; visibility: inherit; font-family: Roboto, sans-serif; font-size: 12px; font-weight: 200;" fill="rgb(50, 49, 63)" stroke="none" stroke-width="1px">35</text><text x="1093.37109375" y="0" dx="0em" dy="0.95em" style="text-anchor: middle; visibility: inherit; font-family: Roboto, sans-serif; font-size: 12px; font-weight: 200;" fill="rgb(50, 49, 63)" stroke="none" stroke-width="1px">40</text><text x="1214.8567708333335" y="0" dx="0em" dy="0.95em" style="text-anchor: middle; visibility: inherit; font-family: Roboto, sans-serif; font-size: 12px; font-weight: 200;" fill="rgb(50, 49, 63)" stroke="none" stroke-width="1px">45</text><text x="1336.3424479166665" y="0" dx="0em" dy="0.95em" style="text-anchor: middle; visibility: inherit; font-family: Roboto, sans-serif; font-size: 12px; font-weight: 200;" fill="rgb(50, 49, 63)" stroke="none" stroke-width="1px">50</text><text x="1457.828125" y="0" dx="0em" dy="0.95em" style="text-anchor: middle; visibility: hidden; font-family: Roboto, sans-serif; font-size: 12px; font-weight: 200;" fill="rgb(50, 49, 63)" stroke="none" stroke-width="1px">55</text></g><line x1="0" y1="0" x2="1457.828125" y2="0" fill="rgb(0, 0, 0)" stroke="rgb(204, 204, 204)" stroke-width="1px"></line></g></g></g></g></svg>