<svg viewBox="0 0 1117.800048828125 400" xmlns="http://www.w3.org/2000/svg"><g><g><g><g><g><line x1="30.78125" y1="378" x2="25.78125" y2="378" style="visibility: inherit;" fill="rgb(0, 0, 0)" stroke="rgb(204, 204, 204)" stroke-width="1px"></line><line x1="30.78125" y1="343.6363636363636" x2="25.78125" y2="343.6363636363636" style="visibility: inherit;" fill="rgb(0, 0, 0)" stroke="rgb(204, 204, 204)" stroke-width="1px"></line><line x1="30.78125" y1="309.27272727272725" x2="25.78125" y2="309.27272727272725" style="visibility: inherit;" fill="rgb(0, 0, 0)" stroke="rgb(204, 204, 204)" stroke-width="1px"></line><line x1="30.78125" y1="274.90909090909093" x2="25.78125" y2="274.90909090909093" style="visibility: inherit;" fill="rgb(0, 0, 0)" stroke="rgb(204, 204, 204)" stroke-width="1px"></line><line x1="30.78125" y1="240.54545454545453" x2="25.78125" y2="240.54545454545453" style="visibility: inherit;" fill="rgb(0, 0, 0)" stroke="rgb(204, 204, 204)" stroke-width="1px"></line><line x1="30.78125" y1="206.18181818181816" x2="25.78125" y2="206.18181818181816" style="visibility: inherit;" fill="rgb(0, 0, 0)" stroke="rgb(204, 204, 204)" stroke-width="1px"></line><line x1="30.78125" y1="171.81818181818184" x2="25.78125" y2="171.81818181818184" style="visibility: inherit;" fill="rgb(0, 0, 0)" stroke="rgb(204, 204, 204)" stroke-width="1px"></line><line x1="30.78125" y1="137.45454545454547" x2="25.78125" y2="137.45454545454547" style="visibility: inherit;" fill="rgb(0, 0, 0)" stroke="rgb(204, 204, 204)" stroke-width="1px"></line><line x1="30.78125" y1="103.09090909090908" x2="25.78125" y2="103.09090909090908" style="visibility: inherit;" fill="rgb(0, 0, 0)" stroke="rgb(204, 204, 204)" stroke-width="1px"></line><line x1="30.78125" y1="68.7272727272727" x2="25.78125" y2="68.7272727272727" style="visibility: inherit;" fill="rgb(0, 0, 0)" stroke="rgb(204, 204, 204)" stroke-width="1px"></line><line x1="30.78125" y1="34.363636363636374" x2="25.78125" y2="34.363636363636374" style="visibility: inherit;" fill="rgb(0, 0, 0)" stroke="rgb(204, 204, 204)" stroke-width="1px"></line><line x1="30.78125" y1="0" x2="25.78125" y2="0" style="visibility: inherit;" fill="rgb(0, 0, 0)" stroke="rgb(204, 204, 204)" stroke-width="1px"></line></g><g transform="translate(20.78125, 0)"><text x="0" y="378" dx="0em" dy="0.3em" style="text-anchor: end; visibility: hidden; font-family: Roboto, sans-serif; font-size: 12px; font-weight: 200;" fill="rgb(50, 49, 63)" stroke="none" stroke-width="1px">-1</text><text x="0" y="343.6363636363636" dx="0em" dy="0.3em" style="text-anchor: end; visibility: inherit; font-family: Roboto, sans-serif; font-size: 12px; font-weight: 200;" fill="rgb(50, 49, 63)" stroke="none" stroke-width="1px">0</text><text x="0" y="309.27272727272725" dx="0em" dy="0.3em" style="text-anchor: end; visibility: inherit; font-family: Roboto, sans-serif; font-size: 12px; font-weight: 200;" fill="rgb(50, 49, 63)" stroke="none" stroke-width="1px">1</text><text x="0" y="274.90909090909093" dx="0em" dy="0.3em" style="text-anchor: end; visibility: inherit; font-family: Roboto, sans-serif; font-size: 12px; font-weight: 200;" fill="rgb(50, 49, 63)" stroke="none" stroke-width="1px">2</text><text x="0" y="240.54545454545453" dx="0em" dy="0.3em" style="text-anchor: end; visibility: inherit; font-family: Roboto, sans-serif; font-size: 12px; font-weight: 200;" fill="rgb(50, 49, 63)" stroke="none" stroke-width="1px">3</text><text x="0" y="206.18181818181816" dx="0em" dy="0.3em" style="text-anchor: end; visibility: inherit; font-family: Roboto, sans-serif; font-size: 12px; font-weight: 200;" fill="rgb(50, 49, 63)" stroke="none" stroke-width="1px">4</text><text x="0" y="171.81818181818184" dx="0em" dy="0.3em" style="text-anchor: end; visibility: inherit; font-family: Roboto, sans-serif; font-size: 12px; font-weight: 200;" fill="rgb(50, 49, 63)" stroke="none" stroke-width="1px">5</text><text x="0" y="137.45454545454547" dx="0em" dy="0.3em" style="text-anchor: end; visibility: inherit; font-family: Roboto, sans-serif; font-size: 12px; font-weight: 200;" fill="rgb(50, 49, 63)" stroke="none" stroke-width="1px">6</text><text x="0" y="103.09090909090908" dx="0em" dy="0.3em" style="text-anchor: end; visibility: inherit; font-family: Roboto, sans-serif; font-size: 12px; font-weight: 200;" fill="rgb(50, 49, 63)" stroke="none" stroke-width="1px">7</text><text x="0" y="68.7272727272727" dx="0em" dy="0.3em" style="text-anchor: end; visibility: inherit; font-family: Roboto, sans-serif; font-size: 12px; font-weight: 200;" fill="rgb(50, 49, 63)" stroke="none" stroke-width="1px">8</text><text x="0" y="34.363636363636374" dx="0em" dy="0.3em" style="text-anchor: end; visibility: inherit; font-family: Roboto, sans-serif; font-size: 12px; font-weight: 200;" fill="rgb(50, 49, 63)" stroke="none" stroke-width="1px">9</text><text x="0" y="0" dx="0em" dy="0.3em" style="text-anchor: end; visibility: hidden; font-family: Roboto, sans-serif; font-size: 12px; font-weight: 200;" fill="rgb(50, 49, 63)" stroke="none" stroke-width="1px">10</text></g><line x1="30.78125" y1="0" x2="30.78125" y2="378" fill="rgb(0, 0, 0)" stroke="rgb(204, 204, 204)" stroke-width="1px"></line></g></g><g transform="translate(30, 0)" clip-path="url(#clip_0)"><clipPath id="clip_0"><rect width="1087" height="378"></rect></clipPath><g><g><g><line x1="0" y1="0" x2="0" y2="378" fill="rgb(0, 0, 0)" stroke="rgb(60, 60, 60)" stroke-width="1px" opacity="0.25"></line><line x1="90.58489583333332" y1="0" x2="90.58489583333332" y2="378" fill="rgb(0, 0, 0)" stroke="rgb(60, 60, 60)" stroke-width="1px" opacity="0.25"></line><line x1="181.16979166666664" y1="0" x2="181.16979166666664" y2="378" fill="rgb(0, 0, 0)" stroke="rgb(60, 60, 60)" stroke-width="1px" opacity="0.25"></line><line x1="271.7546875" y1="0" x2="271.7546875" y2="378" fill="rgb(0, 0, 0)" stroke="rgb(60, 60, 60)" stroke-width="1px" opacity="0.25"></line><line x1="362.3395833333333" y1="0" x2="362.3395833333333" y2="378" fill="rgb(0, 0, 0)" stroke="rgb(60, 60, 60)" stroke-width="1px" opacity="0.25"></line><line x1="452.9244791666667" y1="0" x2="452.9244791666667" y2="378" fill="rgb(0, 0, 0)" stroke="rgb(60, 60, 60)" stroke-width="1px" opacity="0.25"></line><line x1="543.509375" y1="0" x2="543.509375" y2="378" fill="rgb(0, 0, 0)" stroke="rgb(60, 60, 60)" stroke-width="1px" opacity="0.25"></line><line x1="634.0942708333333" y1="0" x2="634.0942708333333" y2="378" fill="rgb(0, 0, 0)" stroke="rgb(60, 60, 60)" stroke-width="1px" opacity="0.25"></line><line x1="724.6791666666666" y1="0" x2="724.6791666666666" y2="378" fill="rgb(0, 0, 0)" stroke="rgb(60, 60, 60)" stroke-width="1px" opacity="0.25"></line><line x1="815.2640624999999" y1="0" x2="815.2640624999999" y2="378" fill="rgb(0, 0, 0)" stroke="rgb(60, 60, 60)" stroke-width="1px" opacity="0.25"></line><line x1="905.8489583333334" y1="0" x2="905.8489583333334" y2="378" fill="rgb(0, 0, 0)" stroke="rgb(60, 60, 60)" stroke-width="1px" opacity="0.25"></line><line x1="996.4338541666666" y1="0" x2="996.4338541666666" y2="378" fill="rgb(0, 0, 0)" stroke="rgb(60, 60, 60)" stroke-width="1px" opacity="0.25"></line><line x1="1087.01875" y1="0" x2="1087.01875" y2="378" fill="rgb(0, 0, 0)" stroke="rgb(60, 60, 60)" stroke-width="1px" opacity="0.25"></line></g><g><line x1="0" y1="378" x2="1087.01875" y2="378" fill="rgb(0, 0, 0)" stroke="rgb(60, 60, 60)" stroke-width="1px" opacity="0.25"></line><line x1="0" y1="343.6363636363636" x2="1087.01875" y2="343.6363636363636" fill="rgb(0, 0, 0)" stroke="rgb(60, 60, 60)" stroke-width="1px" opacity="0.25"></line><line x1="0" y1="309.27272727272725" x2="1087.01875" y2="309.27272727272725" fill="rgb(0, 0, 0)" stroke="rgb(60, 60, 60)" stroke-width="1px" opacity="0.25"></line><line x1="0" y1="274.90909090909093" x2="1087.01875" y2="274.90909090909093" fill="rgb(0, 0, 0)" stroke="rgb(60, 60, 60)" stroke-width="1px" opacity="0.25"></line><line x1="0" y1="240.54545454545453" x2="1087.01875" y2="240.54545454545453" fill="rgb(0, 0, 0)" stroke="rgb(60, 60, 60)" stroke-width="1px" opacity="0.25"></line><line x1="0" y1="206.18181818181816" x2="1087.01875" y2="206.18181818181816" fill="rgb(0, 0, 0)" stroke="rgb(60, 60, 60)" stroke-width="1px" opacity="0.25"></line><line x1="0" y1="171.81818181818184" x2="1087.01875" y2="171.81818181818184" fill="rgb(0, 0, 0)" stroke="rgb(60, 60, 60)" stroke-width="1px" opacity="0.25"></line><line x1="0" y1="137.45454545454547" x2="1087.01875" y2="137.45454545454547" fill="rgb(0, 0, 0)" stroke="rgb(60, 60, 60)" stroke-width="1px" opacity="0.25"></line><line x1="0" y1="103.09090909090908" x2="1087.01875" y2="103.09090909090908" fill="rgb(0, 0, 0)" stroke="rgb(60, 60, 60)" stroke-width="1px" opacity="0.25"></line><line x1="0" y1="68.7272727272727" x2="1087.01875" y2="68.7272727272727" fill="rgb(0, 0, 0)" stroke="rgb(60, 60, 60)" stroke-width="1px" opacity="0.25"></line><line x1="0" y1="34.363636363636374" x2="1087.01875" y2="34.363636363636374" fill="rgb(0, 0, 0)" stroke="rgb(60, 60, 60)" stroke-width="1px" opacity="0.25"></line><line x1="0" y1="0" x2="1087.01875" y2="0" fill="rgb(0, 0, 0)" stroke="rgb(60, 60, 60)" stroke-width="1px" opacity="0.25"></line></g></g></g><g><g><line x1="0" y1="343.6363636363636" x2="1087.01875" y2="343.6363636363636" fill="rgb(0, 0, 0)" stroke="rgb(153, 153, 153)" stroke-width="1.5px"></line></g></g><g><g><line x1="90.58489583333332" y1="0" x2="90.58489583333332" y2="378" fill="rgb(0, 0, 0)" stroke="rgb(153, 153, 153)" stroke-width="1.5px"></line></g></g><g><g><g><g><g><path stroke="rgb(51, 187, 238)" stroke-width="2px" d="M90.58489583333332,213.07827381654218L108.701875,198.2011020833796L126.81885416666667,189.1409675424749L144.93583333333333,179.60246424241498L163.0528125,175.2081701972268L181.16979166666664,164.53933759169146L199.28677083333332,152.58237986131147L217.40375,152.96258094094017L235.52072916666665,144.80529082905161L253.63770833333334,137.99649134549227L271.7546875,134.09293738278475L289.87166666666667,132.50773663954303L307.9886458333333,126.49992708726363L326.105625,117.56068741191518L344.22260416666666,116.9531653144143L362.3395833333333,115.02040412209253L380.45656249999996,114.5949289148504L398.57354166666664,109.47192296114834L416.6905208333333,101.96498758142646L434.8075,97.44874997572465L452.9244791666667,96.19611662084405L471.0414583333333,91.30282402038574L489.1584375,88.17753280292857L507.2754166666667,85.25819544358687L525.3923958333334,81.9501363580877L543.509375,82.11814056743276L561.6263541666667,78.1249395717274L579.7433333333333,77.72600945559414L597.8603125000001,73.00735733725806L615.9772916666666,76.17453080957587L634.0942708333333,69.42763710021973L652.21125,65.81763579628687L670.3282291666667,67.78819916465063L688.4452083333333,64.6595488461581L706.5621875,61.90030132640493L724.6791666666666,63.37728985873135L742.7961458333333,61.32050410183994L760.9131249999999,52.210523778741994L779.0301041666667,57.16036397760566L797.1470833333333,53.04387578097256L815.2640624999999,51.88457627729937L833.3810416666666,51.49980354309082L851.4980208333333,46.36578629233618L869.615,48.34591900218618L887.7319791666666,44.48737699335273L905.8489583333334,45.967446067116455L923.9659374999999,42.2662410736084L942.0829166666666,39.734003240411916L960.1998958333332,38.561431191184326L978.316875,37.68524655428799" style="fill: none;" fill="none"></path></g><g><path stroke="rgb(204, 51, 17)" stroke-width="2px" d="M90.58489583333332,207.90614305843005L108.701875,219.9731809876182L126.81885416666667,223.55440872365776L144.93583333333333,226.08049366690898L163.0528125,227.65719834241L181.16979166666664,228.067328192971L199.28677083333332,228.87460210106588L217.40375,229.45930689031425L235.52072916666665,229.35167637738314L253.63770833333334,229.8698218085549L271.7546875,229.59451480345294L289.87166666666667,230.31055225025526L307.9886458333333,229.4715880914168L326.105625,230.10285329818726L344.22260416666666,230.57994396036324L362.3395833333333,230.23187554966321L380.45656249999996,230.25049807808614L398.57354166666664,230.1680772087791L416.6905208333333,229.88227506117389L434.8075,229.4548990943215L452.9244791666667,229.18247600035235L471.0414583333333,229.59324489940295L489.1584375,229.12490428577772L507.2754166666667,229.26352865045723L525.3923958333334,228.71835474534467L543.509375,228.7543544769287L561.6263541666667,228.81500673294067L579.7433333333333,229.15947025472465L597.8603125000001,228.962037043138L615.9772916666666,228.14327664808795L634.0942708333333,227.78291065042671L652.21125,228.23757726495919L670.3282291666667,228.41067747636274L688.4452083333333,228.14101539958605L706.5621875,228.01668769663033L724.6791666666666,226.95821857452393L742.7961458333333,227.65580554441974L760.9131249999999,226.82745942202482L779.0301041666667,226.9720973968506L797.1470833333333,228.1342644257979L815.2640624999999,226.9895155646584L833.3810416666666,227.6716424768621L851.4980208333333,227.3947214646773L869.615,226.68441087549385L887.7319791666666,227.33157855814156L905.8489583333334,226.15210806239733L923.9659374999999,227.2702954465693L942.0829166666666,227.21532908352938L960.1998958333332,225.62149299274793L978.316875,226.8954853144559" style="fill: none;" fill="none"></path></g><g><path stroke="rgb(0, 119, 187)" stroke-width="2px" d="M90.58489583333332,277.75794040073043L108.701875,280.28182144598526L126.81885416666667,280.9076916087758L144.93583333333333,281.02734114907L163.0528125,280.60719953883773L181.16979166666664,280.2048038135875L199.28677083333332,279.67059204795146L217.40375,279.03792175379664L235.52072916666665,278.3362096439708L253.63770833333334,277.6814635016701L271.7546875,277.0719054612246L289.87166666666667,276.39472298188645L307.9886458333333,275.8927872614427L326.105625,275.3701152368025L344.22260416666666,274.56760142066264L362.3395833333333,273.995530128479L380.45656249999996,273.681773705916L398.57354166666664,272.9656871015375L416.6905208333333,272.27043511650777L434.8075,272.0078926953402L452.9244791666667,271.40770326961166L471.0414583333333,270.70660972595215L489.1584375,270.4186610308561L507.2754166666667,269.6535807089372L525.3923958333334,269.31163241646505L543.509375,268.91945327412003L561.6263541666667,268.3340193141591L579.7433333333333,267.94039002331823L597.8603125000001,267.3858188282359L615.9772916666666,267.01961946487427L634.0942708333333,266.53645784204656L652.21125,266.12878587029195L670.3282291666667,265.8006754354997L688.4452083333333,265.1911214915189L706.5621875,264.96214550191706L724.6791666666666,264.57062179392034L742.7961458333333,264.2140982801264L760.9131249999999,263.7016059702093L779.0301041666667,263.6644592285156L797.1470833333333,263.1427908377214L815.2640624999999,262.96660189195114L833.3810416666666,262.4445238546892L851.4980208333333,262.41270251707596L869.615,261.6420018456199L887.7319791666666,261.5520434813066L905.8489583333334,261.1088141961531L923.9659374999999,261.21146340803665L942.0829166666666,260.741426858035L960.1998958333332,260.40080582011825L978.316875,260.13961523229426" style="fill: none;" fill="none"></path></g><g><path stroke="rgb(255, 112, 67)" stroke-width="2px" d="M90.58489583333332,265.462733485482L108.701875,282.20176889679647L126.81885416666667,287.5208971933885L144.93583333333333,290.8577912937511L163.0528125,293.46357705376363L181.16979166666664,295.2173309326172L199.28677083333332,296.83164525032043L217.40375,298.0823082056913L235.52072916666665,298.93830956112254L253.63770833333334,299.89499792185694L271.7546875,300.72943958369166L289.87166666666667,301.41008767214686L307.9886458333333,301.99001188711685L326.105625,302.50719874555415L344.22260416666666,303.09503323381597L362.3395833333333,303.42053831707346L380.45656249999996,303.8178831013766L398.57354166666664,304.13986522501165L416.6905208333333,304.534211397171L434.8075,304.741021416404L452.9244791666667,305.01677083969116L471.0414583333333,305.33402154662394L489.1584375,305.5750165635889L507.2754166666667,305.8336058963429L525.3923958333334,306.0870746482502L543.509375,306.1607700477947L561.6263541666667,306.3252431045879L579.7433333333333,306.77321609583765L597.8603125000001,306.5848442641172L615.9772916666666,306.71246142820877L634.0942708333333,307.0852601961656L652.21125,307.0590018575842L670.3282291666667,307.345684745095L688.4452083333333,307.363684610887L706.5621875,307.5365021662279L724.6791666666666,307.4384041266008L742.7961458333333,307.40529649907893L760.9131249999999,307.7862718105316L779.0301041666667,307.78146665746516L797.1470833333333,307.96017083254725L815.2640624999999,307.83801425587046L833.3810416666666,308.1251805262132L851.4980208333333,308.1472604708238L869.615,308.10650064728475L887.7319791666666,308.41184293140066L905.8489583333334,308.44728554378855L923.9659374999999,308.26308391310954L942.0829166666666,308.5378297025507L960.1998958333332,308.4683618545532L978.316875,308.52361087365585" style="fill: none;" fill="none"></path></g><g><path stroke="rgb(0, 153, 136)" stroke-width="2px" d="M90.58489583333332,261.590779651295L108.701875,270.7856141437184L126.81885416666667,274.69258455796677L144.93583333333333,276.9486428390849L163.0528125,278.46565383130854L181.16979166666664,279.5782782164487L199.28677083333332,280.40761158683085L217.40375,281.05261223966426L235.52072916666665,281.5727649385279L253.63770833333334,281.9775652885437L271.7546875,282.32950895482844L289.87166666666667,282.6204644549977L307.9886458333333,282.8535614880648L326.105625,283.0510889183391L344.22260416666666,283.2046121250499L362.3395833333333,283.3607488762248L380.45656249999996,283.4505433819511L398.57354166666664,283.5546058741483L416.6905208333333,283.6071676124226L434.8075,283.6677215532823L452.9244791666667,283.7127703753385L471.0414583333333,283.75442322817713L489.1584375,283.78840749913996L507.2754166666667,283.78685903549194L525.3923958333334,283.79332735321736L543.509375,283.7941671284762L561.6263541666667,283.7453290765936L579.7433333333333,283.7577249787071L597.8603125000001,283.7160106788982L615.9772916666666,283.6857787695798L634.0942708333333,283.68261220238423L652.21125,283.64698524908584L670.3282291666667,283.61438967964864L688.4452083333333,283.53595467047256L706.5621875,283.4843596978621L724.6791666666666,283.4402039051056L742.7961458333333,283.3943112113259L760.9131249999999,283.3565418070013L779.0301041666667,283.26325711337L797.1470833333333,283.2380720485341L815.2640624999999,283.17479805512863L833.3810416666666,283.1089228066531L851.4980208333333,283.05656179514796L869.615,282.9519298943606L887.7319791666666,282.8959885727275L905.8489583333334,282.79499023610896L923.9659374999999,282.7259156487205L942.0829166666666,282.65051611987025L960.1998958333332,282.58936819163233L978.316875,282.5197856426239" style="fill: none;" fill="none"></path></g><g><path stroke="rgb(238, 51, 119)" stroke-width="2px" d="M90.58489583333332,239.39646993983874L108.701875,266.97059297561646L126.81885416666667,273.94932200691915L144.93583333333333,277.9537596052343L163.0528125,280.6608427437869L181.16979166666664,282.7801733233712L199.28677083333332,284.57616994597697L217.40375,286.0690773400393L235.52072916666665,287.21847568858755L253.63770833333334,288.3333080681887L271.7546875,289.2481059811332L289.87166666666667,290.2067360661247L307.9886458333333,291.02487789500844L326.105625,291.84239706126124L344.22260416666666,292.5236596194181L362.3395833333333,293.05621641332453L380.45656249999996,293.7359509901567L398.57354166666664,294.2644031264565L416.6905208333333,294.91954252936625L434.8075,295.2806090224873L452.9244791666667,295.68417224017054L471.0414583333333,296.1595956412229L489.1584375,296.6928816058419L507.2754166666667,297.0034468824213L525.3923958333334,297.44659423828125L543.509375,297.81877853653646L561.6263541666667,298.11502666906875L579.7433333333333,298.51631225239146L597.8603125000001,298.77825249325144L615.9772916666666,299.1723242022774L634.0942708333333,299.4506052407351L652.21125,299.71744894981384L670.3282291666667,300.01262790506536L688.4452083333333,300.2457167452032L706.5621875,300.54415238987315L724.6791666666666,300.7649354501204L742.7961458333333,300.92201029170644L760.9131249999999,301.11487594517797L779.0301041666667,301.38960125229573L797.1470833333333,301.6649164503271L815.2640624999999,301.8437435193495L833.3810416666666,302.0607496391643L851.4980208333333,302.1653159965168L869.615,302.4926112348383L887.7319791666666,302.64847761934453L905.8489583333334,302.8388280435042L923.9659374999999,303.05406858704305L942.0829166666666,303.20112757249314L960.1998958333332,303.419071782719L978.316875,303.5260796330192" style="fill: none;" fill="none"></path></g></g></g></g></g></g><g transform="translate(30, 378)" clip-path="url(#clip_1)"><clipPath id="clip_1"><rect width="1087" height="22"></rect></clipPath><g><g><line x1="0" y1="0" x2="0" y2="5" style="visibility: inherit;" fill="rgb(0, 0, 0)" stroke="rgb(204, 204, 204)" stroke-width="1px"></line><line x1="90.58489583333332" y1="0" x2="90.58489583333332" y2="5" style="visibility: inherit;" fill="rgb(0, 0, 0)" stroke="rgb(204, 204, 204)" stroke-width="1px"></line><line x1="181.16979166666664" y1="0" x2="181.16979166666664" y2="5" style="visibility: inherit;" fill="rgb(0, 0, 0)" stroke="rgb(204, 204, 204)" stroke-width="1px"></line><line x1="271.7546875" y1="0" x2="271.7546875" y2="5" style="visibility: inherit;" fill="rgb(0, 0, 0)" stroke="rgb(204, 204, 204)" stroke-width="1px"></line><line x1="362.3395833333333" y1="0" x2="362.3395833333333" y2="5" style="visibility: inherit;" fill="rgb(0, 0, 0)" stroke="rgb(204, 204, 204)" stroke-width="1px"></line><line x1="452.9244791666667" y1="0" x2="452.9244791666667" y2="5" style="visibility: inherit;" fill="rgb(0, 0, 0)" stroke="rgb(204, 204, 204)" stroke-width="1px"></line><line x1="543.509375" y1="0" x2="543.509375" y2="5" style="visibility: inherit;" fill="rgb(0, 0, 0)" stroke="rgb(204, 204, 204)" stroke-width="1px"></line><line x1="634.0942708333333" y1="0" x2="634.0942708333333" y2="5" style="visibility: inherit;" fill="rgb(0, 0, 0)" stroke="rgb(204, 204, 204)" stroke-width="1px"></line><line x1="724.6791666666666" y1="0" x2="724.6791666666666" y2="5" style="visibility: inherit;" fill="rgb(0, 0, 0)" stroke="rgb(204, 204, 204)" stroke-width="1px"></line><line x1="815.2640624999999" y1="0" x2="815.2640624999999" y2="5" style="visibility: inherit;" fill="rgb(0, 0, 0)" stroke="rgb(204, 204, 204)" stroke-width="1px"></line><line x1="905.8489583333334" y1="0" x2="905.8489583333334" y2="5" style="visibility: inherit;" fill="rgb(0, 0, 0)" stroke="rgb(204, 204, 204)" stroke-width="1px"></line><line x1="996.4338541666666" y1="0" x2="996.4338541666666" y2="5" style="visibility: inherit;" fill="rgb(0, 0, 0)" stroke="rgb(204, 204, 204)" stroke-width="1px"></line><line x1="1087.01875" y1="0" x2="1087.01875" y2="5" style="visibility: inherit;" fill="rgb(0, 0, 0)" stroke="rgb(204, 204, 204)" stroke-width="1px"></line></g><g transform="translate(0, 8)"><text x="0" y="0" dx="0em" dy="0.95em" style="text-anchor: middle; visibility: hidden; font-family: Roboto, sans-serif; font-size: 12px; font-weight: 200;" fill="rgb(50, 49, 63)" stroke="none" stroke-width="1px">-5</text><text x="90.58489583333332" y="0" dx="0em" dy="0.95em" style="text-anchor: middle; visibility: inherit; font-family: Roboto, sans-serif; font-size: 12px; font-weight: 200;" fill="rgb(50, 49, 63)" stroke="none" stroke-width="1px">0</text><text x="181.16979166666664" y="0" dx="0em" dy="0.95em" style="text-anchor: middle; visibility: inherit; font-family: Roboto, sans-serif; font-size: 12px; font-weight: 200;" fill="rgb(50, 49, 63)" stroke="none" stroke-width="1px">5</text><text x="271.7546875" y="0" dx="0em" dy="0.95em" style="text-anchor: middle; visibility: inherit; font-family: Roboto, sans-serif; font-size: 12px; font-weight: 200;" fill="rgb(50, 49, 63)" stroke="none" stroke-width="1px">10</text><text x="362.3395833333333" y="0" dx="0em" dy="0.95em" style="text-anchor: middle; visibility: inherit; font-family: Roboto, sans-serif; font-size: 12px; font-weight: 200;" fill="rgb(50, 49, 63)" stroke="none" stroke-width="1px">15</text><text x="452.9244791666667" y="0" dx="0em" dy="0.95em" style="text-anchor: middle; visibility: inherit; font-family: Roboto, sans-serif; font-size: 12px; font-weight: 200;" fill="rgb(50, 49, 63)" stroke="none" stroke-width="1px">20</text><text x="543.509375" y="0" dx="0em" dy="0.95em" style="text-anchor: middle; visibility: inherit; font-family: Roboto, sans-serif; font-size: 12px; font-weight: 200;" fill="rgb(50, 49, 63)" stroke="none" stroke-width="1px">25</text><text x="634.0942708333333" y="0" dx="0em" dy="0.95em" style="text-anchor: middle; visibility: inherit; font-family: Roboto, sans-serif; font-size: 12px; font-weight: 200;" fill="rgb(50, 49, 63)" stroke="none" stroke-width="1px">30</text><text x="724.6791666666666" y="0" dx="0em" dy="0.95em" style="text-anchor: middle; visibility: inherit; font-family: Roboto, sans-serif; font-size: 12px; font-weight: 200;" fill="rgb(50, 49, 63)" stroke="none" stroke-width="1px">35</text><text x="815.2640624999999" y="0" dx="0em" dy="0.95em" style="text-anchor: middle; visibility: inherit; font-family: Roboto, sans-serif; font-size: 12px; font-weight: 200;" fill="rgb(50, 49, 63)" stroke="none" stroke-width="1px">40</text><text x="905.8489583333334" y="0" dx="0em" dy="0.95em" style="text-anchor: middle; visibility: inherit; font-family: Roboto, sans-serif; font-size: 12px; font-weight: 200;" fill="rgb(50, 49, 63)" stroke="none" stroke-width="1px">45</text><text x="996.4338541666666" y="0" dx="0em" dy="0.95em" style="text-anchor: middle; visibility: inherit; font-family: Roboto, sans-serif; font-size: 12px; font-weight: 200;" fill="rgb(50, 49, 63)" stroke="none" stroke-width="1px">50</text><text x="1087.01875" y="0" dx="0em" dy="0.95em" style="text-anchor: middle; visibility: hidden; font-family: Roboto, sans-serif; font-size: 12px; font-weight: 200;" fill="rgb(50, 49, 63)" stroke="none" stroke-width="1px">55</text></g><line x1="0" y1="0" x2="1087.01875" y2="0" fill="rgb(0, 0, 0)" stroke="rgb(204, 204, 204)" stroke-width="1px"></line></g></g></g></g></svg>