<svg viewBox="0 0 1117.800048828125 400" xmlns="http://www.w3.org/2000/svg"><g><g><g><g><g><line x1="51.5625" y1="378" x2="46.5625" y2="378" style="visibility: inherit;" fill="rgb(0, 0, 0)" stroke="rgb(204, 204, 204)" stroke-width="1px"></line><line x1="51.5625" y1="352.79999999999995" x2="46.5625" y2="352.79999999999995" style="visibility: inherit;" fill="rgb(0, 0, 0)" stroke="rgb(204, 204, 204)" stroke-width="1px"></line><line x1="51.5625" y1="327.6" x2="46.5625" y2="327.6" style="visibility: inherit;" fill="rgb(0, 0, 0)" stroke="rgb(204, 204, 204)" stroke-width="1px"></line><line x1="51.5625" y1="302.40000000000003" x2="46.5625" y2="302.40000000000003" style="visibility: inherit;" fill="rgb(0, 0, 0)" stroke="rgb(204, 204, 204)" stroke-width="1px"></line><line x1="51.5625" y1="277.2" x2="46.5625" y2="277.2" style="visibility: inherit;" fill="rgb(0, 0, 0)" stroke="rgb(204, 204, 204)" stroke-width="1px"></line><line x1="51.5625" y1="251.99999999999994" x2="46.5625" y2="251.99999999999994" style="visibility: inherit;" fill="rgb(0, 0, 0)" stroke="rgb(204, 204, 204)" stroke-width="1px"></line><line x1="51.5625" y1="226.79999999999995" x2="46.5625" y2="226.79999999999995" style="visibility: inherit;" fill="rgb(0, 0, 0)" stroke="rgb(204, 204, 204)" stroke-width="1px"></line><line x1="51.5625" y1="201.60000000000005" x2="46.5625" y2="201.60000000000005" style="visibility: inherit;" fill="rgb(0, 0, 0)" stroke="rgb(204, 204, 204)" stroke-width="1px"></line><line x1="51.5625" y1="176.4" x2="46.5625" y2="176.4" style="visibility: inherit;" fill="rgb(0, 0, 0)" stroke="rgb(204, 204, 204)" stroke-width="1px"></line><line x1="51.5625" y1="151.20000000000002" x2="46.5625" y2="151.20000000000002" style="visibility: inherit;" fill="rgb(0, 0, 0)" stroke="rgb(204, 204, 204)" stroke-width="1px"></line><line x1="51.5625" y1="125.99999999999997" x2="46.5625" y2="125.99999999999997" style="visibility: inherit;" fill="rgb(0, 0, 0)" stroke="rgb(204, 204, 204)" stroke-width="1px"></line><line x1="51.5625" y1="100.79999999999994" x2="46.5625" y2="100.79999999999994" style="visibility: inherit;" fill="rgb(0, 0, 0)" stroke="rgb(204, 204, 204)" stroke-width="1px"></line><line x1="51.5625" y1="75.59999999999994" x2="46.5625" y2="75.59999999999994" style="visibility: inherit;" fill="rgb(0, 0, 0)" stroke="rgb(204, 204, 204)" stroke-width="1px"></line><line x1="51.5625" y1="50.400000000000034" x2="46.5625" y2="50.400000000000034" style="visibility: inherit;" fill="rgb(0, 0, 0)" stroke="rgb(204, 204, 204)" stroke-width="1px"></line><line x1="51.5625" y1="25.200000000000035" x2="46.5625" y2="25.200000000000035" style="visibility: inherit;" fill="rgb(0, 0, 0)" stroke="rgb(204, 204, 204)" stroke-width="1px"></line><line x1="51.5625" y1="0" x2="46.5625" y2="0" style="visibility: inherit;" fill="rgb(0, 0, 0)" stroke="rgb(204, 204, 204)" stroke-width="1px"></line></g><g transform="translate(41.5625, 0)"><text x="0" y="378" dx="0em" dy="0.3em" style="text-anchor: end; visibility: hidden; font-family: Roboto, sans-serif; font-size: 12px; font-weight: 200;" fill="rgb(50, 49, 63)" stroke="none" stroke-width="1px">0.44</text><text x="0" y="352.79999999999995" dx="0em" dy="0.3em" style="text-anchor: end; visibility: inherit; font-family: Roboto, sans-serif; font-size: 12px; font-weight: 200;" fill="rgb(50, 49, 63)" stroke="none" stroke-width="1px">0.46</text><text x="0" y="327.6" dx="0em" dy="0.3em" style="text-anchor: end; visibility: inherit; font-family: Roboto, sans-serif; font-size: 12px; font-weight: 200;" fill="rgb(50, 49, 63)" stroke="none" stroke-width="1px">0.48</text><text x="0" y="302.40000000000003" dx="0em" dy="0.3em" style="text-anchor: end; visibility: inherit; font-family: Roboto, sans-serif; font-size: 12px; font-weight: 200;" fill="rgb(50, 49, 63)" stroke="none" stroke-width="1px">0.5</text><text x="0" y="277.2" dx="0em" dy="0.3em" style="text-anchor: end; visibility: inherit; font-family: Roboto, sans-serif; font-size: 12px; font-weight: 200;" fill="rgb(50, 49, 63)" stroke="none" stroke-width="1px">0.52</text><text x="0" y="251.99999999999994" dx="0em" dy="0.3em" style="text-anchor: end; visibility: inherit; font-family: Roboto, sans-serif; font-size: 12px; font-weight: 200;" fill="rgb(50, 49, 63)" stroke="none" stroke-width="1px">0.54</text><text x="0" y="226.79999999999995" dx="0em" dy="0.3em" style="text-anchor: end; visibility: inherit; font-family: Roboto, sans-serif; font-size: 12px; font-weight: 200;" fill="rgb(50, 49, 63)" stroke="none" stroke-width="1px">0.56</text><text x="0" y="201.60000000000005" dx="0em" dy="0.3em" style="text-anchor: end; visibility: inherit; font-family: Roboto, sans-serif; font-size: 12px; font-weight: 200;" fill="rgb(50, 49, 63)" stroke="none" stroke-width="1px">0.58</text><text x="0" y="176.4" dx="0em" dy="0.3em" style="text-anchor: end; visibility: inherit; font-family: Roboto, sans-serif; font-size: 12px; font-weight: 200;" fill="rgb(50, 49, 63)" stroke="none" stroke-width="1px">0.6</text><text x="0" y="151.20000000000002" dx="0em" dy="0.3em" style="text-anchor: end; visibility: inherit; font-family: Roboto, sans-serif; font-size: 12px; font-weight: 200;" fill="rgb(50, 49, 63)" stroke="none" stroke-width="1px">0.62</text><text x="0" y="125.99999999999997" dx="0em" dy="0.3em" style="text-anchor: end; visibility: inherit; font-family: Roboto, sans-serif; font-size: 12px; font-weight: 200;" fill="rgb(50, 49, 63)" stroke="none" stroke-width="1px">0.64</text><text x="0" y="100.79999999999994" dx="0em" dy="0.3em" style="text-anchor: end; visibility: inherit; font-family: Roboto, sans-serif; font-size: 12px; font-weight: 200;" fill="rgb(50, 49, 63)" stroke="none" stroke-width="1px">0.66</text><text x="0" y="75.59999999999994" dx="0em" dy="0.3em" style="text-anchor: end; visibility: inherit; font-family: Roboto, sans-serif; font-size: 12px; font-weight: 200;" fill="rgb(50, 49, 63)" stroke="none" stroke-width="1px">0.68</text><text x="0" y="50.400000000000034" dx="0em" dy="0.3em" style="text-anchor: end; visibility: inherit; font-family: Roboto, sans-serif; font-size: 12px; font-weight: 200;" fill="rgb(50, 49, 63)" stroke="none" stroke-width="1px">0.7</text><text x="0" y="25.200000000000035" dx="0em" dy="0.3em" style="text-anchor: end; visibility: inherit; font-family: Roboto, sans-serif; font-size: 12px; font-weight: 200;" fill="rgb(50, 49, 63)" stroke="none" stroke-width="1px">0.72</text><text x="0" y="0" dx="0em" dy="0.3em" style="text-anchor: end; visibility: hidden; font-family: Roboto, sans-serif; font-size: 12px; font-weight: 200;" fill="rgb(50, 49, 63)" stroke="none" stroke-width="1px">0.74</text></g><line x1="51.5625" y1="0" x2="51.5625" y2="378" fill="rgb(0, 0, 0)" stroke="rgb(204, 204, 204)" stroke-width="1px"></line></g></g><g transform="translate(51, 0)" clip-path="url(#clip_0)"><clipPath id="clip_0"><rect width="1066" height="378"></rect></clipPath><g><g><g><line x1="0" y1="0" x2="0" y2="378" fill="rgb(0, 0, 0)" stroke="rgb(60, 60, 60)" stroke-width="1px" opacity="0.25"></line><line x1="88.85312499999999" y1="0" x2="88.85312499999999" y2="378" fill="rgb(0, 0, 0)" stroke="rgb(60, 60, 60)" stroke-width="1px" opacity="0.25"></line><line x1="177.70624999999998" y1="0" x2="177.70624999999998" y2="378" fill="rgb(0, 0, 0)" stroke="rgb(60, 60, 60)" stroke-width="1px" opacity="0.25"></line><line x1="266.559375" y1="0" x2="266.559375" y2="378" fill="rgb(0, 0, 0)" stroke="rgb(60, 60, 60)" stroke-width="1px" opacity="0.25"></line><line x1="355.41249999999997" y1="0" x2="355.41249999999997" y2="378" fill="rgb(0, 0, 0)" stroke="rgb(60, 60, 60)" stroke-width="1px" opacity="0.25"></line><line x1="444.265625" y1="0" x2="444.265625" y2="378" fill="rgb(0, 0, 0)" stroke="rgb(60, 60, 60)" stroke-width="1px" opacity="0.25"></line><line x1="533.11875" y1="0" x2="533.11875" y2="378" fill="rgb(0, 0, 0)" stroke="rgb(60, 60, 60)" stroke-width="1px" opacity="0.25"></line><line x1="621.9718750000001" y1="0" x2="621.9718750000001" y2="378" fill="rgb(0, 0, 0)" stroke="rgb(60, 60, 60)" stroke-width="1px" opacity="0.25"></line><line x1="710.8249999999999" y1="0" x2="710.8249999999999" y2="378" fill="rgb(0, 0, 0)" stroke="rgb(60, 60, 60)" stroke-width="1px" opacity="0.25"></line><line x1="799.6781249999999" y1="0" x2="799.6781249999999" y2="378" fill="rgb(0, 0, 0)" stroke="rgb(60, 60, 60)" stroke-width="1px" opacity="0.25"></line><line x1="888.53125" y1="0" x2="888.53125" y2="378" fill="rgb(0, 0, 0)" stroke="rgb(60, 60, 60)" stroke-width="1px" opacity="0.25"></line><line x1="977.3843749999999" y1="0" x2="977.3843749999999" y2="378" fill="rgb(0, 0, 0)" stroke="rgb(60, 60, 60)" stroke-width="1px" opacity="0.25"></line><line x1="1066.2375" y1="0" x2="1066.2375" y2="378" fill="rgb(0, 0, 0)" stroke="rgb(60, 60, 60)" stroke-width="1px" opacity="0.25"></line></g><g><line x1="0" y1="378" x2="1066.2375" y2="378" fill="rgb(0, 0, 0)" stroke="rgb(60, 60, 60)" stroke-width="1px" opacity="0.25"></line><line x1="0" y1="352.79999999999995" x2="1066.2375" y2="352.79999999999995" fill="rgb(0, 0, 0)" stroke="rgb(60, 60, 60)" stroke-width="1px" opacity="0.25"></line><line x1="0" y1="327.6" x2="1066.2375" y2="327.6" fill="rgb(0, 0, 0)" stroke="rgb(60, 60, 60)" stroke-width="1px" opacity="0.25"></line><line x1="0" y1="302.40000000000003" x2="1066.2375" y2="302.40000000000003" fill="rgb(0, 0, 0)" stroke="rgb(60, 60, 60)" stroke-width="1px" opacity="0.25"></line><line x1="0" y1="277.2" x2="1066.2375" y2="277.2" fill="rgb(0, 0, 0)" stroke="rgb(60, 60, 60)" stroke-width="1px" opacity="0.25"></line><line x1="0" y1="251.99999999999994" x2="1066.2375" y2="251.99999999999994" fill="rgb(0, 0, 0)" stroke="rgb(60, 60, 60)" stroke-width="1px" opacity="0.25"></line><line x1="0" y1="226.79999999999995" x2="1066.2375" y2="226.79999999999995" fill="rgb(0, 0, 0)" stroke="rgb(60, 60, 60)" stroke-width="1px" opacity="0.25"></line><line x1="0" y1="201.60000000000005" x2="1066.2375" y2="201.60000000000005" fill="rgb(0, 0, 0)" stroke="rgb(60, 60, 60)" stroke-width="1px" opacity="0.25"></line><line x1="0" y1="176.4" x2="1066.2375" y2="176.4" fill="rgb(0, 0, 0)" stroke="rgb(60, 60, 60)" stroke-width="1px" opacity="0.25"></line><line x1="0" y1="151.20000000000002" x2="1066.2375" y2="151.20000000000002" fill="rgb(0, 0, 0)" stroke="rgb(60, 60, 60)" stroke-width="1px" opacity="0.25"></line><line x1="0" y1="125.99999999999997" x2="1066.2375" y2="125.99999999999997" fill="rgb(0, 0, 0)" stroke="rgb(60, 60, 60)" stroke-width="1px" opacity="0.25"></line><line x1="0" y1="100.79999999999994" x2="1066.2375" y2="100.79999999999994" fill="rgb(0, 0, 0)" stroke="rgb(60, 60, 60)" stroke-width="1px" opacity="0.25"></line><line x1="0" y1="75.59999999999994" x2="1066.2375" y2="75.59999999999994" fill="rgb(0, 0, 0)" stroke="rgb(60, 60, 60)" stroke-width="1px" opacity="0.25"></line><line x1="0" y1="50.400000000000034" x2="1066.2375" y2="50.400000000000034" fill="rgb(0, 0, 0)" stroke="rgb(60, 60, 60)" stroke-width="1px" opacity="0.25"></line><line x1="0" y1="25.200000000000035" x2="1066.2375" y2="25.200000000000035" fill="rgb(0, 0, 0)" stroke="rgb(60, 60, 60)" stroke-width="1px" opacity="0.25"></line><line x1="0" y1="0" x2="1066.2375" y2="0" fill="rgb(0, 0, 0)" stroke="rgb(60, 60, 60)" stroke-width="1px" opacity="0.25"></line></g></g></g><g><g><line x1="0" y1="932.4000000000001" x2="1066.2375" y2="932.4000000000001" fill="rgb(0, 0, 0)" stroke="rgb(153, 153, 153)" stroke-width="1.5px"></line></g></g><g><g><line x1="88.85312499999999" y1="0" x2="88.85312499999999" y2="378" fill="rgb(0, 0, 0)" stroke="rgb(153, 153, 153)" stroke-width="1.5px"></line></g></g><g><g><g><g><g><path stroke="rgb(0, 153, 136)" stroke-width="2px" d="M88.85312499999999,386.0562913656235L106.62375,331.7961042165756L124.394375,305.3936724901199L142.165,291.4647947788239L159.935625,282.1511887550354L177.70624999999998,275.78968634605405L195.47687499999998,272.50495662689207L213.2475,270.6338690757751L231.018125,270.05182971954343L248.78875,269.8438726902008L266.559375,269.8438726902008L284.33,269.8438726902008L302.100625,269.8438726902008L319.87125,269.8438726902008L337.64187499999997,269.8438726902008L355.41249999999997,269.8438726902008L373.18312499999996,269.8438726902008L390.95374999999996,269.8438726902008L408.724375,269.8438726902008L426.495,269.8438726902008L444.265625,269.8438726902008L462.03625,269.8438726902008L479.806875,269.8438726902008L497.5775,269.8438726902008L515.348125,269.8438726902008L533.11875,269.8438726902008L550.8893750000001,269.8438726902008L568.66,269.8438726902008L586.4306250000001,269.8438726902008L604.20125,269.8438726902008L621.9718750000001,269.8438726902008L639.7425,269.8438726902008L657.5131250000001,269.8438726902008L675.2837499999999,269.8438726902008L693.054375,269.8438726902008L710.8249999999999,269.8438726902008L728.595625,269.8438726902008L746.3662499999999,269.8438726902008L764.136875,269.8438726902008L781.9074999999999,269.8438726902008L799.6781249999999,269.8438726902008L817.44875,269.8438726902008L835.2193749999999,269.8438726902008L852.99,269.8438726902008L870.7606249999999,269.8438726902008L888.53125,269.8438726902008L906.3018749999999,269.8438726902008L924.0725,269.8438726902008L941.8431249999999,269.8438726902008L959.61375,269.8438726902008" style="fill: none;" fill="none"></path></g><g><path stroke="rgb(238, 51, 119)" stroke-width="2px" d="M88.85312499999999,521.8876796007156L106.62375,355.08417477607725L124.394375,309.13701167106626L142.165,281.93940153121946L159.935625,264.4018422603607L177.70624999999998,250.53571214675904L195.47687499999998,241.46385898590088L213.2475,232.94460525512696L231.018125,229.50479021072388L248.78875,228.29287161827088L266.559375,227.61560311317444L284.33,226.9918071269989L302.100625,227.34824051856995L319.87125,228.00763478279114L337.64187499999997,227.57992973327634L355.41249999999997,228.86319508552552L373.18312499999996,228.06110730171204L390.95374999999996,228.6315058708191L408.724375,228.18592658042908L426.495,229.04141178131104L444.265625,227.3838387966156L462.03625,228.39974155426026L479.806875,229.0770100593567L497.5775,227.95423736572266L515.348125,228.50668659210206L533.11875,229.3443726539612L550.8893750000001,228.13245406150818L568.66,227.25909461975095L586.4306250000001,227.95423736572266L604.20125,229.5760618686676L621.9718750000001,225.8510850906372L639.7425,228.07898154258726L657.5131250000001,230.6097637653351L675.2837499999999,228.54235997200013L693.054375,228.61363162994382L710.8249999999999,227.4907838344574L728.595625,228.9166676044464L746.3662499999999,229.11268343925474L764.136875,226.61749949455262L781.9074999999999,225.58379759788514L799.6781249999999,229.29090013504026L817.44875,228.06110730171204L835.2193749999999,228.89879336357117L852.99,226.20759358406065L870.7606249999999,227.72247304916382L888.53125,226.45708193778992L906.3018749999999,228.18592658042908L924.0725,228.73837580680848L941.8431249999999,226.5640269756317L959.61375,226.68877115249634" style="fill: none;" fill="none"></path></g><g><path stroke="rgb(51, 187, 238)" stroke-width="2px" d="M88.85312499999999,385.05841305255893L106.62375,329.75877871513364L124.394375,304.97787108421323L142.165,288.1800650596619L159.935625,276.9123088359833L177.70624999999998,269.59445943832395L195.47687499999998,263.14974417686466L213.2475,259.1997622489929L231.018125,255.1666425704956L248.78875,251.7156373500824L266.559375,247.68244256973267L284.33,244.9382959842682L302.100625,243.81567349433897L319.87125,242.3604249000549L337.64187499999997,240.57255020141602L355.41249999999997,240.82196345329285L373.18312499999996,239.07569518089292L390.95374999999996,239.3667148590088L408.724375,238.07781686782835L426.495,237.57884016036988L444.265625,236.5809618473053L462.03625,236.74731245040894L479.806875,235.83257188796998L497.5775,236.12359156608582L515.348125,235.9988473892212L533.11875,235.6246899604797L550.8893750000001,235.54147710800171L568.66,235.79096546173093L586.4306250000001,236.87198152542112L604.20125,235.66622128486634L621.9718750000001,236.7057060241699L639.7425,236.0819851398468L657.5131250000001,235.9573160648346L675.2837499999999,236.20672931671143L693.054375,235.3752016067505L710.8249999999999,236.5393554210663L728.595625,236.45621767044068L746.3662499999999,236.1651979923248L764.136875,236.7888437747955L781.9074999999999,235.79096546173093L799.6781249999999,236.45621767044068L817.44875,235.4583393573761L835.2193749999999,237.0383321285248L852.99,236.5809618473053L870.7606249999999,236.7888437747955L888.53125,236.7888437747955L906.3018749999999,236.5393554210663L924.0725,237.99460401535035L941.8431249999999,237.3293518066406L959.61375,237.74519076347352" style="fill: none;" fill="none"></path></g><g><path stroke="rgb(204, 51, 17)" stroke-width="2px" d="M88.85312499999999,515.9348439216615L106.62375,354.1395436763763L124.394375,308.5488515138626L142.165,280.1749586105347L159.935625,258.8589500427246L177.70624999999998,240.14499535560606L195.47687499999998,229.50479021072388L213.2475,214.89011993408204L231.018125,206.2638460636139L248.78875,195.99794855117796L266.559375,189.24313774108887L284.33,180.45644631385804L302.100625,173.16691031455994L319.87125,168.62212171554563L337.64187499999997,162.1880709171295L355.41249999999997,156.34221782684327L373.18312499999996,152.79553284645078L390.95374999999996,146.34368290901182L408.724375,143.9732431411743L426.495,139.05414690971372L444.265625,135.52518596649168L462.03625,131.19428744316102L479.806875,126.00782861709592L497.5775,122.4254702568054L515.348125,122.639360332489L533.11875,118.254914188385L550.8893750000001,115.01119008064269L568.66,111.58917417526243L586.4306250000001,111.51790251731873L604.20125,107.38301982879638L621.9718750000001,106.31364455223081L639.7425,102.21443524360654L657.5131250000001,97.99040665626524L675.2837499999999,99.34494366645811L693.054375,96.35070791244506L710.8249999999999,96.01207365989684L728.595625,93.9981423854828L746.3662499999999,93.78425230979919L764.136875,91.7167734146118L781.9074999999999,87.56409158706666L799.6781249999999,87.88492670059205L817.44875,84.035205745697L835.2193749999999,83.03710212707517L852.99,83.57175221443174L870.7606249999999,80.52404394149778L888.53125,81.20131244659422L906.3018749999999,81.21918668746947L924.0725,79.0447627544403L941.8431249999999,77.19124903678895L959.61375,77.42293825149534" style="fill: none;" fill="none"></path></g><g><path stroke="rgb(0, 119, 187)" stroke-width="2px" d="M88.85312499999999,289.17801847457883L106.62375,271.6733538150787L124.394375,262.1933971881866L142.165,266.3928674697876L159.935625,268.47183694839475L177.70624999999998,269.511246585846L195.47687499999998,270.8418261051178L213.2475,273.8354610443115L231.018125,278.2012068271637L248.78875,280.2801763057709L266.559375,281.6938184738159L284.33,280.52958955764774L302.100625,283.3985554218292L319.87125,285.2695678710938L337.64187499999997,284.6459220886231L355.41249999999997,287.2237931728363L373.18312499999996,286.51693453788755L390.95374999999996,288.72064819335935L408.724375,291.29851927757267L426.495,292.58741726875303L444.265625,291.173775100708L462.03625,290.96589317321775L479.806875,294.99901285171507L497.5775,294.99901285171507L515.348125,295.1652883529663L533.11875,296.8700253009796L550.8893750000001,299.2816208839416L568.66,296.3295172691345L586.4306250000001,297.1195136547089L604.20125,298.9489947795868L621.9718750000001,299.9468730926514L639.7425,299.98840441703794L657.5131250000001,301.73474779129026L675.2837499999999,301.9010232925415L693.054375,302.73262610435484L710.8249999999999,304.43736305236814L728.595625,306.7657457828522L746.3662499999999,306.4747261047363L764.136875,307.38942911624906L781.9074999999999,308.17942550182346L799.6781249999999,307.0568030118942L817.44875,305.7262985944748L835.2193749999999,308.63679578304294L852.99,307.098371887207L870.7606249999999,310.5909835338593L888.53125,310.0089066267014L906.3018749999999,307.4310355424881L924.0725,310.75729658603666L941.8431249999999,310.67415883541105L959.61375,308.09628775119785" style="fill: none;" fill="none"></path></g><g><path stroke="rgb(255, 112, 67)" stroke-width="2px" d="M88.85312499999999,376.32894923686985L106.62375,253.69029035568238L124.394375,211.61072244644163L142.165,183.53982796669004L159.935625,167.19631304740906L177.70624999999998,151.61921253204343L195.47687499999998,140.7473181724548L213.2475,129.69713201522828L231.018125,123.74433388710023L248.78875,118.64702095985413L266.559375,111.19706740379334L284.33,106.11762871742246L302.100625,101.85792675018311L319.87125,96.74281468391419L337.64187499999997,96.45765295028684L355.41249999999997,92.55445947647092L373.18312499999996,88.57999434471131L390.95374999999996,87.68883576393127L408.724375,83.99953236579896L426.495,80.39929976463317L444.265625,80.6309889793396L462.03625,83.46480717658996L479.806875,80.07853975296021L497.5775,76.70999636650086L515.348125,76.97735896110534L533.11875,75.89018454551695L550.8893750000001,73.71576061248777L568.66,71.79090013504029L586.4306250000001,70.11560311317442L604.20125,71.13150587081907L621.9718750000001,71.57701005935668L639.7425,69.04622783660889L657.5131250000001,69.58087792396546L675.2837499999999,66.0519920825958L693.054375,65.96284618377685L710.8249999999999,64.76872673034667L728.595625,62.986484670639015L746.3662499999999,66.83620562553406L764.136875,63.16470136642454L781.9074999999999,61.79236521720884L799.6781249999999,63.27164640426636L817.44875,62.11312522888184L835.2193749999999,60.58037152290345L852.99,62.13092436790467L870.7606249999999,62.05965270996093L888.53125,61.20416750907897L906.3018749999999,59.51099624633788L924.0725,59.43972458839414L941.8431249999999,57.33664741516114L959.61375,56.78412308692931" style="fill: none;" fill="none"></path></g></g></g></g></g></g><g transform="translate(51, 378)" clip-path="url(#clip_1)"><clipPath id="clip_1"><rect width="1066" height="22"></rect></clipPath><g><g><line x1="0" y1="0" x2="0" y2="5" style="visibility: inherit;" fill="rgb(0, 0, 0)" stroke="rgb(204, 204, 204)" stroke-width="1px"></line><line x1="88.85312499999999" y1="0" x2="88.85312499999999" y2="5" style="visibility: inherit;" fill="rgb(0, 0, 0)" stroke="rgb(204, 204, 204)" stroke-width="1px"></line><line x1="177.70624999999998" y1="0" x2="177.70624999999998" y2="5" style="visibility: inherit;" fill="rgb(0, 0, 0)" stroke="rgb(204, 204, 204)" stroke-width="1px"></line><line x1="266.559375" y1="0" x2="266.559375" y2="5" style="visibility: inherit;" fill="rgb(0, 0, 0)" stroke="rgb(204, 204, 204)" stroke-width="1px"></line><line x1="355.41249999999997" y1="0" x2="355.41249999999997" y2="5" style="visibility: inherit;" fill="rgb(0, 0, 0)" stroke="rgb(204, 204, 204)" stroke-width="1px"></line><line x1="444.265625" y1="0" x2="444.265625" y2="5" style="visibility: inherit;" fill="rgb(0, 0, 0)" stroke="rgb(204, 204, 204)" stroke-width="1px"></line><line x1="533.11875" y1="0" x2="533.11875" y2="5" style="visibility: inherit;" fill="rgb(0, 0, 0)" stroke="rgb(204, 204, 204)" stroke-width="1px"></line><line x1="621.9718750000001" y1="0" x2="621.9718750000001" y2="5" style="visibility: inherit;" fill="rgb(0, 0, 0)" stroke="rgb(204, 204, 204)" stroke-width="1px"></line><line x1="710.8249999999999" y1="0" x2="710.8249999999999" y2="5" style="visibility: inherit;" fill="rgb(0, 0, 0)" stroke="rgb(204, 204, 204)" stroke-width="1px"></line><line x1="799.6781249999999" y1="0" x2="799.6781249999999" y2="5" style="visibility: inherit;" fill="rgb(0, 0, 0)" stroke="rgb(204, 204, 204)" stroke-width="1px"></line><line x1="888.53125" y1="0" x2="888.53125" y2="5" style="visibility: inherit;" fill="rgb(0, 0, 0)" stroke="rgb(204, 204, 204)" stroke-width="1px"></line><line x1="977.3843749999999" y1="0" x2="977.3843749999999" y2="5" style="visibility: inherit;" fill="rgb(0, 0, 0)" stroke="rgb(204, 204, 204)" stroke-width="1px"></line><line x1="1066.2375" y1="0" x2="1066.2375" y2="5" style="visibility: inherit;" fill="rgb(0, 0, 0)" stroke="rgb(204, 204, 204)" stroke-width="1px"></line></g><g transform="translate(0, 8)"><text x="0" y="0" dx="0em" dy="0.95em" style="text-anchor: middle; visibility: hidden; font-family: Roboto, sans-serif; font-size: 12px; font-weight: 200;" fill="rgb(50, 49, 63)" stroke="none" stroke-width="1px">-5</text><text x="88.85312499999999" y="0" dx="0em" dy="0.95em" style="text-anchor: middle; visibility: inherit; font-family: Roboto, sans-serif; font-size: 12px; font-weight: 200;" fill="rgb(50, 49, 63)" stroke="none" stroke-width="1px">0</text><text x="177.70624999999998" y="0" dx="0em" dy="0.95em" style="text-anchor: middle; visibility: inherit; font-family: Roboto, sans-serif; font-size: 12px; font-weight: 200;" fill="rgb(50, 49, 63)" stroke="none" stroke-width="1px">5</text><text x="266.559375" y="0" dx="0em" dy="0.95em" style="text-anchor: middle; visibility: inherit; font-family: Roboto, sans-serif; font-size: 12px; font-weight: 200;" fill="rgb(50, 49, 63)" stroke="none" stroke-width="1px">10</text><text x="355.41249999999997" y="0" dx="0em" dy="0.95em" style="text-anchor: middle; visibility: inherit; font-family: Roboto, sans-serif; font-size: 12px; font-weight: 200;" fill="rgb(50, 49, 63)" stroke="none" stroke-width="1px">15</text><text x="444.265625" y="0" dx="0em" dy="0.95em" style="text-anchor: middle; visibility: inherit; font-family: Roboto, sans-serif; font-size: 12px; font-weight: 200;" fill="rgb(50, 49, 63)" stroke="none" stroke-width="1px">20</text><text x="533.11875" y="0" dx="0em" dy="0.95em" style="text-anchor: middle; visibility: inherit; font-family: Roboto, sans-serif; font-size: 12px; font-weight: 200;" fill="rgb(50, 49, 63)" stroke="none" stroke-width="1px">25</text><text x="621.9718750000001" y="0" dx="0em" dy="0.95em" style="text-anchor: middle; visibility: inherit; font-family: Roboto, sans-serif; font-size: 12px; font-weight: 200;" fill="rgb(50, 49, 63)" stroke="none" stroke-width="1px">30</text><text x="710.8249999999999" y="0" dx="0em" dy="0.95em" style="text-anchor: middle; visibility: inherit; font-family: Roboto, sans-serif; font-size: 12px; font-weight: 200;" fill="rgb(50, 49, 63)" stroke="none" stroke-width="1px">35</text><text x="799.6781249999999" y="0" dx="0em" dy="0.95em" style="text-anchor: middle; visibility: inherit; font-family: Roboto, sans-serif; font-size: 12px; font-weight: 200;" fill="rgb(50, 49, 63)" stroke="none" stroke-width="1px">40</text><text x="888.53125" y="0" dx="0em" dy="0.95em" style="text-anchor: middle; visibility: inherit; font-family: Roboto, sans-serif; font-size: 12px; font-weight: 200;" fill="rgb(50, 49, 63)" stroke="none" stroke-width="1px">45</text><text x="977.3843749999999" y="0" dx="0em" dy="0.95em" style="text-anchor: middle; visibility: inherit; font-family: Roboto, sans-serif; font-size: 12px; font-weight: 200;" fill="rgb(50, 49, 63)" stroke="none" stroke-width="1px">50</text><text x="1066.2375" y="0" dx="0em" dy="0.95em" style="text-anchor: middle; visibility: hidden; font-family: Roboto, sans-serif; font-size: 12px; font-weight: 200;" fill="rgb(50, 49, 63)" stroke="none" stroke-width="1px">55</text></g><line x1="0" y1="0" x2="1066.2375" y2="0" fill="rgb(0, 0, 0)" stroke="rgb(204, 204, 204)" stroke-width="1px"></line></g></g></g></g></svg>