<svg viewBox="0 0 1117.800048828125 400" xmlns="http://www.w3.org/2000/svg"><g><g><g><g><g><line x1="51.5625" y1="378" x2="46.5625" y2="378" style="visibility: inherit;" fill="rgb(0, 0, 0)" stroke="rgb(204, 204, 204)" stroke-width="1px"></line><line x1="51.5625" y1="324" x2="46.5625" y2="324" style="visibility: inherit;" fill="rgb(0, 0, 0)" stroke="rgb(204, 204, 204)" stroke-width="1px"></line><line x1="51.5625" y1="270.00000000000006" x2="46.5625" y2="270.00000000000006" style="visibility: inherit;" fill="rgb(0, 0, 0)" stroke="rgb(204, 204, 204)" stroke-width="1px"></line><line x1="51.5625" y1="216" x2="46.5625" y2="216" style="visibility: inherit;" fill="rgb(0, 0, 0)" stroke="rgb(204, 204, 204)" stroke-width="1px"></line><line x1="51.5625" y1="162.00000000000006" x2="46.5625" y2="162.00000000000006" style="visibility: inherit;" fill="rgb(0, 0, 0)" stroke="rgb(204, 204, 204)" stroke-width="1px"></line><line x1="51.5625" y1="108" x2="46.5625" y2="108" style="visibility: inherit;" fill="rgb(0, 0, 0)" stroke="rgb(204, 204, 204)" stroke-width="1px"></line><line x1="51.5625" y1="54.00000000000006" x2="46.5625" y2="54.00000000000006" style="visibility: inherit;" fill="rgb(0, 0, 0)" stroke="rgb(204, 204, 204)" stroke-width="1px"></line><line x1="51.5625" y1="0" x2="46.5625" y2="0" style="visibility: inherit;" fill="rgb(0, 0, 0)" stroke="rgb(204, 204, 204)" stroke-width="1px"></line></g><g transform="translate(41.5625, 0)"><text x="0" y="378" dx="0em" dy="0.3em" style="text-anchor: end; visibility: hidden; font-family: Roboto, sans-serif; font-size: 12px; font-weight: 200;" fill="rgb(50, 49, 63)" stroke="none" stroke-width="1px">0.4</text><text x="0" y="324" dx="0em" dy="0.3em" style="text-anchor: end; visibility: inherit; font-family: Roboto, sans-serif; font-size: 12px; font-weight: 200;" fill="rgb(50, 49, 63)" stroke="none" stroke-width="1px">0.45</text><text x="0" y="270.00000000000006" dx="0em" dy="0.3em" style="text-anchor: end; visibility: inherit; font-family: Roboto, sans-serif; font-size: 12px; font-weight: 200;" fill="rgb(50, 49, 63)" stroke="none" stroke-width="1px">0.5</text><text x="0" y="216" dx="0em" dy="0.3em" style="text-anchor: end; visibility: inherit; font-family: Roboto, sans-serif; font-size: 12px; font-weight: 200;" fill="rgb(50, 49, 63)" stroke="none" stroke-width="1px">0.55</text><text x="0" y="162.00000000000006" dx="0em" dy="0.3em" style="text-anchor: end; visibility: inherit; font-family: Roboto, sans-serif; font-size: 12px; font-weight: 200;" fill="rgb(50, 49, 63)" stroke="none" stroke-width="1px">0.6</text><text x="0" y="108" dx="0em" dy="0.3em" style="text-anchor: end; visibility: inherit; font-family: Roboto, sans-serif; font-size: 12px; font-weight: 200;" fill="rgb(50, 49, 63)" stroke="none" stroke-width="1px">0.65</text><text x="0" y="54.00000000000006" dx="0em" dy="0.3em" style="text-anchor: end; visibility: inherit; font-family: Roboto, sans-serif; font-size: 12px; font-weight: 200;" fill="rgb(50, 49, 63)" stroke="none" stroke-width="1px">0.7</text><text x="0" y="0" dx="0em" dy="0.3em" style="text-anchor: end; visibility: hidden; font-family: Roboto, sans-serif; font-size: 12px; font-weight: 200;" fill="rgb(50, 49, 63)" stroke="none" stroke-width="1px">0.75</text></g><line x1="51.5625" y1="0" x2="51.5625" y2="378" fill="rgb(0, 0, 0)" stroke="rgb(204, 204, 204)" stroke-width="1px"></line></g></g><g transform="translate(51, 0)" clip-path="url(#clip_0)"><clipPath id="clip_0"><rect width="1066" height="378"></rect></clipPath><g><g><g><line x1="0" y1="0" x2="0" y2="378" fill="rgb(0, 0, 0)" stroke="rgb(60, 60, 60)" stroke-width="1px" opacity="0.25"></line><line x1="88.85312499999999" y1="0" x2="88.85312499999999" y2="378" fill="rgb(0, 0, 0)" stroke="rgb(60, 60, 60)" stroke-width="1px" opacity="0.25"></line><line x1="177.70624999999998" y1="0" x2="177.70624999999998" y2="378" fill="rgb(0, 0, 0)" stroke="rgb(60, 60, 60)" stroke-width="1px" opacity="0.25"></line><line x1="266.559375" y1="0" x2="266.559375" y2="378" fill="rgb(0, 0, 0)" stroke="rgb(60, 60, 60)" stroke-width="1px" opacity="0.25"></line><line x1="355.41249999999997" y1="0" x2="355.41249999999997" y2="378" fill="rgb(0, 0, 0)" stroke="rgb(60, 60, 60)" stroke-width="1px" opacity="0.25"></line><line x1="444.265625" y1="0" x2="444.265625" y2="378" fill="rgb(0, 0, 0)" stroke="rgb(60, 60, 60)" stroke-width="1px" opacity="0.25"></line><line x1="533.11875" y1="0" x2="533.11875" y2="378" fill="rgb(0, 0, 0)" stroke="rgb(60, 60, 60)" stroke-width="1px" opacity="0.25"></line><line x1="621.9718750000001" y1="0" x2="621.9718750000001" y2="378" fill="rgb(0, 0, 0)" stroke="rgb(60, 60, 60)" stroke-width="1px" opacity="0.25"></line><line x1="710.8249999999999" y1="0" x2="710.8249999999999" y2="378" fill="rgb(0, 0, 0)" stroke="rgb(60, 60, 60)" stroke-width="1px" opacity="0.25"></line><line x1="799.6781249999999" y1="0" x2="799.6781249999999" y2="378" fill="rgb(0, 0, 0)" stroke="rgb(60, 60, 60)" stroke-width="1px" opacity="0.25"></line><line x1="888.53125" y1="0" x2="888.53125" y2="378" fill="rgb(0, 0, 0)" stroke="rgb(60, 60, 60)" stroke-width="1px" opacity="0.25"></line><line x1="977.3843749999999" y1="0" x2="977.3843749999999" y2="378" fill="rgb(0, 0, 0)" stroke="rgb(60, 60, 60)" stroke-width="1px" opacity="0.25"></line><line x1="1066.2375" y1="0" x2="1066.2375" y2="378" fill="rgb(0, 0, 0)" stroke="rgb(60, 60, 60)" stroke-width="1px" opacity="0.25"></line></g><g><line x1="0" y1="378" x2="1066.2375" y2="378" fill="rgb(0, 0, 0)" stroke="rgb(60, 60, 60)" stroke-width="1px" opacity="0.25"></line><line x1="0" y1="324" x2="1066.2375" y2="324" fill="rgb(0, 0, 0)" stroke="rgb(60, 60, 60)" stroke-width="1px" opacity="0.25"></line><line x1="0" y1="270.00000000000006" x2="1066.2375" y2="270.00000000000006" fill="rgb(0, 0, 0)" stroke="rgb(60, 60, 60)" stroke-width="1px" opacity="0.25"></line><line x1="0" y1="216" x2="1066.2375" y2="216" fill="rgb(0, 0, 0)" stroke="rgb(60, 60, 60)" stroke-width="1px" opacity="0.25"></line><line x1="0" y1="162.00000000000006" x2="1066.2375" y2="162.00000000000006" fill="rgb(0, 0, 0)" stroke="rgb(60, 60, 60)" stroke-width="1px" opacity="0.25"></line><line x1="0" y1="108" x2="1066.2375" y2="108" fill="rgb(0, 0, 0)" stroke="rgb(60, 60, 60)" stroke-width="1px" opacity="0.25"></line><line x1="0" y1="54.00000000000006" x2="1066.2375" y2="54.00000000000006" fill="rgb(0, 0, 0)" stroke="rgb(60, 60, 60)" stroke-width="1px" opacity="0.25"></line><line x1="0" y1="0" x2="1066.2375" y2="0" fill="rgb(0, 0, 0)" stroke="rgb(60, 60, 60)" stroke-width="1px" opacity="0.25"></line></g></g></g><g><g><line x1="0" y1="810.0000000000001" x2="1066.2375" y2="810.0000000000001" fill="rgb(0, 0, 0)" stroke="rgb(153, 153, 153)" stroke-width="1.5px"></line></g></g><g><g><line x1="88.85312499999999" y1="0" x2="88.85312499999999" y2="378" fill="rgb(0, 0, 0)" stroke="rgb(153, 153, 153)" stroke-width="1.5px"></line></g></g><g><g><g><g><g><path stroke="rgb(51, 187, 238)" stroke-width="2px" d="M88.85312499999999,343.7529695034027L106.62375,331.88834667205816L124.394375,325.15438199043274L142.165,318.91924381256104L159.935625,313.82421612739563L177.70624999999998,320.9501159191132L195.47687499999998,327.9691243171692L213.2475,319.4180381298066L231.018125,318.6698305606842L248.78875,321.0570073127747L266.559375,318.4916782379151L284.33,316.7458498477936L302.100625,315.10688066482544L319.87125,322.62471556663513L337.64187499999997,320.4156911373139L355.41249999999997,314.5368254184723L373.18312499999996,314.5724558830261L390.95374999999996,314.60808634758L408.724375,316.71021938323975L426.495,321.0926377773285L444.265625,320.771963596344L462.03625,322.44656324386597L479.806875,320.62944173812866L497.5775,322.19714999198914L515.348125,324.90500092506414L533.11875,321.30642056465155L550.8893750000001,322.9809880256653L568.66,319.2042875289917L586.4306250000001,321.48457288742065L604.20125,317.4940574169159L621.9718750000001,322.9809880256653L639.7425,318.5273087024689L657.5131250000001,319.27554845809937L675.2837499999999,315.9263813495636L693.054375,318.95487427711487L710.8249999999999,315.35629391670227L728.595625,316.60332798957825L746.3662499999999,323.0166184902192L764.136875,314.99998927116394L781.9074999999999,318.3135259151459L799.6781249999999,318.7410914897919L817.44875,319.2399179935456L835.2193749999999,325.51068663597107L852.99,319.0973961353302L870.7606249999999,321.9121062755585L888.53125,317.2802746295929L906.3018749999999,319.6318209171295L924.0725,323.0878794193268L941.8431249999999,322.30404138565063L959.61375,318.1710362434387" style="fill: none;" fill="none"></path></g><g><path stroke="rgb(204, 51, 17)" stroke-width="2px" d="M88.85312499999999,402.58601188659674L106.62375,314.2921113967896L124.394375,284.2241835594178L142.165,262.8649592399597L159.935625,250.00059127807617L177.70624999999998,238.48065376281738L195.47687499999998,232.39984989166263L213.2475,222.71332025527954L231.018125,219.16874885559085L248.78875,213.22544574737552L266.559375,210.2461338043213L284.33,202.20974206924438L302.100625,201.65967464447024L319.87125,195.33444643020633L337.64187499999997,191.54538631439212L355.41249999999997,190.7508945465088L373.18312499999996,187.58824825286868L390.95374999999996,183.3255958557129L408.724375,183.9061760902405L426.495,183.40200662612915L444.265625,182.7755928039551L462.03625,177.42812633514404L479.806875,176.08363151550293L497.5775,173.74605417251587L515.348125,176.06837511062625L533.11875,173.25714111328125L550.8893750000001,172.44739294052124L568.66,170.84315299987793L586.4306250000001,167.8944182395935L604.20125,165.92350959777835L621.9718750000001,170.1250720024109L639.7425,165.66376447677615L657.5131250000001,164.04426813125613L675.2837499999999,163.2803535461426L693.054375,163.2497763633728L710.8249999999999,162.3941946029663L728.595625,160.2093744277954L746.3662499999999,160.16354084014893L764.136875,160.9427118301392L781.9074999999999,158.83430242538455L799.6781249999999,157.8106427192688L817.44875,156.92448377609256L835.2193749999999,157.1995496749878L852.99,154.64806079864502L870.7606249999999,156.02306842803955L888.53125,156.92448377609256L906.3018749999999,154.58690643310547L924.0725,151.6534924507141L941.8431249999999,156.0994791984558L959.61375,151.9895839691162" style="fill: none;" fill="none"></path></g><g><path stroke="rgb(0, 119, 187)" stroke-width="2px" d="M88.85312499999999,259.2042589187622L106.62375,240.10690927505493L124.394375,233.30165147781372L142.165,230.48694133758545L159.935625,230.20189762115479L177.70624999999998,232.16154098510745L195.47687499999998,232.30406284332278L213.2475,232.9453468322754L231.018125,236.33014440536502L248.78875,236.68644905090332L266.559375,239.5724201202393L284.33,239.14491891860962L302.100625,241.78144454956055L319.87125,241.35394334793094L337.64187499999997,243.59856605529785L355.41249999999997,245.27316570281982L373.18312499999996,244.38243627548218L390.95374999999996,248.26606035232547L408.724375,248.7292242050171L426.495,248.80048513412478L444.265625,250.86698770523074L462.03625,251.25889062881473L479.806875,251.43707513809204L497.5775,252.07835912704468L515.348125,254.78621006011966L533.11875,254.14486169815063L550.8893750000001,255.03565549850464L568.66,255.28503656387332L586.4306250000001,255.8907222747803L604.20125,255.8907222747803L621.9718750000001,260.34443378448486L639.7425,258.6698341369629L657.5131250000001,259.6674871444702L675.2837499999999,259.16866064071655L693.054375,259.13299798965454L710.8249999999999,260.30877113342285L728.595625,261.4132833480835L746.3662499999999,262.4109363555908L764.136875,260.8432602882385L781.9074999999999,262.4465346336365L799.6781249999999,263.5510468482972L817.44875,263.6223077774048L835.2193749999999,264.0142750740052L852.99,264.97626543045044L870.7606249999999,264.65555906295776L888.53125,265.6532120704651L906.3018749999999,264.8693418502808L924.0725,265.5462884902954L941.8431249999999,267.54159450531006L959.61375,265.9738540649414" style="fill: none;" fill="none"></path></g><g><path stroke="rgb(255, 112, 67)" stroke-width="2px" d="M88.85312499999999,338.8292062282562L106.62375,232.43042707443237L124.394375,193.19545984268188L142.165,170.87373018264773L159.935625,151.91317319869995L177.70624999999998,138.48348140716553L195.47687499999998,128.751118183136L213.2475,120.08824825286867L231.018125,114.58802461624146L248.78875,106.44464492797853L266.559375,101.3569235801697L284.33,95.85669994354248L302.100625,93.19828748703002L319.87125,88.79806995391844L337.64187499999997,85.25349855422974L355.41249999999997,83.618745803833L373.18312499999996,79.6005177497864L390.95374999999996,77.76710987091063L408.724375,76.05588197708131L426.495,73.53497028350829L444.265625,70.89181423187256L462.03625,68.17224740982054L479.806875,68.92090559005739L497.5775,64.82626676559448L515.348125,65.28460264205935L533.11875,61.93868637084963L550.8893750000001,63.0540132522583L568.66,58.24129343032838L586.4306250000001,60.74694871902468L604.20125,59.310786724090576L621.9718750000001,56.80513143539427L639.7425,57.950971126556404L657.5131250000001,56.34673118591311L675.2837499999999,55.99538326263426L693.054375,53.413317203521736L710.8249999999999,55.46063661575317L728.595625,55.873138904571555L746.3662499999999,52.72574901580809L764.136875,53.13831567764282L781.9074999999999,49.50201272964478L799.6781249999999,51.39657497406005L817.44875,49.65483427047728L835.2193749999999,50.5256724357605L852.99,48.69226455688477L870.7606249999999,49.242331981658936L888.53125,48.69226455688477L906.3018749999999,47.95892715454104L924.0725,47.42418050765993L941.8431249999999,45.98801851272583L959.61375,47.16443538665771" style="fill: none;" fill="none"></path></g><g><path stroke="rgb(0, 153, 136)" stroke-width="2px" d="M88.85312499999999,342.27560877799993L106.62375,296.9073414802551L124.394375,271.9244956970215L142.165,258.4530258178711L159.935625,247.76137590408328L177.70624999999998,241.2750864028931L195.47687499999998,236.60636901855472L213.2475,232.65045404434207L231.018125,229.47860240936282L248.78875,226.41367435455325L266.559375,223.6338543891907L284.33,220.85403442382815L302.100625,219.8917865753174L319.87125,218.35932254791263L337.64187499999997,217.36141204833984L355.41249999999997,216.86245679855347L373.18312499999996,216.14965438842776L390.95374999999996,216.0427951812744L408.724375,215.50817728042603L426.495,214.973623752594L444.265625,215.11614561080933L462.03625,214.43900585174563L479.806875,213.94005060195923L497.5775,212.97780275344851L515.348125,213.0491280555725L533.11875,212.55017280578616L550.8893750000001,213.19164991378787L568.66,213.29857349395752L586.4306250000001,213.94005060195923L604.20125,213.33423614501956L621.9718750000001,213.97571325302127L639.7425,214.1895604133606L657.5131250000001,213.61934423446658L675.2837499999999,213.97571325302127L693.054375,213.72626781463626L710.8249999999999,214.83103752136233L728.595625,214.51026678085327L746.3662499999999,215.18740653991702L764.136875,214.40340757369998L781.9074999999999,215.25873184204102L799.6781249999999,216.71993494033816L817.44875,215.8645462989807L835.2193749999999,216.18531703948975L852.99,216.14965438842776L870.7606249999999,216.43476247787478L888.53125,217.4326729774475L906.3018749999999,216.82679414749148L924.0725,217.21882581710818L941.8431249999999,217.6821827888489L959.61375,216.75553321838382" style="fill: none;" fill="none"></path></g><g><path stroke="rgb(238, 51, 119)" stroke-width="2px" d="M88.85312499999999,457.2920680046082L106.62375,313.98154377937317L124.394375,274.8121404647827L142.165,250.56803941726687L159.935625,231.7013382911682L177.70624999999998,217.47876405715945L195.47687499999998,205.94492197036746L213.2475,195.00678777694705L231.018125,187.23097801208496L248.78875,179.94401693344116L266.559375,172.48897790908813L284.33,165.3547739982605L302.100625,162.16193675994876L319.87125,153.6070203781128L337.64187499999997,148.51987838745117L355.41249999999997,144.7923588752747L373.18312499999996,139.65938329696655L390.95374999999996,136.7415475845337L408.724375,132.20434427261353L426.495,129.31708574295044L444.265625,127.04085588455203L462.03625,122.48839616775513L479.806875,120.65518140792847L497.5775,117.20266342163089L515.348125,113.71956825256346L533.11875,110.05320310592651L550.8893750000001,109.71711158752444L568.66,105.27157545089723L586.4306250000001,103.11758995056151L604.20125,101.66630029678345L621.9718750000001,98.62622022628787L639.7425,95.87639808654785L657.5131250000001,94.07376050949097L675.2837499999999,91.90451860427856L693.054375,89.64354515075684L710.8249999999999,88.81860494613647L728.595625,87.4284052848816L746.3662499999999,86.3437843322754L764.136875,84.28140163421631L781.9074999999999,82.98293352127074L799.6781249999999,80.59978008270264L817.44875,81.13446235656738L835.2193749999999,80.41644573211671L852.99,76.90277338027954L870.7606249999999,75.2834701538086L888.53125,74.18352842330933L906.3018749999999,73.98493766784668L924.0725,71.93787574768069L941.8431249999999,69.0658736228943L959.61375,69.7685694694519" style="fill: none;" fill="none"></path></g></g></g></g></g></g><g transform="translate(51, 378)" clip-path="url(#clip_1)"><clipPath id="clip_1"><rect width="1066" height="22"></rect></clipPath><g><g><line x1="0" y1="0" x2="0" y2="5" style="visibility: inherit;" fill="rgb(0, 0, 0)" stroke="rgb(204, 204, 204)" stroke-width="1px"></line><line x1="88.85312499999999" y1="0" x2="88.85312499999999" y2="5" style="visibility: inherit;" fill="rgb(0, 0, 0)" stroke="rgb(204, 204, 204)" stroke-width="1px"></line><line x1="177.70624999999998" y1="0" x2="177.70624999999998" y2="5" style="visibility: inherit;" fill="rgb(0, 0, 0)" stroke="rgb(204, 204, 204)" stroke-width="1px"></line><line x1="266.559375" y1="0" x2="266.559375" y2="5" style="visibility: inherit;" fill="rgb(0, 0, 0)" stroke="rgb(204, 204, 204)" stroke-width="1px"></line><line x1="355.41249999999997" y1="0" x2="355.41249999999997" y2="5" style="visibility: inherit;" fill="rgb(0, 0, 0)" stroke="rgb(204, 204, 204)" stroke-width="1px"></line><line x1="444.265625" y1="0" x2="444.265625" y2="5" style="visibility: inherit;" fill="rgb(0, 0, 0)" stroke="rgb(204, 204, 204)" stroke-width="1px"></line><line x1="533.11875" y1="0" x2="533.11875" y2="5" style="visibility: inherit;" fill="rgb(0, 0, 0)" stroke="rgb(204, 204, 204)" stroke-width="1px"></line><line x1="621.9718750000001" y1="0" x2="621.9718750000001" y2="5" style="visibility: inherit;" fill="rgb(0, 0, 0)" stroke="rgb(204, 204, 204)" stroke-width="1px"></line><line x1="710.8249999999999" y1="0" x2="710.8249999999999" y2="5" style="visibility: inherit;" fill="rgb(0, 0, 0)" stroke="rgb(204, 204, 204)" stroke-width="1px"></line><line x1="799.6781249999999" y1="0" x2="799.6781249999999" y2="5" style="visibility: inherit;" fill="rgb(0, 0, 0)" stroke="rgb(204, 204, 204)" stroke-width="1px"></line><line x1="888.53125" y1="0" x2="888.53125" y2="5" style="visibility: inherit;" fill="rgb(0, 0, 0)" stroke="rgb(204, 204, 204)" stroke-width="1px"></line><line x1="977.3843749999999" y1="0" x2="977.3843749999999" y2="5" style="visibility: inherit;" fill="rgb(0, 0, 0)" stroke="rgb(204, 204, 204)" stroke-width="1px"></line><line x1="1066.2375" y1="0" x2="1066.2375" y2="5" style="visibility: inherit;" fill="rgb(0, 0, 0)" stroke="rgb(204, 204, 204)" stroke-width="1px"></line></g><g transform="translate(0, 8)"><text x="0" y="0" dx="0em" dy="0.95em" style="text-anchor: middle; visibility: hidden; font-family: Roboto, sans-serif; font-size: 12px; font-weight: 200;" fill="rgb(50, 49, 63)" stroke="none" stroke-width="1px">-5</text><text x="88.85312499999999" y="0" dx="0em" dy="0.95em" style="text-anchor: middle; visibility: inherit; font-family: Roboto, sans-serif; font-size: 12px; font-weight: 200;" fill="rgb(50, 49, 63)" stroke="none" stroke-width="1px">0</text><text x="177.70624999999998" y="0" dx="0em" dy="0.95em" style="text-anchor: middle; visibility: inherit; font-family: Roboto, sans-serif; font-size: 12px; font-weight: 200;" fill="rgb(50, 49, 63)" stroke="none" stroke-width="1px">5</text><text x="266.559375" y="0" dx="0em" dy="0.95em" style="text-anchor: middle; visibility: inherit; font-family: Roboto, sans-serif; font-size: 12px; font-weight: 200;" fill="rgb(50, 49, 63)" stroke="none" stroke-width="1px">10</text><text x="355.41249999999997" y="0" dx="0em" dy="0.95em" style="text-anchor: middle; visibility: inherit; font-family: Roboto, sans-serif; font-size: 12px; font-weight: 200;" fill="rgb(50, 49, 63)" stroke="none" stroke-width="1px">15</text><text x="444.265625" y="0" dx="0em" dy="0.95em" style="text-anchor: middle; visibility: inherit; font-family: Roboto, sans-serif; font-size: 12px; font-weight: 200;" fill="rgb(50, 49, 63)" stroke="none" stroke-width="1px">20</text><text x="533.11875" y="0" dx="0em" dy="0.95em" style="text-anchor: middle; visibility: inherit; font-family: Roboto, sans-serif; font-size: 12px; font-weight: 200;" fill="rgb(50, 49, 63)" stroke="none" stroke-width="1px">25</text><text x="621.9718750000001" y="0" dx="0em" dy="0.95em" style="text-anchor: middle; visibility: inherit; font-family: Roboto, sans-serif; font-size: 12px; font-weight: 200;" fill="rgb(50, 49, 63)" stroke="none" stroke-width="1px">30</text><text x="710.8249999999999" y="0" dx="0em" dy="0.95em" style="text-anchor: middle; visibility: inherit; font-family: Roboto, sans-serif; font-size: 12px; font-weight: 200;" fill="rgb(50, 49, 63)" stroke="none" stroke-width="1px">35</text><text x="799.6781249999999" y="0" dx="0em" dy="0.95em" style="text-anchor: middle; visibility: inherit; font-family: Roboto, sans-serif; font-size: 12px; font-weight: 200;" fill="rgb(50, 49, 63)" stroke="none" stroke-width="1px">40</text><text x="888.53125" y="0" dx="0em" dy="0.95em" style="text-anchor: middle; visibility: inherit; font-family: Roboto, sans-serif; font-size: 12px; font-weight: 200;" fill="rgb(50, 49, 63)" stroke="none" stroke-width="1px">45</text><text x="977.3843749999999" y="0" dx="0em" dy="0.95em" style="text-anchor: middle; visibility: inherit; font-family: Roboto, sans-serif; font-size: 12px; font-weight: 200;" fill="rgb(50, 49, 63)" stroke="none" stroke-width="1px">50</text><text x="1066.2375" y="0" dx="0em" dy="0.95em" style="text-anchor: middle; visibility: hidden; font-family: Roboto, sans-serif; font-size: 12px; font-weight: 200;" fill="rgb(50, 49, 63)" stroke="none" stroke-width="1px">55</text></g><line x1="0" y1="0" x2="1066.2375" y2="0" fill="rgb(0, 0, 0)" stroke="rgb(204, 204, 204)" stroke-width="1px"></line></g></g></g></g></svg>