<svg viewBox="0 0 1499 400" xmlns="http://www.w3.org/2000/svg"><g><g><g><g><g><line x1="41.171875" y1="318.32276554031955" x2="36.171875" y2="318.32276554031955" style="visibility: inherit;" fill="rgb(0, 0, 0)" stroke="rgb(204, 204, 204)" stroke-width="1px"></line><line x1="41.171875" y1="177.5476104759456" x2="36.171875" y2="177.5476104759456" style="visibility: inherit;" fill="rgb(0, 0, 0)" stroke="rgb(204, 204, 204)" stroke-width="1px"></line><line x1="41.171875" y1="58.523912798302376" x2="36.171875" y2="58.523912798302376" style="visibility: inherit;" fill="rgb(0, 0, 0)" stroke="rgb(204, 204, 204)" stroke-width="1px"></line></g><g transform="translate(31.171875, 0)"><text x="0" y="318.32276554031955" dx="0em" dy="0.3em" style="text-anchor: end; visibility: inherit; font-family: Roboto, sans-serif; font-size: 12px; font-weight: 200;" fill="rgb(50, 49, 63)" stroke="none" stroke-width="1px">0.5</text><text x="0" y="177.5476104759456" dx="0em" dy="0.3em" style="text-anchor: end; visibility: inherit; font-family: Roboto, sans-serif; font-size: 12px; font-weight: 200;" fill="rgb(50, 49, 63)" stroke="none" stroke-width="1px">0.6</text><text x="0" y="58.523912798302376" dx="0em" dy="0.3em" style="text-anchor: end; visibility: inherit; font-family: Roboto, sans-serif; font-size: 12px; font-weight: 200;" fill="rgb(50, 49, 63)" stroke="none" stroke-width="1px">0.7</text></g><line x1="41.171875" y1="0" x2="41.171875" y2="378" fill="rgb(0, 0, 0)" stroke="rgb(204, 204, 204)" stroke-width="1px"></line></g></g><g transform="translate(41, 0)" clip-path="url(#clip_0)"><clipPath id="clip_0"><rect width="1457" height="378"></rect></clipPath><g><g><g><line x1="0" y1="0" x2="0" y2="378" fill="rgb(0, 0, 0)" stroke="rgb(60, 60, 60)" stroke-width="1px" opacity="0.25"></line><line x1="121.48567708333333" y1="0" x2="121.48567708333333" y2="378" fill="rgb(0, 0, 0)" stroke="rgb(60, 60, 60)" stroke-width="1px" opacity="0.25"></line><line x1="242.97135416666666" y1="0" x2="242.97135416666666" y2="378" fill="rgb(0, 0, 0)" stroke="rgb(60, 60, 60)" stroke-width="1px" opacity="0.25"></line><line x1="364.45703125" y1="0" x2="364.45703125" y2="378" fill="rgb(0, 0, 0)" stroke="rgb(60, 60, 60)" stroke-width="1px" opacity="0.25"></line><line x1="485.9427083333333" y1="0" x2="485.9427083333333" y2="378" fill="rgb(0, 0, 0)" stroke="rgb(60, 60, 60)" stroke-width="1px" opacity="0.25"></line><line x1="607.4283854166667" y1="0" x2="607.4283854166667" y2="378" fill="rgb(0, 0, 0)" stroke="rgb(60, 60, 60)" stroke-width="1px" opacity="0.25"></line><line x1="728.9140625" y1="0" x2="728.9140625" y2="378" fill="rgb(0, 0, 0)" stroke="rgb(60, 60, 60)" stroke-width="1px" opacity="0.25"></line><line x1="850.3997395833334" y1="0" x2="850.3997395833334" y2="378" fill="rgb(0, 0, 0)" stroke="rgb(60, 60, 60)" stroke-width="1px" opacity="0.25"></line><line x1="971.8854166666666" y1="0" x2="971.8854166666666" y2="378" fill="rgb(0, 0, 0)" stroke="rgb(60, 60, 60)" stroke-width="1px" opacity="0.25"></line><line x1="1093.37109375" y1="0" x2="1093.37109375" y2="378" fill="rgb(0, 0, 0)" stroke="rgb(60, 60, 60)" stroke-width="1px" opacity="0.25"></line><line x1="1214.8567708333335" y1="0" x2="1214.8567708333335" y2="378" fill="rgb(0, 0, 0)" stroke="rgb(60, 60, 60)" stroke-width="1px" opacity="0.25"></line><line x1="1336.3424479166665" y1="0" x2="1336.3424479166665" y2="378" fill="rgb(0, 0, 0)" stroke="rgb(60, 60, 60)" stroke-width="1px" opacity="0.25"></line><line x1="1457.828125" y1="0" x2="1457.828125" y2="378" fill="rgb(0, 0, 0)" stroke="rgb(60, 60, 60)" stroke-width="1px" opacity="0.25"></line></g><g><line x1="0" y1="318.32276554031955" x2="1457.828125" y2="318.32276554031955" fill="rgb(0, 0, 0)" stroke="rgb(60, 60, 60)" stroke-width="1px" opacity="0.25"></line><line x1="0" y1="177.5476104759456" x2="1457.828125" y2="177.5476104759456" fill="rgb(0, 0, 0)" stroke="rgb(60, 60, 60)" stroke-width="1px" opacity="0.25"></line><line x1="0" y1="58.523912798302376" x2="1457.828125" y2="58.523912798302376" fill="rgb(0, 0, 0)" stroke="rgb(60, 60, 60)" stroke-width="1px" opacity="0.25"></line></g></g></g><g><g><line x1="121.48567708333333" y1="0" x2="121.48567708333333" y2="378" fill="rgb(0, 0, 0)" stroke="rgb(153, 153, 153)" stroke-width="1.5px"></line></g></g><g><g><g><g><g><path stroke="rgb(0, 153, 136)" stroke-width="2px" d="M121.48567708333333,301.7866456975302L145.7828125,278.01497725997154L170.07994791666667,272.6648523781164L194.37708333333333,267.87646437452287L218.67421875,264.3045823407848L242.97135416666666,259.5203486723644L267.2684895833333,254.76557654623744L291.565625,254.48410205323412L315.8627604166667,249.24739637760086L340.15989583333334,247.61819856727064L364.45703125,276.1792235909096L388.75416666666666,281.84544784042436L413.0513020833333,286.4770067930891L437.3484375,287.5045620948995L461.64557291666665,284.7185957304122L485.9427083333333,287.2597904274447L510.23984375,287.0639759110248" style="fill: none;" fill="none"></path></g><g><path stroke="rgb(238, 51, 119)" stroke-width="2px" d="M121.48567708333333,412.94728393900795L145.7828125,259.8674068443988L170.07994791666667,208.79989561258165L194.37708333333333,171.68312132397224L218.67421875,147.16456644448368L242.97135416666666,123.21414135381075L267.2684895833333,101.20348437947072L291.565625,87.62113207006952L315.8627604166667,74.2894165679456L340.15989583333334,66.24191150582047L364.45703125,145.4863529472475L388.75416666666666,135.78596125258477L413.0513020833333,126.56370850438627L437.3484375,119.2710885830695L461.64557291666665,109.85925168331705L485.9427083333333,103.10206547358626L510.23984375,93.62282022536408" style="fill: none;" fill="none"></path></g><g><path stroke="rgb(51, 187, 238)" stroke-width="2px" d="M121.48567708333333,299.34642889058307L145.7828125,280.7768173532717L170.07994791666667,273.67417779699616L194.37708333333333,276.37229670873523L218.67421875,279.1766396338641L242.97135416666666,276.275710531889L267.2684895833333,279.22511299376134L291.565625,285.40195138696987L315.8627604166667,285.10899802222247L340.15989583333334,291.3332769798557L364.45703125,290.6446540473932L388.75416666666666,293.20545993300755L413.0513020833333,294.3408748205442L437.3484375,293.9457778902932L461.64557291666665,295.37895601310714L485.9427083333333,298.402295287873L510.23984375,301.88638647714095L534.5369791666666,296.56705877507926L558.8341145833334,302.03606687027633L583.13125,297.9058744887571L607.4283854166667,300.34153564744855L631.7255208333333,304.1345544370415L656.0226562500001,307.19244065872215L680.3197916666667,305.68702057322037L704.6169270833334,308.0971580902267L728.9140625,304.63499732470933L753.2111979166667,310.6156258503412L777.5083333333333,309.2546094473914L801.80546875,313.04112972679644L826.1026041666667,313.69943042818613L850.3997395833334,312.23178154878406L874.696875,312.0296226405878L898.9940104166667,313.59806056132936L923.2911458333333,312.63634959215796L947.58828125,309.2043047492268L971.8854166666666,313.6487438311927L996.1825520833333,312.3329721881802L1020.4796875,312.53521054574196L1044.7768229166668,314.10476840390476L1069.0739583333332,314.5609708709153L1093.37109375,313.69943042818613L1117.6682291666668,313.80072209824584L1141.9653645833332,313.85141867324216L1166.2625,315.5758934401649L1190.5596354166667,313.90202705804444L1214.8567708333335,314.15539339758965L1239.1539062499999,317.40608593189603L1263.4510416666667,314.25683646608337L1287.7481770833333,316.79550900246664L1312.0453125000001,315.5250835160232" style="fill: none;" fill="none"></path></g><g><path stroke="rgb(204, 51, 17)" stroke-width="2px" d="M121.48567708333333,415.56903372411045L145.7828125,260.25218557185656L170.07994791666667,214.56472713463182L194.37708333333333,185.7385799929174L218.67421875,166.58752376943687L242.97135416666666,151.34098302095325L267.2684895833333,139.0347508163148L291.565625,133.3926625275393L315.8627604166667,123.84209447101303L340.15989583333334,115.19699664311364L364.45703125,113.15125937022972L388.75416666666666,107.51158773719584L413.0513020833333,104.01179001990585L437.3484375,99.45762562826894L461.64557291666665,95.32283527712437L485.9427083333333,93.41058987905711L510.23984375,91.58445044758045L534.5369791666666,87.83177683164749L558.8341145833334,85.24309577658644L583.13125,84.19396704459561L607.4283854166667,81.44064645783091L631.7255208333333,78.87333636947159L656.0226562500001,74.7991599078948L680.3197916666667,74.4805476660098L704.6169270833334,76.2346787605836L728.9140625,72.22201275731871L753.2111979166667,70.06509152087527L777.5083333333333,69.60594942202792L801.80546875,66.66756222825161L826.1026041666667,64.25883687937102L850.3997395833334,63.0807969384913L874.696875,61.68521582165361L898.9940104166667,61.998590604346596L923.2911458333333,58.293060125364256L947.58828125,57.4044898482589L971.8854166666666,58.58947760220528L996.1825520833333,53.99999999999998L1020.4796875,54.2482195096482L1044.7768229166668,50.96572052039923L1069.0739583333332,50.13184177078756L1093.37109375,49.62265246606958L1117.6682291666668,45.807025899311036L1141.9653645833332,46.851410920189956L1166.2625,43.17174070504785L1190.5596354166667,41.58264245013518L1214.8567708333335,43.110578378982844L1239.1539062499999,40.02729754965967L1263.4510416666667,38.91607265021497L1287.7481770833333,37.1839223629072L1312.0453125000001,37.09292132513171" style="fill: none;" fill="none"></path></g><g><path stroke="rgb(0, 119, 187)" stroke-width="2px" d="M121.48567708333333,298.3526926598559L145.7828125,278.69242309034195L170.07994791666667,272.47279072231794L194.37708333333333,271.94473735391136L218.67421875,274.34782413510646L242.97135416666666,276.22750913461226L267.2684895833333,282.0885088410242L291.565625,289.269336545953L315.8627604166667,284.9625630105126L340.15989583333334,291.13651567134883L364.45703125,290.39888507079974L388.75416666666666,292.7123680401452L413.0513020833333,292.07180119555414L437.3484375,294.6867170798135L461.64557291666665,298.9984936642208L485.9427083333333,300.9890029501888L510.23984375,301.8365595268475L534.5369791666666,301.73682518310306L558.8341145833334,301.63701364343405L583.13125,306.43940904410897L607.4283854166667,306.2386702162518L631.7255208333333,304.38473533645896L656.0226562500001,306.33907842012474L680.3197916666667,309.00284590345825L704.6169270833334,310.86791590177717L728.9140625,308.7008016095084L753.2111979166667,310.81750598876215L777.5083333333333,314.40884290439186L801.80546875,316.18550631005223L826.1026041666667,317.1516508333474L850.3997395833334,315.37276549542827L874.696875,316.59215183305247L898.9940104166667,318.9345058000692L923.2911458333333,324.15402963817274L947.58828125,322.0005445795029L971.8854166666666,320.46600332166156L996.1825520833333,322.0005445795029L1020.4796875,318.9345058000692L1044.7768229166668,323.58943534752245L1069.0739583333332,323.7433830966714L1093.37109375,328.5307253299424L1117.6682291666668,324L1141.9653645833332,326.31353764284347L1166.2625,324.66762192669944L1190.5596354166667,322.7689603949677L1214.8567708333335,326.0561043221765L1239.1539062499999,327.03468687837096L1263.4510416666667,324.2053642218008L1287.7481770833333,329.9778980868621L1312.0453125000001,327.80813153433087" style="fill: none;" fill="none"></path></g><g><path stroke="rgb(255, 112, 67)" stroke-width="2px" d="M121.48567708333333,414.7518665059128L145.7828125,262.38260434317874L170.07994791666667,215.82616939937148L194.37708333333333,186.65892474031992L218.67421875,166.04927780400644L242.97135416666666,151.34098302095325L267.2684895833333,140.3519919894311L291.565625,131.57256969641105L315.8627604166667,126.64887107709052L340.15989583333334,119.91278404304386L364.45703125,114.60954320648123L388.75416666666666,108.01052307591836L413.0513020833333,104.88942481202255L437.3484375,100.08305747717233L461.64557291666665,100.09950114278101L485.9427083333333,98.20827970555719L510.23984375,93.91673690297536L534.5369791666666,88.77228782538954L558.8341145833334,91.32393539750933L583.13125,88.54518658813808L607.4283854166667,86.6334048568655L631.7255208333333,85.76012451275263L656.0226562500001,86.27749969232045L680.3197916666667,80.49291901488316L704.6169270833334,79.22584418006812L728.9140625,79.1456870115885L753.2111979166667,79.11361296946593L777.5083333333333,77.7207922384498L801.80546875,76.21866828557746L826.1026041666667,75.88353359110236L850.3997395833334,75.46870074910225L874.696875,75.16580048989103L898.9940104166667,74.44866682517866L923.2911458333333,72.6668435619006L947.58828125,72.92113813242939L971.8854166666666,72.15850553380389L996.1825520833333,71.42838051730695L1020.4796875,73.71637403667131L1044.7768229166668,71.52351983645036L1069.0739583333332,68.48299634921803L1093.37109375,71.19041641025359L1117.6682291666668,67.55103124354915L1141.9653645833332,68.94147097476136L1166.2625,66.11588208680973L1190.5596354166667,67.66159419374931L1214.8567708333335,66.46261213858658L1239.1539062499999,65.35993826654715L1263.4510416666667,65.92681014107151L1287.7481770833333,65.91107836130053L1312.0453125000001,67.28273910656085" style="fill: none;" fill="none"></path></g></g></g></g></g></g><g transform="translate(41, 378)" clip-path="url(#clip_1)"><clipPath id="clip_1"><rect width="1457" height="22"></rect></clipPath><g><g><line x1="0" y1="0" x2="0" y2="5" style="visibility: inherit;" fill="rgb(0, 0, 0)" stroke="rgb(204, 204, 204)" stroke-width="1px"></line><line x1="121.48567708333333" y1="0" x2="121.48567708333333" y2="5" style="visibility: inherit;" fill="rgb(0, 0, 0)" stroke="rgb(204, 204, 204)" stroke-width="1px"></line><line x1="242.97135416666666" y1="0" x2="242.97135416666666" y2="5" style="visibility: inherit;" fill="rgb(0, 0, 0)" stroke="rgb(204, 204, 204)" stroke-width="1px"></line><line x1="364.45703125" y1="0" x2="364.45703125" y2="5" style="visibility: inherit;" fill="rgb(0, 0, 0)" stroke="rgb(204, 204, 204)" stroke-width="1px"></line><line x1="485.9427083333333" y1="0" x2="485.9427083333333" y2="5" style="visibility: inherit;" fill="rgb(0, 0, 0)" stroke="rgb(204, 204, 204)" stroke-width="1px"></line><line x1="607.4283854166667" y1="0" x2="607.4283854166667" y2="5" style="visibility: inherit;" fill="rgb(0, 0, 0)" stroke="rgb(204, 204, 204)" stroke-width="1px"></line><line x1="728.9140625" y1="0" x2="728.9140625" y2="5" style="visibility: inherit;" fill="rgb(0, 0, 0)" stroke="rgb(204, 204, 204)" stroke-width="1px"></line><line x1="850.3997395833334" y1="0" x2="850.3997395833334" y2="5" style="visibility: inherit;" fill="rgb(0, 0, 0)" stroke="rgb(204, 204, 204)" stroke-width="1px"></line><line x1="971.8854166666666" y1="0" x2="971.8854166666666" y2="5" style="visibility: inherit;" fill="rgb(0, 0, 0)" stroke="rgb(204, 204, 204)" stroke-width="1px"></line><line x1="1093.37109375" y1="0" x2="1093.37109375" y2="5" style="visibility: inherit;" fill="rgb(0, 0, 0)" stroke="rgb(204, 204, 204)" stroke-width="1px"></line><line x1="1214.8567708333335" y1="0" x2="1214.8567708333335" y2="5" style="visibility: inherit;" fill="rgb(0, 0, 0)" stroke="rgb(204, 204, 204)" stroke-width="1px"></line><line x1="1336.3424479166665" y1="0" x2="1336.3424479166665" y2="5" style="visibility: inherit;" fill="rgb(0, 0, 0)" stroke="rgb(204, 204, 204)" stroke-width="1px"></line><line x1="1457.828125" y1="0" x2="1457.828125" y2="5" style="visibility: inherit;" fill="rgb(0, 0, 0)" stroke="rgb(204, 204, 204)" stroke-width="1px"></line></g><g transform="translate(0, 8)"><text x="0" y="0" dx="0em" dy="0.95em" style="text-anchor: middle; visibility: hidden; font-family: Roboto, sans-serif; font-size: 12px; font-weight: 200;" fill="rgb(50, 49, 63)" stroke="none" stroke-width="1px">-5</text><text x="121.48567708333333" y="0" dx="0em" dy="0.95em" style="text-anchor: middle; visibility: inherit; font-family: Roboto, sans-serif; font-size: 12px; font-weight: 200;" fill="rgb(50, 49, 63)" stroke="none" stroke-width="1px">0</text><text x="242.97135416666666" y="0" dx="0em" dy="0.95em" style="text-anchor: middle; visibility: inherit; font-family: Roboto, sans-serif; font-size: 12px; font-weight: 200;" fill="rgb(50, 49, 63)" stroke="none" stroke-width="1px">5</text><text x="364.45703125" y="0" dx="0em" dy="0.95em" style="text-anchor: middle; visibility: inherit; font-family: Roboto, sans-serif; font-size: 12px; font-weight: 200;" fill="rgb(50, 49, 63)" stroke="none" stroke-width="1px">10</text><text x="485.9427083333333" y="0" dx="0em" dy="0.95em" style="text-anchor: middle; visibility: inherit; font-family: Roboto, sans-serif; font-size: 12px; font-weight: 200;" fill="rgb(50, 49, 63)" stroke="none" stroke-width="1px">15</text><text x="607.4283854166667" y="0" dx="0em" dy="0.95em" style="text-anchor: middle; visibility: inherit; font-family: Roboto, sans-serif; font-size: 12px; font-weight: 200;" fill="rgb(50, 49, 63)" stroke="none" stroke-width="1px">20</text><text x="728.9140625" y="0" dx="0em" dy="0.95em" style="text-anchor: middle; visibility: inherit; font-family: Roboto, sans-serif; font-size: 12px; font-weight: 200;" fill="rgb(50, 49, 63)" stroke="none" stroke-width="1px">25</text><text x="850.3997395833334" y="0" dx="0em" dy="0.95em" style="text-anchor: middle; visibility: inherit; font-family: Roboto, sans-serif; font-size: 12px; font-weight: 200;" fill="rgb(50, 49, 63)" stroke="none" stroke-width="1px">30</text><text x="971.8854166666666" y="0" dx="0em" dy="0.95em" style="text-anchor: middle; visibility: inherit; font-family: Roboto, sans-serif; font-size: 12px; font-weight: 200;" fill="rgb(50, 49, 63)" stroke="none" stroke-width="1px">35</text><text x="1093.37109375" y="0" dx="0em" dy="0.95em" style="text-anchor: middle; visibility: inherit; font-family: Roboto, sans-serif; font-size: 12px; font-weight: 200;" fill="rgb(50, 49, 63)" stroke="none" stroke-width="1px">40</text><text x="1214.8567708333335" y="0" dx="0em" dy="0.95em" style="text-anchor: middle; visibility: inherit; font-family: Roboto, sans-serif; font-size: 12px; font-weight: 200;" fill="rgb(50, 49, 63)" stroke="none" stroke-width="1px">45</text><text x="1336.3424479166665" y="0" dx="0em" dy="0.95em" style="text-anchor: middle; visibility: inherit; font-family: Roboto, sans-serif; font-size: 12px; font-weight: 200;" fill="rgb(50, 49, 63)" stroke="none" stroke-width="1px">50</text><text x="1457.828125" y="0" dx="0em" dy="0.95em" style="text-anchor: middle; visibility: hidden; font-family: Roboto, sans-serif; font-size: 12px; font-weight: 200;" fill="rgb(50, 49, 63)" stroke="none" stroke-width="1px">55</text></g><line x1="0" y1="0" x2="1457.828125" y2="0" fill="rgb(0, 0, 0)" stroke="rgb(204, 204, 204)" stroke-width="1px"></line></g></g></g></g></svg>