<svg viewBox="0 0 1117.800048828125 400" xmlns="http://www.w3.org/2000/svg"><g><g><g><g><g><line x1="50" y1="378" x2="45" y2="378" style="visibility: inherit;" fill="rgb(0, 0, 0)" stroke="rgb(204, 204, 204)" stroke-width="1px"></line><line x1="50" y1="324" x2="45" y2="324" style="visibility: inherit;" fill="rgb(0, 0, 0)" stroke="rgb(204, 204, 204)" stroke-width="1px"></line><line x1="50" y1="270" x2="45" y2="270" style="visibility: inherit;" fill="rgb(0, 0, 0)" stroke="rgb(204, 204, 204)" stroke-width="1px"></line><line x1="50" y1="216" x2="45" y2="216" style="visibility: inherit;" fill="rgb(0, 0, 0)" stroke="rgb(204, 204, 204)" stroke-width="1px"></line><line x1="50" y1="162" x2="45" y2="162" style="visibility: inherit;" fill="rgb(0, 0, 0)" stroke="rgb(204, 204, 204)" stroke-width="1px"></line><line x1="50" y1="108" x2="45" y2="108" style="visibility: inherit;" fill="rgb(0, 0, 0)" stroke="rgb(204, 204, 204)" stroke-width="1px"></line><line x1="50" y1="54.00000000000002" x2="45" y2="54.00000000000002" style="visibility: inherit;" fill="rgb(0, 0, 0)" stroke="rgb(204, 204, 204)" stroke-width="1px"></line><line x1="50" y1="0" x2="45" y2="0" style="visibility: inherit;" fill="rgb(0, 0, 0)" stroke="rgb(204, 204, 204)" stroke-width="1px"></line></g><g transform="translate(40, 0)"><text x="0" y="378" dx="0em" dy="0.3em" style="text-anchor: end; visibility: hidden; font-family: Roboto, sans-serif; font-size: 12px; font-weight: 200;" fill="rgb(50, 49, 63)" stroke="none" stroke-width="1px">-0.5</text><text x="0" y="324" dx="0em" dy="0.3em" style="text-anchor: end; visibility: inherit; font-family: Roboto, sans-serif; font-size: 12px; font-weight: 200;" fill="rgb(50, 49, 63)" stroke="none" stroke-width="1px">0</text><text x="0" y="270" dx="0em" dy="0.3em" style="text-anchor: end; visibility: inherit; font-family: Roboto, sans-serif; font-size: 12px; font-weight: 200;" fill="rgb(50, 49, 63)" stroke="none" stroke-width="1px">0.5</text><text x="0" y="216" dx="0em" dy="0.3em" style="text-anchor: end; visibility: inherit; font-family: Roboto, sans-serif; font-size: 12px; font-weight: 200;" fill="rgb(50, 49, 63)" stroke="none" stroke-width="1px">1</text><text x="0" y="162" dx="0em" dy="0.3em" style="text-anchor: end; visibility: inherit; font-family: Roboto, sans-serif; font-size: 12px; font-weight: 200;" fill="rgb(50, 49, 63)" stroke="none" stroke-width="1px">1.5</text><text x="0" y="108" dx="0em" dy="0.3em" style="text-anchor: end; visibility: inherit; font-family: Roboto, sans-serif; font-size: 12px; font-weight: 200;" fill="rgb(50, 49, 63)" stroke="none" stroke-width="1px">2</text><text x="0" y="54.00000000000002" dx="0em" dy="0.3em" style="text-anchor: end; visibility: inherit; font-family: Roboto, sans-serif; font-size: 12px; font-weight: 200;" fill="rgb(50, 49, 63)" stroke="none" stroke-width="1px">2.5</text><text x="0" y="0" dx="0em" dy="0.3em" style="text-anchor: end; visibility: hidden; font-family: Roboto, sans-serif; font-size: 12px; font-weight: 200;" fill="rgb(50, 49, 63)" stroke="none" stroke-width="1px">3</text></g><line x1="50" y1="0" x2="50" y2="378" fill="rgb(0, 0, 0)" stroke="rgb(204, 204, 204)" stroke-width="1px"></line></g></g><g transform="translate(50, 0)" clip-path="url(#clip_0)"><clipPath id="clip_0"><rect width="1067" height="378"></rect></clipPath><g><g><g><line x1="0" y1="0" x2="0" y2="378" fill="rgb(0, 0, 0)" stroke="rgb(60, 60, 60)" stroke-width="1px" opacity="0.25"></line><line x1="88.98333333333332" y1="0" x2="88.98333333333332" y2="378" fill="rgb(0, 0, 0)" stroke="rgb(60, 60, 60)" stroke-width="1px" opacity="0.25"></line><line x1="177.96666666666664" y1="0" x2="177.96666666666664" y2="378" fill="rgb(0, 0, 0)" stroke="rgb(60, 60, 60)" stroke-width="1px" opacity="0.25"></line><line x1="266.95" y1="0" x2="266.95" y2="378" fill="rgb(0, 0, 0)" stroke="rgb(60, 60, 60)" stroke-width="1px" opacity="0.25"></line><line x1="355.9333333333333" y1="0" x2="355.9333333333333" y2="378" fill="rgb(0, 0, 0)" stroke="rgb(60, 60, 60)" stroke-width="1px" opacity="0.25"></line><line x1="444.9166666666667" y1="0" x2="444.9166666666667" y2="378" fill="rgb(0, 0, 0)" stroke="rgb(60, 60, 60)" stroke-width="1px" opacity="0.25"></line><line x1="533.9" y1="0" x2="533.9" y2="378" fill="rgb(0, 0, 0)" stroke="rgb(60, 60, 60)" stroke-width="1px" opacity="0.25"></line><line x1="622.8833333333333" y1="0" x2="622.8833333333333" y2="378" fill="rgb(0, 0, 0)" stroke="rgb(60, 60, 60)" stroke-width="1px" opacity="0.25"></line><line x1="711.8666666666666" y1="0" x2="711.8666666666666" y2="378" fill="rgb(0, 0, 0)" stroke="rgb(60, 60, 60)" stroke-width="1px" opacity="0.25"></line><line x1="800.8499999999999" y1="0" x2="800.8499999999999" y2="378" fill="rgb(0, 0, 0)" stroke="rgb(60, 60, 60)" stroke-width="1px" opacity="0.25"></line><line x1="889.8333333333334" y1="0" x2="889.8333333333334" y2="378" fill="rgb(0, 0, 0)" stroke="rgb(60, 60, 60)" stroke-width="1px" opacity="0.25"></line><line x1="978.8166666666666" y1="0" x2="978.8166666666666" y2="378" fill="rgb(0, 0, 0)" stroke="rgb(60, 60, 60)" stroke-width="1px" opacity="0.25"></line><line x1="1067.8" y1="0" x2="1067.8" y2="378" fill="rgb(0, 0, 0)" stroke="rgb(60, 60, 60)" stroke-width="1px" opacity="0.25"></line></g><g><line x1="0" y1="378" x2="1067.8" y2="378" fill="rgb(0, 0, 0)" stroke="rgb(60, 60, 60)" stroke-width="1px" opacity="0.25"></line><line x1="0" y1="324" x2="1067.8" y2="324" fill="rgb(0, 0, 0)" stroke="rgb(60, 60, 60)" stroke-width="1px" opacity="0.25"></line><line x1="0" y1="270" x2="1067.8" y2="270" fill="rgb(0, 0, 0)" stroke="rgb(60, 60, 60)" stroke-width="1px" opacity="0.25"></line><line x1="0" y1="216" x2="1067.8" y2="216" fill="rgb(0, 0, 0)" stroke="rgb(60, 60, 60)" stroke-width="1px" opacity="0.25"></line><line x1="0" y1="162" x2="1067.8" y2="162" fill="rgb(0, 0, 0)" stroke="rgb(60, 60, 60)" stroke-width="1px" opacity="0.25"></line><line x1="0" y1="108" x2="1067.8" y2="108" fill="rgb(0, 0, 0)" stroke="rgb(60, 60, 60)" stroke-width="1px" opacity="0.25"></line><line x1="0" y1="54.00000000000002" x2="1067.8" y2="54.00000000000002" fill="rgb(0, 0, 0)" stroke="rgb(60, 60, 60)" stroke-width="1px" opacity="0.25"></line><line x1="0" y1="0" x2="1067.8" y2="0" fill="rgb(0, 0, 0)" stroke="rgb(60, 60, 60)" stroke-width="1px" opacity="0.25"></line></g></g></g><g><g><line x1="0" y1="324" x2="1067.8" y2="324" fill="rgb(0, 0, 0)" stroke="rgb(153, 153, 153)" stroke-width="1.5px"></line></g></g><g><g><line x1="88.98333333333332" y1="0" x2="88.98333333333332" y2="378" fill="rgb(0, 0, 0)" stroke="rgb(153, 153, 153)" stroke-width="1.5px"></line></g></g><g><g><g><g><g><path stroke="rgb(51, 187, 238)" stroke-width="2px" d="M88.98333333333332,117.83154916763307L106.78,122.2320499420166L124.57666666666667,122.19597530364989L142.37333333333333,120.11249113082887L160.17,117.27664089202881L177.96666666666664,114.42022991180419L195.76333333333332,110.7235836982727L213.56,107.3399705886841L231.35666666666665,105.19828033447266L249.15333333333334,101.58417320251466L266.95,99.36124420166016L284.74666666666667,96.69548034667967L302.5433333333333,94.24065399169923L320.34,91.99182128906249L338.13666666666666,88.80685043334961L355.9333333333333,86.93233394622804L373.72999999999996,83.63136291503905L391.52666666666664,81.11906433105469L409.3233333333333,79.50415134429932L427.12,77.2515335083008L444.9166666666667,75.41041374206542L462.7133333333333,73.7799482345581L480.51,71.66967201232909L498.3066666666667,69.93605518341064L516.1033333333334,67.43732643127441L533.9,66.09877967834474L551.6966666666667,63.96651363372801L569.4933333333333,62.35461330413819L587.2900000000001,60.20962715148925L605.0866666666666,58.50018882751464L622.8833333333333,57.051641464233406L640.68,55.76855850219729L658.4766666666667,54.00841999053953L676.2733333333333,50.915734291076646L694.07,49.43935203552245L711.8666666666666,49.182683944702134L729.6633333333333,46.68292522430418L747.4599999999999,46.44021320343017L765.2566666666667,44.494010925292976L783.0533333333333,44.272902488708496L800.8499999999999,41.81037712097166L818.6466666666666,40.74840259552002L836.4433333333333,38.9750032424927L854.24,37.926830291748026L872.0366666666666,38.19524002075195L889.8333333333334,35.98114299774172L907.6299999999999,35.50421619415285L925.4266666666666,34.88461303710936L943.2233333333332,31.84574317932127L961.02,31.985458374023438" style="fill: none;" fill="none"></path></g><g><path stroke="rgb(204, 51, 17)" stroke-width="2px" d="M88.98333333333332,82.54605960845947L106.78,132.2619194984436L124.57666666666667,148.56651020050052L142.37333333333333,159.18272781372073L160.17,166.56263065338135L177.96666666666664,172.01523113250735L195.76333333333332,176.4311556816101L213.56,179.7082443237305L231.35666666666665,182.82020330429074L249.15333333333334,184.78222846984863L266.95,186.82258272171023L284.74666666666667,189.4186820983887L302.5433333333333,190.87595844268802L320.34,192.12743425369263L338.13666666666666,193.30144357681274L355.9333333333333,194.16234254837036L373.72999999999996,195.58780574798584L391.52666666666664,196.85088157653811L409.3233333333333,196.83588266372678L427.12,197.66275405883786L444.9166666666667,198.2666244506836L462.7133333333333,199.67483568191528L480.51,199.47606468200684L498.3066666666667,200.51611375808713L516.1033333333334,200.97778415679932L533.9,201.20978450775144L551.6966666666667,202.11946535110474L569.4933333333333,201.96869087219238L587.2900000000001,203.1154317855835L605.0866666666666,202.9611039161682L622.8833333333333,203.53935384750363L640.68,203.22865104675296L658.4766666666667,203.80408143997195L676.2733333333333,203.7861084938049L694.07,203.54530191421506L711.8666666666666,204.43982934951782L729.6633333333333,204.4636731147766L747.4599999999999,204.88115787506104L765.2566666666667,204.96905279159543L783.0533333333333,205.1436324119568L800.8499999999999,205.22202587127683L818.6466666666666,205.5913853645325L836.4433333333333,206.11870336532593L854.24,205.9119758605957L872.0366666666666,206.1880459785461L889.8333333333334,206.84073686599731L907.6299999999999,206.8306303024292L925.4266666666666,206.25477504730227L943.2233333333332,206.88985347747803L961.02,206.32393741607666" style="fill: none;" fill="none"></path></g><g><path stroke="rgb(0, 119, 187)" stroke-width="2px" d="M88.98333333333332,117.72363424301147L106.78,122.43025445938112L124.57666666666667,122.88073682785036L142.37333333333333,119.55423545837404L160.17,117.19291734695435L177.96666666666664,114.52027845382692L195.76333333333332,111.57617855072021L213.56,108.09643077850342L231.35666666666665,104.410174369812L249.15333333333334,101.44144535064697L266.95,98.69547271728514L284.74666666666667,96.7017889022827L302.5433333333333,94.55711174011229L320.34,90.7975730895996L338.13666666666666,89.2718553543091L355.9333333333333,86.31821537017822L373.72999999999996,84.5086898803711L391.52666666666664,81.02039337158202L409.3233333333333,78.19179153442383L427.12,76.78567886352538L444.9166666666667,75.84724903106691L462.7133333333333,74.47018146514894L480.51,70.45008659362792L498.3066666666667,68.86599540710449L516.1033333333334,67.65578269958496L533.9,64.95847606658936L551.6966666666667,63.44552993774416L569.4933333333333,62.641691207885756L587.2900000000001,60.67169666290281L605.0866666666666,58.897808074951165L622.8833333333333,57.163830757141135L640.68,54.98047828674314L658.4766666666667,54.394452095031724L676.2733333333333,52.89134216308593L694.07,50.34165573120116L711.8666666666666,49.28274536132813L729.6633333333333,47.746650695800795L747.4599999999999,47.313446044921875L765.2566666666667,43.74074363708495L783.0533333333333,42.767346382141135L800.8499999999999,42.704157829284654L818.6466666666666,40.36837005615233L836.4433333333333,39.002220153808615L854.24,40.14754486083986L872.0366666666666,37.114468574523904L889.8333333333334,36.16313838958738L907.6299999999999,35.30090045928957L925.4266666666666,33.97306537628173L943.2233333333332,32.32362270355227L961.02,31.977579116821282" style="fill: none;" fill="none"></path></g><g><path stroke="rgb(255, 112, 67)" stroke-width="2px" d="M88.98333333333332,82.39532375335693L106.78,131.93341112136838L124.57666666666667,148.63826036453247L142.37333333333333,159.00539302825928L160.17,166.04647493362424L177.96666666666664,171.66868543624878L195.76333333333332,176.52054405212402L213.56,179.87655401229858L231.35666666666665,182.38967657089233L249.15333333333334,185.15763902664185L266.95,186.82020092010498L284.74666666666667,189.00307703018188L302.5433333333333,190.8249363899231L320.34,191.8125600814819L338.13666666666666,193.23565435409546L355.9333333333333,194.54524612426755L373.72999999999996,196.01269340515137L391.52666666666664,196.72226428985596L409.3233333333333,197.4886379241943L427.12,198.09353828430173L444.9166666666667,198.74561119079593L462.7133333333333,199.08902835845944L480.51,199.78506803512573L498.3066666666667,200.6081027984619L516.1033333333334,200.47848129272464L533.9,201.12768316268918L551.6966666666667,201.79443311691284L569.4933333333333,201.71718549728394L587.2900000000001,202.5369758605957L605.0866666666666,202.72412109375L622.8833333333333,202.952130317688L640.68,203.35649585723874L658.4766666666667,202.95308303833008L676.2733333333333,204.27000045776367L694.07,203.8138918876648L711.8666666666666,204.85939979553223L729.6633333333333,204.7090630531311L747.4599999999999,204.36411380767822L765.2566666666667,204.82087898254395L783.0533333333333,205.06467247009275L800.8499999999999,205.3626937866211L818.6466666666666,205.4993190765381L836.4433333333333,206.30029964447021L854.24,205.77844047546384L872.0366666666666,205.3543381690979L889.8333333333334,206.01149654388425L907.6299999999999,206.0452537536621L925.4266666666666,205.95226049423218L943.2233333333332,206.75155448913574L961.02,207.01038551330566" style="fill: none;" fill="none"></path></g></g></g></g></g><g><g opacity="0.00138571"><span fill="rgb(0, 0, 0)" stroke="none" stroke-width="1px">Alt + Scroll to Zoom</span></g></g></g><g transform="translate(50, 378)" clip-path="url(#clip_1)"><clipPath id="clip_1"><rect width="1067" height="22"></rect></clipPath><g><g><line x1="0" y1="0" x2="0" y2="5" style="visibility: inherit;" fill="rgb(0, 0, 0)" stroke="rgb(204, 204, 204)" stroke-width="1px"></line><line x1="88.98333333333332" y1="0" x2="88.98333333333332" y2="5" style="visibility: inherit;" fill="rgb(0, 0, 0)" stroke="rgb(204, 204, 204)" stroke-width="1px"></line><line x1="177.96666666666664" y1="0" x2="177.96666666666664" y2="5" style="visibility: inherit;" fill="rgb(0, 0, 0)" stroke="rgb(204, 204, 204)" stroke-width="1px"></line><line x1="266.95" y1="0" x2="266.95" y2="5" style="visibility: inherit;" fill="rgb(0, 0, 0)" stroke="rgb(204, 204, 204)" stroke-width="1px"></line><line x1="355.9333333333333" y1="0" x2="355.9333333333333" y2="5" style="visibility: inherit;" fill="rgb(0, 0, 0)" stroke="rgb(204, 204, 204)" stroke-width="1px"></line><line x1="444.9166666666667" y1="0" x2="444.9166666666667" y2="5" style="visibility: inherit;" fill="rgb(0, 0, 0)" stroke="rgb(204, 204, 204)" stroke-width="1px"></line><line x1="533.9" y1="0" x2="533.9" y2="5" style="visibility: inherit;" fill="rgb(0, 0, 0)" stroke="rgb(204, 204, 204)" stroke-width="1px"></line><line x1="622.8833333333333" y1="0" x2="622.8833333333333" y2="5" style="visibility: inherit;" fill="rgb(0, 0, 0)" stroke="rgb(204, 204, 204)" stroke-width="1px"></line><line x1="711.8666666666666" y1="0" x2="711.8666666666666" y2="5" style="visibility: inherit;" fill="rgb(0, 0, 0)" stroke="rgb(204, 204, 204)" stroke-width="1px"></line><line x1="800.8499999999999" y1="0" x2="800.8499999999999" y2="5" style="visibility: inherit;" fill="rgb(0, 0, 0)" stroke="rgb(204, 204, 204)" stroke-width="1px"></line><line x1="889.8333333333334" y1="0" x2="889.8333333333334" y2="5" style="visibility: inherit;" fill="rgb(0, 0, 0)" stroke="rgb(204, 204, 204)" stroke-width="1px"></line><line x1="978.8166666666666" y1="0" x2="978.8166666666666" y2="5" style="visibility: inherit;" fill="rgb(0, 0, 0)" stroke="rgb(204, 204, 204)" stroke-width="1px"></line><line x1="1067.8" y1="0" x2="1067.8" y2="5" style="visibility: inherit;" fill="rgb(0, 0, 0)" stroke="rgb(204, 204, 204)" stroke-width="1px"></line></g><g transform="translate(0, 8)"><text x="0" y="0" dx="0em" dy="0.95em" style="text-anchor: middle; visibility: hidden; font-family: Roboto, sans-serif; font-size: 12px; font-weight: 200;" fill="rgb(50, 49, 63)" stroke="none" stroke-width="1px">-5</text><text x="88.98333333333332" y="0" dx="0em" dy="0.95em" style="text-anchor: middle; visibility: inherit; font-family: Roboto, sans-serif; font-size: 12px; font-weight: 200;" fill="rgb(50, 49, 63)" stroke="none" stroke-width="1px">0</text><text x="177.96666666666664" y="0" dx="0em" dy="0.95em" style="text-anchor: middle; visibility: inherit; font-family: Roboto, sans-serif; font-size: 12px; font-weight: 200;" fill="rgb(50, 49, 63)" stroke="none" stroke-width="1px">5</text><text x="266.95" y="0" dx="0em" dy="0.95em" style="text-anchor: middle; visibility: inherit; font-family: Roboto, sans-serif; font-size: 12px; font-weight: 200;" fill="rgb(50, 49, 63)" stroke="none" stroke-width="1px">10</text><text x="355.9333333333333" y="0" dx="0em" dy="0.95em" style="text-anchor: middle; visibility: inherit; font-family: Roboto, sans-serif; font-size: 12px; font-weight: 200;" fill="rgb(50, 49, 63)" stroke="none" stroke-width="1px">15</text><text x="444.9166666666667" y="0" dx="0em" dy="0.95em" style="text-anchor: middle; visibility: inherit; font-family: Roboto, sans-serif; font-size: 12px; font-weight: 200;" fill="rgb(50, 49, 63)" stroke="none" stroke-width="1px">20</text><text x="533.9" y="0" dx="0em" dy="0.95em" style="text-anchor: middle; visibility: inherit; font-family: Roboto, sans-serif; font-size: 12px; font-weight: 200;" fill="rgb(50, 49, 63)" stroke="none" stroke-width="1px">25</text><text x="622.8833333333333" y="0" dx="0em" dy="0.95em" style="text-anchor: middle; visibility: inherit; font-family: Roboto, sans-serif; font-size: 12px; font-weight: 200;" fill="rgb(50, 49, 63)" stroke="none" stroke-width="1px">30</text><text x="711.8666666666666" y="0" dx="0em" dy="0.95em" style="text-anchor: middle; visibility: inherit; font-family: Roboto, sans-serif; font-size: 12px; font-weight: 200;" fill="rgb(50, 49, 63)" stroke="none" stroke-width="1px">35</text><text x="800.8499999999999" y="0" dx="0em" dy="0.95em" style="text-anchor: middle; visibility: inherit; font-family: Roboto, sans-serif; font-size: 12px; font-weight: 200;" fill="rgb(50, 49, 63)" stroke="none" stroke-width="1px">40</text><text x="889.8333333333334" y="0" dx="0em" dy="0.95em" style="text-anchor: middle; visibility: inherit; font-family: Roboto, sans-serif; font-size: 12px; font-weight: 200;" fill="rgb(50, 49, 63)" stroke="none" stroke-width="1px">45</text><text x="978.8166666666666" y="0" dx="0em" dy="0.95em" style="text-anchor: middle; visibility: inherit; font-family: Roboto, sans-serif; font-size: 12px; font-weight: 200;" fill="rgb(50, 49, 63)" stroke="none" stroke-width="1px">50</text><text x="1067.8" y="0" dx="0em" dy="0.95em" style="text-anchor: middle; visibility: hidden; font-family: Roboto, sans-serif; font-size: 12px; font-weight: 200;" fill="rgb(50, 49, 63)" stroke="none" stroke-width="1px">55</text></g><line x1="0" y1="0" x2="1067.8" y2="0" fill="rgb(0, 0, 0)" stroke="rgb(204, 204, 204)" stroke-width="1px"></line></g></g></g></g></svg>