<svg viewBox="0 0 1499 400" xmlns="http://www.w3.org/2000/svg"><g><g><g><g><g><line x1="50" y1="378" x2="45" y2="378" style="visibility: inherit;" fill="rgb(0, 0, 0)" stroke="rgb(204, 204, 204)" stroke-width="1px"></line><line x1="50" y1="350.99999999999994" x2="45" y2="350.99999999999994" style="visibility: inherit;" fill="rgb(0, 0, 0)" stroke="rgb(204, 204, 204)" stroke-width="1px"></line><line x1="50" y1="323.99999999999994" x2="45" y2="323.99999999999994" style="visibility: inherit;" fill="rgb(0, 0, 0)" stroke="rgb(204, 204, 204)" stroke-width="1px"></line><line x1="50" y1="297" x2="45" y2="297" style="visibility: inherit;" fill="rgb(0, 0, 0)" stroke="rgb(204, 204, 204)" stroke-width="1px"></line><line x1="50" y1="269.99999999999994" x2="45" y2="269.99999999999994" style="visibility: inherit;" fill="rgb(0, 0, 0)" stroke="rgb(204, 204, 204)" stroke-width="1px"></line><line x1="50" y1="242.99999999999994" x2="45" y2="242.99999999999994" style="visibility: inherit;" fill="rgb(0, 0, 0)" stroke="rgb(204, 204, 204)" stroke-width="1px"></line><line x1="50" y1="216" x2="45" y2="216" style="visibility: inherit;" fill="rgb(0, 0, 0)" stroke="rgb(204, 204, 204)" stroke-width="1px"></line><line x1="50" y1="188.99999999999997" x2="45" y2="188.99999999999997" style="visibility: inherit;" fill="rgb(0, 0, 0)" stroke="rgb(204, 204, 204)" stroke-width="1px"></line><line x1="50" y1="161.99999999999991" x2="45" y2="161.99999999999991" style="visibility: inherit;" fill="rgb(0, 0, 0)" stroke="rgb(204, 204, 204)" stroke-width="1px"></line><line x1="50" y1="134.99999999999997" x2="45" y2="134.99999999999997" style="visibility: inherit;" fill="rgb(0, 0, 0)" stroke="rgb(204, 204, 204)" stroke-width="1px"></line><line x1="50" y1="107.99999999999996" x2="45" y2="107.99999999999996" style="visibility: inherit;" fill="rgb(0, 0, 0)" stroke="rgb(204, 204, 204)" stroke-width="1px"></line><line x1="50" y1="80.99999999999993" x2="45" y2="80.99999999999993" style="visibility: inherit;" fill="rgb(0, 0, 0)" stroke="rgb(204, 204, 204)" stroke-width="1px"></line><line x1="50" y1="53.99999999999989" x2="45" y2="53.99999999999989" style="visibility: inherit;" fill="rgb(0, 0, 0)" stroke="rgb(204, 204, 204)" stroke-width="1px"></line><line x1="50" y1="26.99999999999986" x2="45" y2="26.99999999999986" style="visibility: inherit;" fill="rgb(0, 0, 0)" stroke="rgb(204, 204, 204)" stroke-width="1px"></line></g><g transform="translate(40, 0)"><text x="0" y="378" dx="0em" dy="0.3em" style="text-anchor: end; visibility: hidden; font-family: Roboto, sans-serif; font-size: 12px; font-weight: 200;" fill="rgb(50, 49, 63)" stroke="none" stroke-width="1px">0.3</text><text x="0" y="350.99999999999994" dx="0em" dy="0.3em" style="text-anchor: end; visibility: inherit; font-family: Roboto, sans-serif; font-size: 12px; font-weight: 200;" fill="rgb(50, 49, 63)" stroke="none" stroke-width="1px">0.32</text><text x="0" y="323.99999999999994" dx="0em" dy="0.3em" style="text-anchor: end; visibility: inherit; font-family: Roboto, sans-serif; font-size: 12px; font-weight: 200;" fill="rgb(50, 49, 63)" stroke="none" stroke-width="1px">0.34</text><text x="0" y="297" dx="0em" dy="0.3em" style="text-anchor: end; visibility: inherit; font-family: Roboto, sans-serif; font-size: 12px; font-weight: 200;" fill="rgb(50, 49, 63)" stroke="none" stroke-width="1px">0.36</text><text x="0" y="269.99999999999994" dx="0em" dy="0.3em" style="text-anchor: end; visibility: inherit; font-family: Roboto, sans-serif; font-size: 12px; font-weight: 200;" fill="rgb(50, 49, 63)" stroke="none" stroke-width="1px">0.38</text><text x="0" y="242.99999999999994" dx="0em" dy="0.3em" style="text-anchor: end; visibility: inherit; font-family: Roboto, sans-serif; font-size: 12px; font-weight: 200;" fill="rgb(50, 49, 63)" stroke="none" stroke-width="1px">0.4</text><text x="0" y="216" dx="0em" dy="0.3em" style="text-anchor: end; visibility: inherit; font-family: Roboto, sans-serif; font-size: 12px; font-weight: 200;" fill="rgb(50, 49, 63)" stroke="none" stroke-width="1px">0.42</text><text x="0" y="188.99999999999997" dx="0em" dy="0.3em" style="text-anchor: end; visibility: inherit; font-family: Roboto, sans-serif; font-size: 12px; font-weight: 200;" fill="rgb(50, 49, 63)" stroke="none" stroke-width="1px">0.44</text><text x="0" y="161.99999999999991" dx="0em" dy="0.3em" style="text-anchor: end; visibility: inherit; font-family: Roboto, sans-serif; font-size: 12px; font-weight: 200;" fill="rgb(50, 49, 63)" stroke="none" stroke-width="1px">0.46</text><text x="0" y="134.99999999999997" dx="0em" dy="0.3em" style="text-anchor: end; visibility: inherit; font-family: Roboto, sans-serif; font-size: 12px; font-weight: 200;" fill="rgb(50, 49, 63)" stroke="none" stroke-width="1px">0.48</text><text x="0" y="107.99999999999996" dx="0em" dy="0.3em" style="text-anchor: end; visibility: inherit; font-family: Roboto, sans-serif; font-size: 12px; font-weight: 200;" fill="rgb(50, 49, 63)" stroke="none" stroke-width="1px">0.5</text><text x="0" y="80.99999999999993" dx="0em" dy="0.3em" style="text-anchor: end; visibility: inherit; font-family: Roboto, sans-serif; font-size: 12px; font-weight: 200;" fill="rgb(50, 49, 63)" stroke="none" stroke-width="1px">0.52</text><text x="0" y="53.99999999999989" dx="0em" dy="0.3em" style="text-anchor: end; visibility: inherit; font-family: Roboto, sans-serif; font-size: 12px; font-weight: 200;" fill="rgb(50, 49, 63)" stroke="none" stroke-width="1px">0.54</text><text x="0" y="26.99999999999986" dx="0em" dy="0.3em" style="text-anchor: end; visibility: inherit; font-family: Roboto, sans-serif; font-size: 12px; font-weight: 200;" fill="rgb(50, 49, 63)" stroke="none" stroke-width="1px">0.56</text></g><line x1="50" y1="0" x2="50" y2="378" fill="rgb(0, 0, 0)" stroke="rgb(204, 204, 204)" stroke-width="1px"></line></g></g><g transform="translate(50, 0)" clip-path="url(#clip_0)"><clipPath id="clip_0"><rect width="1449" height="378"></rect></clipPath><g><g><g><line x1="0" y1="0" x2="0" y2="378" fill="rgb(0, 0, 0)" stroke="rgb(60, 60, 60)" stroke-width="1px" opacity="0.25"></line><line x1="103.5" y1="0" x2="103.5" y2="378" fill="rgb(0, 0, 0)" stroke="rgb(60, 60, 60)" stroke-width="1px" opacity="0.25"></line><line x1="207" y1="0" x2="207" y2="378" fill="rgb(0, 0, 0)" stroke="rgb(60, 60, 60)" stroke-width="1px" opacity="0.25"></line><line x1="310.5" y1="0" x2="310.5" y2="378" fill="rgb(0, 0, 0)" stroke="rgb(60, 60, 60)" stroke-width="1px" opacity="0.25"></line><line x1="414" y1="0" x2="414" y2="378" fill="rgb(0, 0, 0)" stroke="rgb(60, 60, 60)" stroke-width="1px" opacity="0.25"></line><line x1="517.5" y1="0" x2="517.5" y2="378" fill="rgb(0, 0, 0)" stroke="rgb(60, 60, 60)" stroke-width="1px" opacity="0.25"></line><line x1="621" y1="0" x2="621" y2="378" fill="rgb(0, 0, 0)" stroke="rgb(60, 60, 60)" stroke-width="1px" opacity="0.25"></line><line x1="724.5" y1="0" x2="724.5" y2="378" fill="rgb(0, 0, 0)" stroke="rgb(60, 60, 60)" stroke-width="1px" opacity="0.25"></line><line x1="828" y1="0" x2="828" y2="378" fill="rgb(0, 0, 0)" stroke="rgb(60, 60, 60)" stroke-width="1px" opacity="0.25"></line><line x1="931.5000000000001" y1="0" x2="931.5000000000001" y2="378" fill="rgb(0, 0, 0)" stroke="rgb(60, 60, 60)" stroke-width="1px" opacity="0.25"></line><line x1="1035" y1="0" x2="1035" y2="378" fill="rgb(0, 0, 0)" stroke="rgb(60, 60, 60)" stroke-width="1px" opacity="0.25"></line><line x1="1138.5" y1="0" x2="1138.5" y2="378" fill="rgb(0, 0, 0)" stroke="rgb(60, 60, 60)" stroke-width="1px" opacity="0.25"></line><line x1="1242" y1="0" x2="1242" y2="378" fill="rgb(0, 0, 0)" stroke="rgb(60, 60, 60)" stroke-width="1px" opacity="0.25"></line><line x1="1345.5" y1="0" x2="1345.5" y2="378" fill="rgb(0, 0, 0)" stroke="rgb(60, 60, 60)" stroke-width="1px" opacity="0.25"></line><line x1="1449" y1="0" x2="1449" y2="378" fill="rgb(0, 0, 0)" stroke="rgb(60, 60, 60)" stroke-width="1px" opacity="0.25"></line></g><g><line x1="0" y1="378" x2="1449" y2="378" fill="rgb(0, 0, 0)" stroke="rgb(60, 60, 60)" stroke-width="1px" opacity="0.25"></line><line x1="0" y1="350.99999999999994" x2="1449" y2="350.99999999999994" fill="rgb(0, 0, 0)" stroke="rgb(60, 60, 60)" stroke-width="1px" opacity="0.25"></line><line x1="0" y1="323.99999999999994" x2="1449" y2="323.99999999999994" fill="rgb(0, 0, 0)" stroke="rgb(60, 60, 60)" stroke-width="1px" opacity="0.25"></line><line x1="0" y1="297" x2="1449" y2="297" fill="rgb(0, 0, 0)" stroke="rgb(60, 60, 60)" stroke-width="1px" opacity="0.25"></line><line x1="0" y1="269.99999999999994" x2="1449" y2="269.99999999999994" fill="rgb(0, 0, 0)" stroke="rgb(60, 60, 60)" stroke-width="1px" opacity="0.25"></line><line x1="0" y1="242.99999999999994" x2="1449" y2="242.99999999999994" fill="rgb(0, 0, 0)" stroke="rgb(60, 60, 60)" stroke-width="1px" opacity="0.25"></line><line x1="0" y1="216" x2="1449" y2="216" fill="rgb(0, 0, 0)" stroke="rgb(60, 60, 60)" stroke-width="1px" opacity="0.25"></line><line x1="0" y1="188.99999999999997" x2="1449" y2="188.99999999999997" fill="rgb(0, 0, 0)" stroke="rgb(60, 60, 60)" stroke-width="1px" opacity="0.25"></line><line x1="0" y1="161.99999999999991" x2="1449" y2="161.99999999999991" fill="rgb(0, 0, 0)" stroke="rgb(60, 60, 60)" stroke-width="1px" opacity="0.25"></line><line x1="0" y1="134.99999999999997" x2="1449" y2="134.99999999999997" fill="rgb(0, 0, 0)" stroke="rgb(60, 60, 60)" stroke-width="1px" opacity="0.25"></line><line x1="0" y1="107.99999999999996" x2="1449" y2="107.99999999999996" fill="rgb(0, 0, 0)" stroke="rgb(60, 60, 60)" stroke-width="1px" opacity="0.25"></line><line x1="0" y1="80.99999999999993" x2="1449" y2="80.99999999999993" fill="rgb(0, 0, 0)" stroke="rgb(60, 60, 60)" stroke-width="1px" opacity="0.25"></line><line x1="0" y1="53.99999999999989" x2="1449" y2="53.99999999999989" fill="rgb(0, 0, 0)" stroke="rgb(60, 60, 60)" stroke-width="1px" opacity="0.25"></line><line x1="0" y1="26.99999999999986" x2="1449" y2="26.99999999999986" fill="rgb(0, 0, 0)" stroke="rgb(60, 60, 60)" stroke-width="1px" opacity="0.25"></line></g></g></g><g><g><line x1="0" y1="782.9999999999999" x2="1449" y2="782.9999999999999" fill="rgb(0, 0, 0)" stroke="rgb(153, 153, 153)" stroke-width="1.5px"></line></g></g><g><g><line x1="103.5" y1="0" x2="103.5" y2="378" fill="rgb(0, 0, 0)" stroke="rgb(153, 153, 153)" stroke-width="1.5px"></line></g></g><g><g><g><g><g><path stroke="rgb(0, 153, 136)" stroke-width="2px" d="M103.5,311.0433565378189L155.25,243.7482075691223L207,211.14725786447522L258.75,192.4863250851631L310.5,178.94715088605878L362.25,169.906161904335L414,160.8206750750541L465.75000000000006,152.9376359581947L517.5,149.19655787944788L569.25,142.6941992640495L621,139.71022832393643L672.75,135.2120028734207L724.5,131.7826511263847L776.25,130.84739166498179L828,127.99703496694559L879.7499999999999,126.1710138916969L931.5000000000001,122.34085965156552L983.25,121.00475746393201L1035,119.31235063076014L1086.75,117.26363915204998L1138.5,115.7939629554748L1190.25,114.01247996091838L1242,115.03681558370586L1293.75,113.12171834707256L1345.5,111.34027558565137" style="fill: none;" fill="none"></path></g><g><path stroke="rgb(51, 187, 238)" stroke-width="2px" d="M103.5,319.19358390569687L155.25,250.07245409488675L207,221.21258246898648L258.75,202.8188781738281L310.5,189.76958262920374L362.25,176.23040843009943L414,167.99110490083692L465.75000000000006,161.31055372953412L517.5,155.47626632452008L569.25,150.26543158292768L621,148.48394858837125L672.75,143.5849206447601L724.5,140.42279738187787L776.25,139.30938559770578L828,137.70605492591852L879.7499999999999,134.90023630857465L931.5000000000001,132.85152482986445L983.25,130.75831550359723L1035,128.1306492090225L1086.75,125.54752099514005L1138.5,125.72567331790918L1190.25,124.74583554267879L1242,122.07363116741176L1293.75,120.29214817285532L1345.5,119.5795791149139" style="fill: none;" fill="none"></path></g><g><path stroke="rgb(0, 119, 187)" stroke-width="2px" d="M103.5,317.5902532339096L155.25,247.22209739685056L207,219.65378987789154L258.75,200.32482612133023L310.5,188.47801852226252L362.25,178.368155837059L414,168.9709024429321L465.75000000000006,164.7844435572624L517.5,157.79216605424878L569.25,153.0267121195793L621,149.86458885669703L672.75,146.56889158487317L724.5,142.20428037643427L776.25,140.06649273633954L828,137.61697876453394L879.7499999999999,134.5884697437286L931.5000000000001,130.66923934221265L983.25,129.8675941228866L1035,128.26426345109934L1086.75,126.03739964962001L1138.5,126.70547086000437L1190.25,124.79037362337107L1242,124.52314513921732L1293.75,122.91981446743006L1345.5,123.49880951642984" style="fill: none;" fill="none"></path></g><g><path stroke="rgb(187, 187, 187)" stroke-width="2px" d="M103.5,320.17338144779205L155.25,251.36401820182797L207,218.36222577095032L258.75,197.96438831090924L310.5,186.29573303461072L362.25,176.76486539840695L414,169.14905476570124L465.75000000000006,162.91388440132138L517.5,156.9904806017875L569.25,152.26960498094556L621,147.72684144973752L672.75,143.18407791852945L724.5,139.71022832393643L776.25,138.4186642169952L828,136.28087657690045L879.7499999999999,133.96497684717176L931.5000000000001,132.09441769123075L983.25,131.20369631052012L1035,130.09024429321286L1086.75,127.19534951448438L1138.5,127.37350183725351L1190.25,126.1710138916969L1242,124.12234264612192L1293.75,123.72149991989131L1345.5,121.40560019016262" style="fill: none;" fill="none"></path></g><g><path stroke="rgb(238, 51, 119)" stroke-width="2px" d="M103.5,317.4121009111404L155.25,248.95904231071466L207,216.35809260606763L258.75,197.6971598267555L310.5,182.68822896480555L362.25,170.7969235181808L414,162.95842248201367L465.75000000000006,159.08373016119L517.5,154.6745808720588L569.25,149.37471020221707L621,146.61342966556543L672.75,141.93705189228055L724.5,139.88838064670557L776.25,133.697748363018L828,132.67341274023053L879.7499999999999,129.68944180011746L931.5000000000001,128.21972537040708L983.25,126.12647581100458L1035,123.81057608127588L1086.75,122.60808813571927L1138.5,122.42993581295009L1190.25,119.84680759906765L1242,119.35688871145243L1293.75,118.73335558176035L1345.5,117.6644818782806" style="fill: none;" fill="none"></path></g><g><path stroke="rgb(204, 51, 17)" stroke-width="2px" d="M103.5,306.5005930066108L155.25,240.2743579745292L207,209.63300335407254L258.75,190.03681111335752L310.5,177.16566789150235L362.25,167.59026217460627L414,159.1282682418823L465.75000000000006,152.13599073886866L517.5,147.45961296558377L569.25,142.07066613435742L621,137.4388264417648L672.75,134.6775459051132L724.5,133.5195960402488L776.25,128.66506594419474L828,126.92816126346584L879.7499999999999,124.12234264612192L931.5000000000001,121.45013827085491L983.25,120.87114322185512L1035,116.55107009410855L1086.75,116.59560817480083L1138.5,114.63597285747525L1190.25,113.16625642776485L1242,113.16625642776485L1293.75,112.63183969259259L1345.5,111.69653999805448" style="fill: none;" fill="none"></path></g><g><path stroke="rgb(255, 112, 67)" stroke-width="2px" d="M103.5,301.7351390719414L155.25,235.01898515224454L207,203.57602554559702L258.75,186.4293472766876L310.5,170.9305377602577L362.25,161.8004726171493L414,154.8081951141357L465.75000000000006,147.8159176111221L517.5,142.56058502197263L569.25,137.17159795761106L621,134.72208398580545L672.75,127.64073032140728L724.5,126.83908510208127L776.25,122.51901197433466L828,122.69716429710384L879.7499999999999,119.17873638868328L931.5000000000001,119.26781255006786L983.25,114.01247996091838L1035,113.9679418802261L1086.75,111.65200191736216L1138.5,110.22682356834407L1190.25,110.85035669803615L1242,107.95550215244289L1293.75,107.64369535446163L1345.5,107.64369535446163" style="fill: none;" fill="none"></path></g><g><path stroke="rgb(0, 153, 136)" stroke-width="2px" d="M103.5,295.0546281337738L155.25,226.3343410491943L207,193.8224272727966L258.75,174.71615391969678L310.5,160.10806578397748L362.25,150.17635542154306L414,142.6941992640495L465.75000000000006,136.369952738285L517.5,130.84739166498179L569.25,128.35333961248392L621,123.1870429515838L672.75,120.11399585008618L724.5,118.28801500797267L776.25,114.14609420299524L828,112.67637777328488L879.7499999999999,110.53859013319011L931.5000000000001,108.04453808069223L983.25,105.19414114952082L1035,102.9673175811767L1086.75,101.45310330390926L1138.5,100.47326552867887L1190.25,99.09262526035303L1242,96.10869455337519L1293.75,95.57423758506772L1345.5,95.88596391677851" style="fill: none;" fill="none"></path></g><g><path stroke="rgb(51, 187, 238)" stroke-width="2px" d="M103.5,287.4388175010681L155.25,224.419243812561L207,191.81829410791394L258.75,170.12885230779642L310.5,156.05522114038465L362.25,145.09917515516275L414,137.3052121996879L465.75000000000006,130.49108701944348L517.5,125.28029251098629L569.25,120.11399585008618L621,116.19476544857022L672.75,111.56292575597759L724.5,109.6478687524795L776.25,108.57899504899974L828,104.52611017227167L879.7499999999999,102.92281973361963L931.5000000000001,100.47326552867887L983.25,96.99937570095058L1035,96.5985732078552L1086.75,95.48516142368311L1138.5,93.65914034843442L1190.25,91.78862142562862L1242,90.80878365039823L1293.75,89.9626003503799L1345.5,88.93826472759243" style="fill: none;" fill="none"></path></g><g><path stroke="rgb(0, 119, 187)" stroke-width="2px" d="M103.5,269.089651286602L155.25,204.6894373297691L207,174.18169695138928L258.75,154.27373814582822L310.5,141.93705189228055L362.25,130.84739166498179L414,121.62825036048883L465.75000000000006,114.903201341629L517.5,108.89072138071056L569.25,105.951328754425L621,101.76482963562009L672.75,98.86997509002681L724.5,93.52556633949274L776.25,91.03143382072443L828,86.04332971572872L879.7499999999999,84.88542008399958L931.5000000000001,83.37112534046166L983.25,83.19297301769252L1035,80.92165160179134L1086.75,79.18470668792722L1138.5,77.93764042854306L1190.25,75.71081686019893L1242,75.17635989189144L1293.75,74.37467443943017L1345.5,74.95370972156518" style="fill: none;" fill="none"></path></g></g></g></g></g></g><g transform="translate(50, 378)" clip-path="url(#clip_1)"><clipPath id="clip_1"><rect width="1449" height="22"></rect></clipPath><g><g><line x1="0" y1="0" x2="0" y2="5" style="visibility: inherit;" fill="rgb(0, 0, 0)" stroke="rgb(204, 204, 204)" stroke-width="1px"></line><line x1="103.5" y1="0" x2="103.5" y2="5" style="visibility: inherit;" fill="rgb(0, 0, 0)" stroke="rgb(204, 204, 204)" stroke-width="1px"></line><line x1="207" y1="0" x2="207" y2="5" style="visibility: inherit;" fill="rgb(0, 0, 0)" stroke="rgb(204, 204, 204)" stroke-width="1px"></line><line x1="310.5" y1="0" x2="310.5" y2="5" style="visibility: inherit;" fill="rgb(0, 0, 0)" stroke="rgb(204, 204, 204)" stroke-width="1px"></line><line x1="414" y1="0" x2="414" y2="5" style="visibility: inherit;" fill="rgb(0, 0, 0)" stroke="rgb(204, 204, 204)" stroke-width="1px"></line><line x1="517.5" y1="0" x2="517.5" y2="5" style="visibility: inherit;" fill="rgb(0, 0, 0)" stroke="rgb(204, 204, 204)" stroke-width="1px"></line><line x1="621" y1="0" x2="621" y2="5" style="visibility: inherit;" fill="rgb(0, 0, 0)" stroke="rgb(204, 204, 204)" stroke-width="1px"></line><line x1="724.5" y1="0" x2="724.5" y2="5" style="visibility: inherit;" fill="rgb(0, 0, 0)" stroke="rgb(204, 204, 204)" stroke-width="1px"></line><line x1="828" y1="0" x2="828" y2="5" style="visibility: inherit;" fill="rgb(0, 0, 0)" stroke="rgb(204, 204, 204)" stroke-width="1px"></line><line x1="931.5000000000001" y1="0" x2="931.5000000000001" y2="5" style="visibility: inherit;" fill="rgb(0, 0, 0)" stroke="rgb(204, 204, 204)" stroke-width="1px"></line><line x1="1035" y1="0" x2="1035" y2="5" style="visibility: inherit;" fill="rgb(0, 0, 0)" stroke="rgb(204, 204, 204)" stroke-width="1px"></line><line x1="1138.5" y1="0" x2="1138.5" y2="5" style="visibility: inherit;" fill="rgb(0, 0, 0)" stroke="rgb(204, 204, 204)" stroke-width="1px"></line><line x1="1242" y1="0" x2="1242" y2="5" style="visibility: inherit;" fill="rgb(0, 0, 0)" stroke="rgb(204, 204, 204)" stroke-width="1px"></line><line x1="1345.5" y1="0" x2="1345.5" y2="5" style="visibility: inherit;" fill="rgb(0, 0, 0)" stroke="rgb(204, 204, 204)" stroke-width="1px"></line><line x1="1449" y1="0" x2="1449" y2="5" style="visibility: inherit;" fill="rgb(0, 0, 0)" stroke="rgb(204, 204, 204)" stroke-width="1px"></line></g><g transform="translate(0, 8)"><text x="0" y="0" dx="0em" dy="0.95em" style="text-anchor: middle; visibility: hidden; font-family: Roboto, sans-serif; font-size: 12px; font-weight: 200;" fill="rgb(50, 49, 63)" stroke="none" stroke-width="1px">-2</text><text x="103.5" y="0" dx="0em" dy="0.95em" style="text-anchor: middle; visibility: inherit; font-family: Roboto, sans-serif; font-size: 12px; font-weight: 200;" fill="rgb(50, 49, 63)" stroke="none" stroke-width="1px">0</text><text x="207" y="0" dx="0em" dy="0.95em" style="text-anchor: middle; visibility: inherit; font-family: Roboto, sans-serif; font-size: 12px; font-weight: 200;" fill="rgb(50, 49, 63)" stroke="none" stroke-width="1px">2</text><text x="310.5" y="0" dx="0em" dy="0.95em" style="text-anchor: middle; visibility: inherit; font-family: Roboto, sans-serif; font-size: 12px; font-weight: 200;" fill="rgb(50, 49, 63)" stroke="none" stroke-width="1px">4</text><text x="414" y="0" dx="0em" dy="0.95em" style="text-anchor: middle; visibility: inherit; font-family: Roboto, sans-serif; font-size: 12px; font-weight: 200;" fill="rgb(50, 49, 63)" stroke="none" stroke-width="1px">6</text><text x="517.5" y="0" dx="0em" dy="0.95em" style="text-anchor: middle; visibility: inherit; font-family: Roboto, sans-serif; font-size: 12px; font-weight: 200;" fill="rgb(50, 49, 63)" stroke="none" stroke-width="1px">8</text><text x="621" y="0" dx="0em" dy="0.95em" style="text-anchor: middle; visibility: inherit; font-family: Roboto, sans-serif; font-size: 12px; font-weight: 200;" fill="rgb(50, 49, 63)" stroke="none" stroke-width="1px">10</text><text x="724.5" y="0" dx="0em" dy="0.95em" style="text-anchor: middle; visibility: inherit; font-family: Roboto, sans-serif; font-size: 12px; font-weight: 200;" fill="rgb(50, 49, 63)" stroke="none" stroke-width="1px">12</text><text x="828" y="0" dx="0em" dy="0.95em" style="text-anchor: middle; visibility: inherit; font-family: Roboto, sans-serif; font-size: 12px; font-weight: 200;" fill="rgb(50, 49, 63)" stroke="none" stroke-width="1px">14</text><text x="931.5000000000001" y="0" dx="0em" dy="0.95em" style="text-anchor: middle; visibility: inherit; font-family: Roboto, sans-serif; font-size: 12px; font-weight: 200;" fill="rgb(50, 49, 63)" stroke="none" stroke-width="1px">16</text><text x="1035" y="0" dx="0em" dy="0.95em" style="text-anchor: middle; visibility: inherit; font-family: Roboto, sans-serif; font-size: 12px; font-weight: 200;" fill="rgb(50, 49, 63)" stroke="none" stroke-width="1px">18</text><text x="1138.5" y="0" dx="0em" dy="0.95em" style="text-anchor: middle; visibility: inherit; font-family: Roboto, sans-serif; font-size: 12px; font-weight: 200;" fill="rgb(50, 49, 63)" stroke="none" stroke-width="1px">20</text><text x="1242" y="0" dx="0em" dy="0.95em" style="text-anchor: middle; visibility: inherit; font-family: Roboto, sans-serif; font-size: 12px; font-weight: 200;" fill="rgb(50, 49, 63)" stroke="none" stroke-width="1px">22</text><text x="1345.5" y="0" dx="0em" dy="0.95em" style="text-anchor: middle; visibility: inherit; font-family: Roboto, sans-serif; font-size: 12px; font-weight: 200;" fill="rgb(50, 49, 63)" stroke="none" stroke-width="1px">24</text><text x="1449" y="0" dx="0em" dy="0.95em" style="text-anchor: middle; visibility: hidden; font-family: Roboto, sans-serif; font-size: 12px; font-weight: 200;" fill="rgb(50, 49, 63)" stroke="none" stroke-width="1px">26</text></g><line x1="0" y1="0" x2="1449" y2="0" fill="rgb(0, 0, 0)" stroke="rgb(204, 204, 204)" stroke-width="1px"></line></g></g></g></g></svg>