<svg viewBox="0 0 1499 400" xmlns="http://www.w3.org/2000/svg"><g><g><g><g><g><line x1="40" y1="378" x2="35" y2="378" style="visibility: inherit;" fill="rgb(0, 0, 0)" stroke="rgb(204, 204, 204)" stroke-width="1px"></line><line x1="40" y1="330.75" x2="35" y2="330.75" style="visibility: inherit;" fill="rgb(0, 0, 0)" stroke="rgb(204, 204, 204)" stroke-width="1px"></line><line x1="40" y1="283.5" x2="35" y2="283.5" style="visibility: inherit;" fill="rgb(0, 0, 0)" stroke="rgb(204, 204, 204)" stroke-width="1px"></line><line x1="40" y1="236.25" x2="35" y2="236.25" style="visibility: inherit;" fill="rgb(0, 0, 0)" stroke="rgb(204, 204, 204)" stroke-width="1px"></line><line x1="40" y1="189.00000000000003" x2="35" y2="189.00000000000003" style="visibility: inherit;" fill="rgb(0, 0, 0)" stroke="rgb(204, 204, 204)" stroke-width="1px"></line><line x1="40" y1="141.75" x2="35" y2="141.75" style="visibility: inherit;" fill="rgb(0, 0, 0)" stroke="rgb(204, 204, 204)" stroke-width="1px"></line><line x1="40" y1="94.50000000000009" x2="35" y2="94.50000000000009" style="visibility: inherit;" fill="rgb(0, 0, 0)" stroke="rgb(204, 204, 204)" stroke-width="1px"></line><line x1="40" y1="47.25000000000004" x2="35" y2="47.25000000000004" style="visibility: inherit;" fill="rgb(0, 0, 0)" stroke="rgb(204, 204, 204)" stroke-width="1px"></line><line x1="40" y1="0" x2="35" y2="0" style="visibility: inherit;" fill="rgb(0, 0, 0)" stroke="rgb(204, 204, 204)" stroke-width="1px"></line></g><g transform="translate(30, 0)"><text x="0" y="378" dx="0em" dy="0.3em" style="text-anchor: end; visibility: hidden; font-family: Roboto, sans-serif; font-size: 12px; font-weight: 200;" fill="rgb(50, 49, 63)" stroke="none" stroke-width="1px">1.6</text><text x="0" y="330.75" dx="0em" dy="0.3em" style="text-anchor: end; visibility: inherit; font-family: Roboto, sans-serif; font-size: 12px; font-weight: 200;" fill="rgb(50, 49, 63)" stroke="none" stroke-width="1px">1.8</text><text x="0" y="283.5" dx="0em" dy="0.3em" style="text-anchor: end; visibility: inherit; font-family: Roboto, sans-serif; font-size: 12px; font-weight: 200;" fill="rgb(50, 49, 63)" stroke="none" stroke-width="1px">2</text><text x="0" y="236.25" dx="0em" dy="0.3em" style="text-anchor: end; visibility: inherit; font-family: Roboto, sans-serif; font-size: 12px; font-weight: 200;" fill="rgb(50, 49, 63)" stroke="none" stroke-width="1px">2.2</text><text x="0" y="189.00000000000003" dx="0em" dy="0.3em" style="text-anchor: end; visibility: inherit; font-family: Roboto, sans-serif; font-size: 12px; font-weight: 200;" fill="rgb(50, 49, 63)" stroke="none" stroke-width="1px">2.4</text><text x="0" y="141.75" dx="0em" dy="0.3em" style="text-anchor: end; visibility: inherit; font-family: Roboto, sans-serif; font-size: 12px; font-weight: 200;" fill="rgb(50, 49, 63)" stroke="none" stroke-width="1px">2.6</text><text x="0" y="94.50000000000009" dx="0em" dy="0.3em" style="text-anchor: end; visibility: inherit; font-family: Roboto, sans-serif; font-size: 12px; font-weight: 200;" fill="rgb(50, 49, 63)" stroke="none" stroke-width="1px">2.8</text><text x="0" y="47.25000000000004" dx="0em" dy="0.3em" style="text-anchor: end; visibility: inherit; font-family: Roboto, sans-serif; font-size: 12px; font-weight: 200;" fill="rgb(50, 49, 63)" stroke="none" stroke-width="1px">3</text><text x="0" y="0" dx="0em" dy="0.3em" style="text-anchor: end; visibility: hidden; font-family: Roboto, sans-serif; font-size: 12px; font-weight: 200;" fill="rgb(50, 49, 63)" stroke="none" stroke-width="1px">3.2</text></g><line x1="40" y1="0" x2="40" y2="378" fill="rgb(0, 0, 0)" stroke="rgb(204, 204, 204)" stroke-width="1px"></line></g></g><g transform="translate(40, 0)" clip-path="url(#clip_0)"><clipPath id="clip_0"><rect width="1459" height="378"></rect></clipPath><g><g><g><line x1="0" y1="0" x2="0" y2="378" fill="rgb(0, 0, 0)" stroke="rgb(60, 60, 60)" stroke-width="1px" opacity="0.25"></line><line x1="104.21428571428571" y1="0" x2="104.21428571428571" y2="378" fill="rgb(0, 0, 0)" stroke="rgb(60, 60, 60)" stroke-width="1px" opacity="0.25"></line><line x1="208.42857142857142" y1="0" x2="208.42857142857142" y2="378" fill="rgb(0, 0, 0)" stroke="rgb(60, 60, 60)" stroke-width="1px" opacity="0.25"></line><line x1="312.6428571428571" y1="0" x2="312.6428571428571" y2="378" fill="rgb(0, 0, 0)" stroke="rgb(60, 60, 60)" stroke-width="1px" opacity="0.25"></line><line x1="416.85714285714283" y1="0" x2="416.85714285714283" y2="378" fill="rgb(0, 0, 0)" stroke="rgb(60, 60, 60)" stroke-width="1px" opacity="0.25"></line><line x1="521.0714285714286" y1="0" x2="521.0714285714286" y2="378" fill="rgb(0, 0, 0)" stroke="rgb(60, 60, 60)" stroke-width="1px" opacity="0.25"></line><line x1="625.2857142857142" y1="0" x2="625.2857142857142" y2="378" fill="rgb(0, 0, 0)" stroke="rgb(60, 60, 60)" stroke-width="1px" opacity="0.25"></line><line x1="729.5" y1="0" x2="729.5" y2="378" fill="rgb(0, 0, 0)" stroke="rgb(60, 60, 60)" stroke-width="1px" opacity="0.25"></line><line x1="833.7142857142857" y1="0" x2="833.7142857142857" y2="378" fill="rgb(0, 0, 0)" stroke="rgb(60, 60, 60)" stroke-width="1px" opacity="0.25"></line><line x1="937.9285714285714" y1="0" x2="937.9285714285714" y2="378" fill="rgb(0, 0, 0)" stroke="rgb(60, 60, 60)" stroke-width="1px" opacity="0.25"></line><line x1="1042.142857142857" y1="0" x2="1042.142857142857" y2="378" fill="rgb(0, 0, 0)" stroke="rgb(60, 60, 60)" stroke-width="1px" opacity="0.25"></line><line x1="1146.357142857143" y1="0" x2="1146.357142857143" y2="378" fill="rgb(0, 0, 0)" stroke="rgb(60, 60, 60)" stroke-width="1px" opacity="0.25"></line><line x1="1250.5714285714284" y1="0" x2="1250.5714285714284" y2="378" fill="rgb(0, 0, 0)" stroke="rgb(60, 60, 60)" stroke-width="1px" opacity="0.25"></line><line x1="1354.7857142857142" y1="0" x2="1354.7857142857142" y2="378" fill="rgb(0, 0, 0)" stroke="rgb(60, 60, 60)" stroke-width="1px" opacity="0.25"></line><line x1="1459" y1="0" x2="1459" y2="378" fill="rgb(0, 0, 0)" stroke="rgb(60, 60, 60)" stroke-width="1px" opacity="0.25"></line></g><g><line x1="0" y1="378" x2="1459" y2="378" fill="rgb(0, 0, 0)" stroke="rgb(60, 60, 60)" stroke-width="1px" opacity="0.25"></line><line x1="0" y1="330.75" x2="1459" y2="330.75" fill="rgb(0, 0, 0)" stroke="rgb(60, 60, 60)" stroke-width="1px" opacity="0.25"></line><line x1="0" y1="283.5" x2="1459" y2="283.5" fill="rgb(0, 0, 0)" stroke="rgb(60, 60, 60)" stroke-width="1px" opacity="0.25"></line><line x1="0" y1="236.25" x2="1459" y2="236.25" fill="rgb(0, 0, 0)" stroke="rgb(60, 60, 60)" stroke-width="1px" opacity="0.25"></line><line x1="0" y1="189.00000000000003" x2="1459" y2="189.00000000000003" fill="rgb(0, 0, 0)" stroke="rgb(60, 60, 60)" stroke-width="1px" opacity="0.25"></line><line x1="0" y1="141.75" x2="1459" y2="141.75" fill="rgb(0, 0, 0)" stroke="rgb(60, 60, 60)" stroke-width="1px" opacity="0.25"></line><line x1="0" y1="94.50000000000009" x2="1459" y2="94.50000000000009" fill="rgb(0, 0, 0)" stroke="rgb(60, 60, 60)" stroke-width="1px" opacity="0.25"></line><line x1="0" y1="47.25000000000004" x2="1459" y2="47.25000000000004" fill="rgb(0, 0, 0)" stroke="rgb(60, 60, 60)" stroke-width="1px" opacity="0.25"></line><line x1="0" y1="0" x2="1459" y2="0" fill="rgb(0, 0, 0)" stroke="rgb(60, 60, 60)" stroke-width="1px" opacity="0.25"></line></g></g></g><g><g><line x1="0" y1="756" x2="1459" y2="756" fill="rgb(0, 0, 0)" stroke="rgb(153, 153, 153)" stroke-width="1.5px"></line></g></g><g><g><line x1="104.21428571428571" y1="0" x2="104.21428571428571" y2="378" fill="rgb(0, 0, 0)" stroke="rgb(153, 153, 153)" stroke-width="1.5px"></line></g></g><g><g><g><g><g><path stroke="rgb(0, 153, 136)" stroke-width="2px" d="M104.21428571428571,80.89375233650212L156.32142857142856,163.78428643941882L208.42857142857142,198.7395424246788L260.5357142857143,218.67480343580246L312.6428571428571,232.1120268702507L364.75,241.4669389128685L416.85714285714283,249.26622873544693L468.9642857142857,255.36868607997894L521.0714285714286,259.9424452185631L573.1785714285714,264.23445975780487L625.2857142857142,267.6103819012642L677.3928571428571,271.06471037864685L729.5,273.8587245941162L781.6071428571429,275.8064348101616L833.7142857142857,278.231060564518L885.8214285714286,279.82385820150375L937.9285714285714,282.1148777604103L990.0357142857143,283.49498695135117L1042.142857142857,285.1185387969017L1094.25,286.3730119764805L1146.357142857143,287.74627751111984L1198.4642857142858,288.7337917685509L1250.5714285714284,289.58234882354736L1302.6785714285716,290.1673828661442L1354.7857142857142,291.4206168651581" style="fill: none;" fill="none"></path></g><g><path stroke="rgb(51, 187, 238)" stroke-width="2px" d="M104.21428571428571,74.93532156944279L156.32142857142856,158.0897448062897L208.42857142857142,193.02979266643524L260.5357142857143,212.87814205884933L312.6428571428571,225.9821949005127L364.75,235.73206758499146L416.85714285714283,243.29602575302124L468.9642857142857,249.14608454704285L521.0714285714286,254.25364887714386L573.1785714285714,258.6052004098892L625.2857142857142,261.35578697919846L677.3928571428571,264.84745985269547L729.5,267.6673842072487L781.6071428571429,269.7421104311943L833.7142857142857,271.6217783689499L885.8214285714286,274.4036260843277L937.9285714285714,275.90123212337494L990.0357142857143,277.0776650905609L1042.142857142857,278.9744562506676L1094.25,280.2474326491356L1146.357142857143,281.1230826973915L1198.4642857142858,282.1457446217537L1250.5714285714284,283.2594863176346L1302.6785714285716,284.2320459187031L1354.7857142857142,284.96873876452446" style="fill: none;" fill="none"></path></g><g><path stroke="rgb(0, 119, 187)" stroke-width="2px" d="M104.21428571428571,72.76771312952046L156.32142857142856,156.5251103639603L208.42857142857142,191.86614578962326L260.5357142857143,212.06760531663895L312.6428571428571,225.01833772659302L364.75,234.59866797924042L416.85714285714283,242.07210963964462L468.9642857142857,247.99612498283386L521.0714285714286,252.49587124586105L573.1785714285714,256.81976652145386L625.2857142857142,260.2041939496994L677.3928571428571,263.4240919947624L729.5,266.446340739727L781.6071428571429,268.8315943479538L833.7142857142857,270.51006442308426L885.8214285714286,273.10395097732544L937.9285714285714,274.5526657104492L990.0357142857143,276.2070280909538L1042.142857142857,277.84240847826004L1094.25,279.34345042705536L1146.357142857143,279.827688395977L1198.4642857142858,280.9980381131172L1250.5714285714284,281.7907757163048L1302.6785714285716,282.9147688150406L1354.7857142857142,283.0430240035057" style="fill: none;" fill="none"></path></g><g><path stroke="rgb(187, 187, 187)" stroke-width="2px" d="M104.21428571428571,73.49280273914341L156.32142857142856,156.88599354028705L208.42857142857142,192.02481722831726L260.5357142857143,211.96717536449432L312.6428571428571,224.79517257213593L364.75,234.50122332572937L416.85714285714283,241.67275553941727L468.9642857142857,247.8884289264679L521.0714285714286,252.54763519763947L573.1785714285714,256.9604698419571L625.2857142857142,260.79888796806335L677.3928571428571,263.8946989774704L729.5,266.56935757398605L781.6071428571429,268.67044454813004L833.7142857142857,271.0025260448456L885.8214285714286,272.7131021618843L937.9285714285714,274.8203850388527L990.0357142857143,275.64804500341415L1042.142857142857,277.1341604590416L1094.25,278.48024851083755L1146.357142857143,279.16174149513245L1198.4642857142858,280.57823753356934L1250.5714285714284,281.85172086954117L1302.6785714285716,282.3796681165695L1354.7857142857142,283.0146918296814" style="fill: none;" fill="none"></path></g><g><path stroke="rgb(238, 51, 119)" stroke-width="2px" d="M104.21428571428571,75.68530744314198L156.32142857142856,159.60098183155063L208.42857142857142,194.6706930398941L260.5357142857143,214.86629462242126L312.6428571428571,228.462640106678L364.75,238.5114369392395L416.85714285714283,245.49635982513428L468.9642857142857,251.45670568943024L521.0714285714286,255.81208741664886L573.1785714285714,260.22835797071457L625.2857142857142,263.2970759868622L677.3928571428571,266.97986429929733L729.5,269.65210086107254L781.6071428571429,272.42026126384735L833.7142857142857,274.0660620331764L885.8214285714286,275.8899668455124L937.9285714285714,277.7932918667793L990.0357142857143,279.75052124261856L1042.142857142857,281.06191223859787L1094.25,282.7136272788048L1146.357142857143,283.7011978626251L1198.4642857142858,284.8736879825592L1250.5714285714284,285.5813727378845L1302.6785714285716,286.6702744960785L1354.7857142857142,286.9008465707302" style="fill: none;" fill="none"></path></g><g><path stroke="rgb(204, 51, 17)" stroke-width="2px" d="M104.21428571428571,82.43135011196141L156.32142857142856,165.1692960262299L208.42857142857142,200.2073518037796L260.5357142857143,220.07135993242264L312.6428571428571,233.20216780900955L364.75,242.73732429742813L416.85714285714283,250.14801836013794L468.9642857142857,256.35265177488327L521.0714285714286,260.9934393167496L573.1785714285714,265.4512787461281L625.2857142857142,269.15316170454025L677.3928571428571,272.0677143931389L729.5,274.3674645423889L781.6071428571429,276.91955691576004L833.7142857142857,279.5442540049553L885.8214285714286,281.5185502767563L937.9285714285714,283.03001260757446L990.0357142857143,284.17667707800865L1042.142857142857,286.0735527276993L1094.25,287.20931804180145L1146.357142857143,288.56636157631874L1198.4642857142858,289.3368220925331L1250.5714285714284,290.03926849365234L1302.6785714285716,291.26248052716255L1354.7857142857142,291.91704949736595" style="fill: none;" fill="none"></path></g><g><path stroke="rgb(255, 112, 67)" stroke-width="2px" d="M104.21428571428571,86.46212285757069L156.32142857142856,168.56053894758227L208.42857142857142,204.11764240264893L260.5357142857143,224.00891250371933L312.6428571428571,237.25913232564926L364.75,246.6495863199234L416.85714285714283,254.0832052230835L468.9642857142857,260.329294860363L521.0714285714286,265.40824538469315L573.1785714285714,270.13166373968124L625.2857142857142,272.9724288582802L677.3928571428571,276.4513156414032L729.5,278.85239696502686L781.6071428571429,281.4121497273445L833.7142857142857,283.694241553545L885.8214285714286,285.433318823576L937.9285714285714,286.75279265642166L990.0357142857143,289.1813894212246L1042.142857142857,290.32033717632294L1094.25,291.665270537138L1146.357142857143,292.8576720356941L1198.4642857142858,293.85583198070526L1250.5714285714284,295.5564664900303L1302.6785714285716,296.44938057661057L1354.7857142857142,296.42834267020226" style="fill: none;" fill="none"></path></g><g><path stroke="rgb(0, 153, 136)" stroke-width="2px" d="M104.21428571428571,94.57041925191884L156.32142857142856,177.7582440376282L208.42857142857142,212.68499886989594L260.5357142857143,231.91482818126678L312.6428571428571,245.6608892083168L364.75,255.21080321073532L416.85714285714283,262.6863852739334L468.9642857142857,268.6345646381378L521.0714285714286,273.67239689826965L573.1785714285714,277.80050164461136L625.2857142857142,281.43715864419937L677.3928571428571,284.44236865639687L729.5,287.1700867116451L781.6071428571429,289.5705202817917L833.7142857142857,291.90136259794235L885.8214285714286,293.43267998099327L937.9285714285714,295.62143898010254L990.0357142857143,297.07432186603546L1042.142857142857,298.5100815296173L1094.25,299.77936854958534L1146.357142857143,301.1423826813698L1198.4642857142858,302.2994393706322L1250.5714285714284,303.3071748018265L1302.6785714285716,303.8952223062515L1354.7857142857142,304.4285768866539" style="fill: none;" fill="none"></path></g><g><path stroke="rgb(51, 187, 238)" stroke-width="2px" d="M104.21428571428571,102.66728138923649L156.32142857142856,184.47916513681415L208.42857142857142,218.45743989944458L260.5357142857143,238.19522058963776L312.6428571428571,251.2116858959198L364.75,260.99591767787933L416.85714285714283,268.4969592690468L468.9642857142857,274.31908017396927L521.0714285714286,279.2499486207962L573.1785714285714,283.1648579835892L625.2857142857142,286.7964737713337L677.3928571428571,290.1183225810528L729.5,292.3887548446655L781.6071428571429,294.89812365174294L833.7142857142857,296.98904371261597L885.8214285714286,298.6025976240635L937.9285714285714,300.3408299982548L990.0357142857143,302.09075009822845L1042.142857142857,303.34192818403244L1094.25,304.94441395998L1146.357142857143,305.459603279829L1198.4642857142858,307.14745169878006L1250.5714285714284,307.53097808361053L1302.6785714285716,308.1448230743408L1354.7857142857142,309.2587619125843" style="fill: none;" fill="none"></path></g><g><path stroke="rgb(0, 119, 187)" stroke-width="2px" d="M104.21428571428571,119.62439721822743L156.32142857142856,200.24565374851227L208.42857142857142,233.130745947361L260.5357142857143,252.11133098602295L312.6428571428571,264.86723041534424L364.75,273.97284185886383L416.85714285714283,281.0933986902237L468.9642857142857,286.87358459830284L521.0714285714286,291.468240827322L573.1785714285714,295.7848418354988L625.2857142857142,298.96288937330246L677.3928571428571,301.70806860923767L729.5,304.5747720301151L781.6071428571429,306.6854344904423L833.7142857142857,308.6808249950409L885.8214285714286,310.8679505288601L937.9285714285714,312.2685061991215L990.0357142857143,313.6198326051235L1042.142857142857,314.9127767086029L1094.25,316.3345111012459L1146.357142857143,317.32689759135246L1198.4642857142858,317.84377670288086L1250.5714285714284,318.77282416820526L1302.6785714285716,319.8593602180481L1354.7857142857142,320.1255024075508" style="fill: none;" fill="none"></path></g></g></g></g></g></g><g transform="translate(40, 378)" clip-path="url(#clip_1)"><clipPath id="clip_1"><rect width="1459" height="22"></rect></clipPath><g><g><line x1="0" y1="0" x2="0" y2="5" style="visibility: inherit;" fill="rgb(0, 0, 0)" stroke="rgb(204, 204, 204)" stroke-width="1px"></line><line x1="104.21428571428571" y1="0" x2="104.21428571428571" y2="5" style="visibility: inherit;" fill="rgb(0, 0, 0)" stroke="rgb(204, 204, 204)" stroke-width="1px"></line><line x1="208.42857142857142" y1="0" x2="208.42857142857142" y2="5" style="visibility: inherit;" fill="rgb(0, 0, 0)" stroke="rgb(204, 204, 204)" stroke-width="1px"></line><line x1="312.6428571428571" y1="0" x2="312.6428571428571" y2="5" style="visibility: inherit;" fill="rgb(0, 0, 0)" stroke="rgb(204, 204, 204)" stroke-width="1px"></line><line x1="416.85714285714283" y1="0" x2="416.85714285714283" y2="5" style="visibility: inherit;" fill="rgb(0, 0, 0)" stroke="rgb(204, 204, 204)" stroke-width="1px"></line><line x1="521.0714285714286" y1="0" x2="521.0714285714286" y2="5" style="visibility: inherit;" fill="rgb(0, 0, 0)" stroke="rgb(204, 204, 204)" stroke-width="1px"></line><line x1="625.2857142857142" y1="0" x2="625.2857142857142" y2="5" style="visibility: inherit;" fill="rgb(0, 0, 0)" stroke="rgb(204, 204, 204)" stroke-width="1px"></line><line x1="729.5" y1="0" x2="729.5" y2="5" style="visibility: inherit;" fill="rgb(0, 0, 0)" stroke="rgb(204, 204, 204)" stroke-width="1px"></line><line x1="833.7142857142857" y1="0" x2="833.7142857142857" y2="5" style="visibility: inherit;" fill="rgb(0, 0, 0)" stroke="rgb(204, 204, 204)" stroke-width="1px"></line><line x1="937.9285714285714" y1="0" x2="937.9285714285714" y2="5" style="visibility: inherit;" fill="rgb(0, 0, 0)" stroke="rgb(204, 204, 204)" stroke-width="1px"></line><line x1="1042.142857142857" y1="0" x2="1042.142857142857" y2="5" style="visibility: inherit;" fill="rgb(0, 0, 0)" stroke="rgb(204, 204, 204)" stroke-width="1px"></line><line x1="1146.357142857143" y1="0" x2="1146.357142857143" y2="5" style="visibility: inherit;" fill="rgb(0, 0, 0)" stroke="rgb(204, 204, 204)" stroke-width="1px"></line><line x1="1250.5714285714284" y1="0" x2="1250.5714285714284" y2="5" style="visibility: inherit;" fill="rgb(0, 0, 0)" stroke="rgb(204, 204, 204)" stroke-width="1px"></line><line x1="1354.7857142857142" y1="0" x2="1354.7857142857142" y2="5" style="visibility: inherit;" fill="rgb(0, 0, 0)" stroke="rgb(204, 204, 204)" stroke-width="1px"></line><line x1="1459" y1="0" x2="1459" y2="5" style="visibility: inherit;" fill="rgb(0, 0, 0)" stroke="rgb(204, 204, 204)" stroke-width="1px"></line></g><g transform="translate(0, 8)"><text x="0" y="0" dx="0em" dy="0.95em" style="text-anchor: middle; visibility: hidden; font-family: Roboto, sans-serif; font-size: 12px; font-weight: 200;" fill="rgb(50, 49, 63)" stroke="none" stroke-width="1px">-2</text><text x="104.21428571428571" y="0" dx="0em" dy="0.95em" style="text-anchor: middle; visibility: inherit; font-family: Roboto, sans-serif; font-size: 12px; font-weight: 200;" fill="rgb(50, 49, 63)" stroke="none" stroke-width="1px">0</text><text x="208.42857142857142" y="0" dx="0em" dy="0.95em" style="text-anchor: middle; visibility: inherit; font-family: Roboto, sans-serif; font-size: 12px; font-weight: 200;" fill="rgb(50, 49, 63)" stroke="none" stroke-width="1px">2</text><text x="312.6428571428571" y="0" dx="0em" dy="0.95em" style="text-anchor: middle; visibility: inherit; font-family: Roboto, sans-serif; font-size: 12px; font-weight: 200;" fill="rgb(50, 49, 63)" stroke="none" stroke-width="1px">4</text><text x="416.85714285714283" y="0" dx="0em" dy="0.95em" style="text-anchor: middle; visibility: inherit; font-family: Roboto, sans-serif; font-size: 12px; font-weight: 200;" fill="rgb(50, 49, 63)" stroke="none" stroke-width="1px">6</text><text x="521.0714285714286" y="0" dx="0em" dy="0.95em" style="text-anchor: middle; visibility: inherit; font-family: Roboto, sans-serif; font-size: 12px; font-weight: 200;" fill="rgb(50, 49, 63)" stroke="none" stroke-width="1px">8</text><text x="625.2857142857142" y="0" dx="0em" dy="0.95em" style="text-anchor: middle; visibility: inherit; font-family: Roboto, sans-serif; font-size: 12px; font-weight: 200;" fill="rgb(50, 49, 63)" stroke="none" stroke-width="1px">10</text><text x="729.5" y="0" dx="0em" dy="0.95em" style="text-anchor: middle; visibility: inherit; font-family: Roboto, sans-serif; font-size: 12px; font-weight: 200;" fill="rgb(50, 49, 63)" stroke="none" stroke-width="1px">12</text><text x="833.7142857142857" y="0" dx="0em" dy="0.95em" style="text-anchor: middle; visibility: inherit; font-family: Roboto, sans-serif; font-size: 12px; font-weight: 200;" fill="rgb(50, 49, 63)" stroke="none" stroke-width="1px">14</text><text x="937.9285714285714" y="0" dx="0em" dy="0.95em" style="text-anchor: middle; visibility: inherit; font-family: Roboto, sans-serif; font-size: 12px; font-weight: 200;" fill="rgb(50, 49, 63)" stroke="none" stroke-width="1px">16</text><text x="1042.142857142857" y="0" dx="0em" dy="0.95em" style="text-anchor: middle; visibility: inherit; font-family: Roboto, sans-serif; font-size: 12px; font-weight: 200;" fill="rgb(50, 49, 63)" stroke="none" stroke-width="1px">18</text><text x="1146.357142857143" y="0" dx="0em" dy="0.95em" style="text-anchor: middle; visibility: inherit; font-family: Roboto, sans-serif; font-size: 12px; font-weight: 200;" fill="rgb(50, 49, 63)" stroke="none" stroke-width="1px">20</text><text x="1250.5714285714284" y="0" dx="0em" dy="0.95em" style="text-anchor: middle; visibility: inherit; font-family: Roboto, sans-serif; font-size: 12px; font-weight: 200;" fill="rgb(50, 49, 63)" stroke="none" stroke-width="1px">22</text><text x="1354.7857142857142" y="0" dx="0em" dy="0.95em" style="text-anchor: middle; visibility: inherit; font-family: Roboto, sans-serif; font-size: 12px; font-weight: 200;" fill="rgb(50, 49, 63)" stroke="none" stroke-width="1px">24</text><text x="1459" y="0" dx="0em" dy="0.95em" style="text-anchor: middle; visibility: hidden; font-family: Roboto, sans-serif; font-size: 12px; font-weight: 200;" fill="rgb(50, 49, 63)" stroke="none" stroke-width="1px">26</text></g><line x1="0" y1="0" x2="1459" y2="0" fill="rgb(0, 0, 0)" stroke="rgb(204, 204, 204)" stroke-width="1px"></line></g></g></g></g></svg>