<svg viewBox="0 0 1117.800048828125 400" xmlns="http://www.w3.org/2000/svg"><g><g><g><g><g><line x1="60" y1="348.11971178421265" x2="55" y2="348.11971178421265" style="visibility: inherit;" fill="rgb(0, 0, 0)" stroke="rgb(204, 204, 204)" stroke-width="1px"></line><line x1="60" y1="307.1953644884319" x2="55" y2="307.1953644884319" style="visibility: inherit;" fill="rgb(0, 0, 0)" stroke="rgb(204, 204, 204)" stroke-width="1px"></line><line x1="60" y1="266.2710171926512" x2="55" y2="266.2710171926512" style="visibility: inherit;" fill="rgb(0, 0, 0)" stroke="rgb(204, 204, 204)" stroke-width="1px"></line><line x1="60" y1="225.3466698968704" x2="55" y2="225.3466698968704" style="visibility: inherit;" fill="rgb(0, 0, 0)" stroke="rgb(204, 204, 204)" stroke-width="1px"></line><line x1="60" y1="184.42232260108963" x2="55" y2="184.42232260108963" style="visibility: inherit;" fill="rgb(0, 0, 0)" stroke="rgb(204, 204, 204)" stroke-width="1px"></line><line x1="60" y1="143.4979753053089" x2="55" y2="143.4979753053089" style="visibility: inherit;" fill="rgb(0, 0, 0)" stroke="rgb(204, 204, 204)" stroke-width="1px"></line><line x1="60" y1="102.57362800952814" x2="55" y2="102.57362800952814" style="visibility: inherit;" fill="rgb(0, 0, 0)" stroke="rgb(204, 204, 204)" stroke-width="1px"></line><line x1="60" y1="61.649280713747416" x2="55" y2="61.649280713747416" style="visibility: inherit;" fill="rgb(0, 0, 0)" stroke="rgb(204, 204, 204)" stroke-width="1px"></line><line x1="60" y1="20.724933417966685" x2="55" y2="20.724933417966685" style="visibility: inherit;" fill="rgb(0, 0, 0)" stroke="rgb(204, 204, 204)" stroke-width="1px"></line></g><g transform="translate(50, 0)"><text x="0" y="348.11971178421265" dx="0em" dy="0.3em" style="text-anchor: end; visibility: inherit; font-family: Roboto, sans-serif; font-size: 12px; font-weight: 200;" fill="rgb(50, 49, 63)" stroke="none" stroke-width="1px">-0.05</text><text x="0" y="307.1953644884319" dx="0em" dy="0.3em" style="text-anchor: end; visibility: inherit; font-family: Roboto, sans-serif; font-size: 12px; font-weight: 200;" fill="rgb(50, 49, 63)" stroke="none" stroke-width="1px">0</text><text x="0" y="266.2710171926512" dx="0em" dy="0.3em" style="text-anchor: end; visibility: inherit; font-family: Roboto, sans-serif; font-size: 12px; font-weight: 200;" fill="rgb(50, 49, 63)" stroke="none" stroke-width="1px">0.05</text><text x="0" y="225.3466698968704" dx="0em" dy="0.3em" style="text-anchor: end; visibility: inherit; font-family: Roboto, sans-serif; font-size: 12px; font-weight: 200;" fill="rgb(50, 49, 63)" stroke="none" stroke-width="1px">0.1</text><text x="0" y="184.42232260108963" dx="0em" dy="0.3em" style="text-anchor: end; visibility: inherit; font-family: Roboto, sans-serif; font-size: 12px; font-weight: 200;" fill="rgb(50, 49, 63)" stroke="none" stroke-width="1px">0.15</text><text x="0" y="143.4979753053089" dx="0em" dy="0.3em" style="text-anchor: end; visibility: inherit; font-family: Roboto, sans-serif; font-size: 12px; font-weight: 200;" fill="rgb(50, 49, 63)" stroke="none" stroke-width="1px">0.2</text><text x="0" y="102.57362800952814" dx="0em" dy="0.3em" style="text-anchor: end; visibility: inherit; font-family: Roboto, sans-serif; font-size: 12px; font-weight: 200;" fill="rgb(50, 49, 63)" stroke="none" stroke-width="1px">0.25</text><text x="0" y="61.649280713747416" dx="0em" dy="0.3em" style="text-anchor: end; visibility: inherit; font-family: Roboto, sans-serif; font-size: 12px; font-weight: 200;" fill="rgb(50, 49, 63)" stroke="none" stroke-width="1px">0.3</text><text x="0" y="20.724933417966685" dx="0em" dy="0.3em" style="text-anchor: end; visibility: inherit; font-family: Roboto, sans-serif; font-size: 12px; font-weight: 200;" fill="rgb(50, 49, 63)" stroke="none" stroke-width="1px">0.35</text></g><line x1="60" y1="0" x2="60" y2="378" fill="rgb(0, 0, 0)" stroke="rgb(204, 204, 204)" stroke-width="1px"></line></g></g><g transform="translate(60, 0)" clip-path="url(#clip_0)"><clipPath id="clip_0"><rect width="1057" height="378"></rect></clipPath><g><g><g><line x1="130.61792860953233" y1="0" x2="130.61792860953233" y2="378" fill="rgb(0, 0, 0)" stroke="rgb(60, 60, 60)" stroke-width="1px" opacity="0.25"></line><line x1="264.22834394742387" y1="0" x2="264.22834394742387" y2="378" fill="rgb(0, 0, 0)" stroke="rgb(60, 60, 60)" stroke-width="1px" opacity="0.25"></line><line x1="397.83875928531546" y1="0" x2="397.83875928531546" y2="378" fill="rgb(0, 0, 0)" stroke="rgb(60, 60, 60)" stroke-width="1px" opacity="0.25"></line><line x1="531.449174623207" y1="0" x2="531.449174623207" y2="378" fill="rgb(0, 0, 0)" stroke="rgb(60, 60, 60)" stroke-width="1px" opacity="0.25"></line><line x1="665.0595899610986" y1="0" x2="665.0595899610986" y2="378" fill="rgb(0, 0, 0)" stroke="rgb(60, 60, 60)" stroke-width="1px" opacity="0.25"></line><line x1="798.6700052989902" y1="0" x2="798.6700052989902" y2="378" fill="rgb(0, 0, 0)" stroke="rgb(60, 60, 60)" stroke-width="1px" opacity="0.25"></line><line x1="932.2804206368817" y1="0" x2="932.2804206368817" y2="378" fill="rgb(0, 0, 0)" stroke="rgb(60, 60, 60)" stroke-width="1px" opacity="0.25"></line></g><g><line x1="0" y1="348.11971178421265" x2="1057.8" y2="348.11971178421265" fill="rgb(0, 0, 0)" stroke="rgb(60, 60, 60)" stroke-width="1px" opacity="0.25"></line><line x1="0" y1="307.1953644884319" x2="1057.8" y2="307.1953644884319" fill="rgb(0, 0, 0)" stroke="rgb(60, 60, 60)" stroke-width="1px" opacity="0.25"></line><line x1="0" y1="266.2710171926512" x2="1057.8" y2="266.2710171926512" fill="rgb(0, 0, 0)" stroke="rgb(60, 60, 60)" stroke-width="1px" opacity="0.25"></line><line x1="0" y1="225.3466698968704" x2="1057.8" y2="225.3466698968704" fill="rgb(0, 0, 0)" stroke="rgb(60, 60, 60)" stroke-width="1px" opacity="0.25"></line><line x1="0" y1="184.42232260108963" x2="1057.8" y2="184.42232260108963" fill="rgb(0, 0, 0)" stroke="rgb(60, 60, 60)" stroke-width="1px" opacity="0.25"></line><line x1="0" y1="143.4979753053089" x2="1057.8" y2="143.4979753053089" fill="rgb(0, 0, 0)" stroke="rgb(60, 60, 60)" stroke-width="1px" opacity="0.25"></line><line x1="0" y1="102.57362800952814" x2="1057.8" y2="102.57362800952814" fill="rgb(0, 0, 0)" stroke="rgb(60, 60, 60)" stroke-width="1px" opacity="0.25"></line><line x1="0" y1="61.649280713747416" x2="1057.8" y2="61.649280713747416" fill="rgb(0, 0, 0)" stroke="rgb(60, 60, 60)" stroke-width="1px" opacity="0.25"></line><line x1="0" y1="20.724933417966685" x2="1057.8" y2="20.724933417966685" fill="rgb(0, 0, 0)" stroke="rgb(60, 60, 60)" stroke-width="1px" opacity="0.25"></line></g></g></g><g><g><line x1="0" y1="307.1953644884319" x2="1057.8" y2="307.1953644884319" fill="rgb(0, 0, 0)" stroke="rgb(153, 153, 153)" stroke-width="1.5px"></line></g></g><g><g><line x1="130.61792860953233" y1="0" x2="130.61792860953233" y2="378" fill="rgb(0, 0, 0)" stroke="rgb(153, 153, 153)" stroke-width="1.5px"></line></g></g><g><g><g><g><g><path stroke="rgb(0, 119, 187)" stroke-width="2px" d="M130.61792860953233,188.03519806503843L143.97897014332148,114.75156856711976L157.34001167711062,27.50784748273596L170.7010532108998,109.21614436723426L184.06209474468895,113.67147925199747L197.4231362784781,99.2253730861797L210.78417781226725,208.31375970042353L224.14521934605642,178.20644384017396L237.50626087984557,131.4118468521729L250.86730241363472,160.35807706561104L264.22834394742387,186.68509251933853L277.589385481213,217.60247536592982L290.95042701500216,192.89557559027693L304.3114685487913,211.41900123589275L317.6725100825805,206.09958758118816L331.0335516163696,234.47877029436683L344.3945931501588,232.26460427333438L357.75563468394796,253.16420689796982L371.1166762177371,277.1690541071759L384.47771775152626,277.70909571563556L397.83875928531546,273.9288075055194L411.19980081910455,276.0889708902566L424.56084235289376,284.48661866407974L437.9218838866829,256.269448433439L451.28292542047205,265.90918885761795L464.64396695426126,278.3841484884855L478.00500848805035,272.3896881591339L491.36605002183956,276.575009862421L504.7270915556287,285.59370319914666L518.0881330894179,277.628090236642L531.449174623207,291.3721468851144L544.8102161569961,297.2315983369018L558.1712576907853,286.0797406467604L571.5322992245744,285.1346685942313L584.8933407583637,288.1859029197531L598.2543822921529,297.1505920956328L611.6154238259419,289.18497913312814L624.976465359731,289.7520235842861L638.3375068935203,286.78179473775793L651.6985484273094,295.80048807448367L665.0595899610986,296.7455608892881L678.4206314948876,277.3580709569629L691.7816730286769,285.4316907166088L705.142714562466,292.53323710557805L718.5037560962552,289.59001110174825L731.8647976300443,294.85541525967926L745.2258391638336,293.5053120008055L758.5868806976226,294.66640069671837L771.9479222314118,299.2027494455042L785.3089637652009,287.5108501469031" style="fill: none;" fill="none"></path></g><g><path stroke="rgb(255, 112, 67)" stroke-width="2px" d="M130.61792860953233,238.7642580303417L143.97897014332148,141.5133614989461L157.34001167711062,55.27396565613344L170.7010532108998,49.021380591972544L184.06209474468895,94.69999424224007L197.4231362784781,122.9176965410889L210.78417781226725,136.106023953992L224.14521934605642,149.6648781786277L237.50626087984557,158.55744848177454L250.86730241363472,178.44994508428988L264.22834394742387,189.1835506640734L277.589385481213,206.63290592088654L290.95042701500216,212.665492215132L304.3114685487913,217.41282735213667L317.6725100825805,230.80957914574083L331.0335516163696,244.48421994994146L344.3945931501588,250.28523308505703L357.75563468394796,258.4020204988924L371.1166762177371,263.0567239329639L384.47771775152626,265.7082835611642L397.83875928531546,267.8735328471684L411.19980081910455,271.1040375695994L424.56084235289376,269.43667911320864L437.9218838866829,276.67347144738204L451.28292542047205,276.76610315031525L464.64396695426126,278.45661648333777L478.00500848805035,278.6766152532533L491.36605002183956,281.9650132654668L504.7270915556287,286.72392736533806L518.0881330894179,288.15970656439595L531.449174623207,285.8786706988268L544.8102161569961,288.2291803415958L558.1712576907853,287.0712932022359L571.5322992245744,289.2365424882401L584.8933407583637,290.7533729028138L598.2543822921529,290.6607427244314L611.6154238259419,291.48284146520933L624.976465359731,291.34389543536037L638.3375068935203,291.8302088266579L651.6985484273094,291.27442318271125L665.0595899610986,292.00389174510684L678.4206314948876,292.3280996562714L691.7816730286769,292.18915362642235L705.142714562466,292.8259904858848L718.5037560962552,293.2659880257158L731.8647976300443,294.3659803507425L745.2258391638336,293.6249328254803L758.5868806976226,294.75966127683154L771.9479222314118,294.0765078036272L785.3089637652009,294.00703555097806" style="fill: none;" fill="none"></path></g></g></g></g></g></g><g transform="translate(60, 378)" clip-path="url(#clip_1)"><clipPath id="clip_1"><rect width="1057" height="22"></rect></clipPath><g><g><line x1="130.61792860953233" y1="0" x2="130.61792860953233" y2="5" style="visibility: inherit;" fill="rgb(0, 0, 0)" stroke="rgb(204, 204, 204)" stroke-width="1px"></line><line x1="264.22834394742387" y1="0" x2="264.22834394742387" y2="5" style="visibility: inherit;" fill="rgb(0, 0, 0)" stroke="rgb(204, 204, 204)" stroke-width="1px"></line><line x1="397.83875928531546" y1="0" x2="397.83875928531546" y2="5" style="visibility: inherit;" fill="rgb(0, 0, 0)" stroke="rgb(204, 204, 204)" stroke-width="1px"></line><line x1="531.449174623207" y1="0" x2="531.449174623207" y2="5" style="visibility: inherit;" fill="rgb(0, 0, 0)" stroke="rgb(204, 204, 204)" stroke-width="1px"></line><line x1="665.0595899610986" y1="0" x2="665.0595899610986" y2="5" style="visibility: inherit;" fill="rgb(0, 0, 0)" stroke="rgb(204, 204, 204)" stroke-width="1px"></line><line x1="798.6700052989902" y1="0" x2="798.6700052989902" y2="5" style="visibility: inherit;" fill="rgb(0, 0, 0)" stroke="rgb(204, 204, 204)" stroke-width="1px"></line><line x1="932.2804206368817" y1="0" x2="932.2804206368817" y2="5" style="visibility: inherit;" fill="rgb(0, 0, 0)" stroke="rgb(204, 204, 204)" stroke-width="1px"></line></g><g transform="translate(0, 8)"><text x="130.61792860953233" y="0" dx="0em" dy="0.95em" style="text-anchor: middle; visibility: inherit; font-family: Roboto, sans-serif; font-size: 12px; font-weight: 200;" fill="rgb(50, 49, 63)" stroke="none" stroke-width="1px">0</text><text x="264.22834394742387" y="0" dx="0em" dy="0.95em" style="text-anchor: middle; visibility: inherit; font-family: Roboto, sans-serif; font-size: 12px; font-weight: 200;" fill="rgb(50, 49, 63)" stroke="none" stroke-width="1px">10</text><text x="397.83875928531546" y="0" dx="0em" dy="0.95em" style="text-anchor: middle; visibility: inherit; font-family: Roboto, sans-serif; font-size: 12px; font-weight: 200;" fill="rgb(50, 49, 63)" stroke="none" stroke-width="1px">20</text><text x="531.449174623207" y="0" dx="0em" dy="0.95em" style="text-anchor: middle; visibility: inherit; font-family: Roboto, sans-serif; font-size: 12px; font-weight: 200;" fill="rgb(50, 49, 63)" stroke="none" stroke-width="1px">30</text><text x="665.0595899610986" y="0" dx="0em" dy="0.95em" style="text-anchor: middle; visibility: inherit; font-family: Roboto, sans-serif; font-size: 12px; font-weight: 200;" fill="rgb(50, 49, 63)" stroke="none" stroke-width="1px">40</text><text x="798.6700052989902" y="0" dx="0em" dy="0.95em" style="text-anchor: middle; visibility: inherit; font-family: Roboto, sans-serif; font-size: 12px; font-weight: 200;" fill="rgb(50, 49, 63)" stroke="none" stroke-width="1px">50</text><text x="932.2804206368817" y="0" dx="0em" dy="0.95em" style="text-anchor: middle; visibility: inherit; font-family: Roboto, sans-serif; font-size: 12px; font-weight: 200;" fill="rgb(50, 49, 63)" stroke="none" stroke-width="1px">60</text></g><line x1="0" y1="0" x2="1057.8" y2="0" fill="rgb(0, 0, 0)" stroke="rgb(204, 204, 204)" stroke-width="1px"></line></g></g></g></g></svg>